<?xml version="1.0" standalone="no"?>
<!DOCTYPE svg PUBLIC "-//W3C//DTD SVG 1.1//EN" "http://www.w3.org/Graphics/SVG/1.1/DTD/svg11.dtd" >
<svg xmlns="http://www.w3.org/2000/svg" xmlns:xlink="http://www.w3.org/1999/xlink" version="1.1">
<metadata>
Created by FontForge 20201107 at Thu May  8 15:03:03 2014
 By 
Copyright (c) 2014 Monotype ITC Inc. All rights reserved.
</metadata>
<defs>
<font id="ITCKabelStd-Book" horiz-adv-x="500" >
  <font-face 
    font-family="ITC Kabel Std Book"
    font-weight="400"
    font-stretch="normal"
    units-per-em="1000"
    panose-1="2 13 4 2 2 2 4 2 9 4"
    ascent="724"
    descent="-276"
    x-height="502"
    cap-height="702"
    bbox="-167 -250 1000 924"
    underline-thickness="50"
    underline-position="-125"
    unicode-range="U+000D-FB02"
  />
<missing-glyph horiz-adv-x="497" 
d="M497 696v-696h-497v696h497zM448 49v598h-399v-598h399zM372 464q0 -29 -8.5 -48.5t-21 -35t-28.5 -29.5t-31 -30q-9 -11 -14 -24t-5 -40v-31h-48v38q0 38 16.5 63t36.5 45.5t36.5 40.5t16.5 47q0 35 -22 58.5t-52 23.5q-29 0 -51 -21t-28 -71l-49 8q7 70 43 101.5
t88 31.5q53 0 87 -34.5t34 -92.5zM210 178h60v-65h-60v65z" />
    <glyph glyph-name="fi" unicode="fi" 
d="M299 666q-16 0 -28.5 -0.5t-23.5 -1.5q-30 -3 -49 -9t-30 -19t-15 -34.5t-4 -54.5v-45h143v-58h-143v-444l-58 -12v456h-68l14 58h54v46q0 42 8.5 74.5t30 55t59 34.5t95.5 12zM395 724l46 -52l-46 -52l-46 52zM429 0l-58 -12v514l58 12v-514z" />
    <glyph glyph-name="fl" unicode="fl" 
d="M299 666q-16 0 -28.5 -0.5t-23.5 -1.5q-30 -3 -49 -9t-30 -19t-15 -34.5t-4 -54.5v-45h143v-58h-143v-444l-58 -12v456h-68l14 58h54v46q0 42 8.5 74.5t30 55t59 34.5t95.5 12zM429 0l-58 -12v724l58 12v-724z" />
    <glyph glyph-name=".notdef" horiz-adv-x="497" 
d="M497 696v-696h-497v696h497zM448 49v598h-399v-598h399zM372 464q0 -29 -8.5 -48.5t-21 -35t-28.5 -29.5t-31 -30q-9 -11 -14 -24t-5 -40v-31h-48v38q0 38 16.5 63t36.5 45.5t36.5 40.5t16.5 47q0 35 -22 58.5t-52 23.5q-29 0 -51 -21t-28 -71l-49 8q7 70 43 101.5
t88 31.5q53 0 87 -34.5t34 -92.5zM210 178h60v-65h-60v65z" />
    <glyph glyph-name=".null" horiz-adv-x="0" 
 />
    <glyph glyph-name="nonmarkingreturn" unicode="&#xd;" horiz-adv-x="0" 
 />
    <glyph glyph-name="NULl" 
 />
    <glyph glyph-name="NULl" 
 />
    <glyph glyph-name="space" unicode=" " horiz-adv-x="250" 
 />
    <glyph glyph-name="exclam" unicode="!" horiz-adv-x="222" 
d="M138 176l-57 -6v542l67 11zM105 112l52 -59l-52 -59l-52 59z" />
    <glyph glyph-name="quotedbl" unicode="&#x22;" horiz-adv-x="333" 
d="M78 686h58v-271h-58v271zM198 686h58v-271h-58v271z" />
    <glyph glyph-name="numbersign" unicode="#" 
d="M180 686h58l-31 -219h129l31 219h58l-31 -219h97l-3 -52h-101l-21 -145h97l-3 -52h-100l-31 -218h-58l31 218h-129l-30 -218h-59l31 218h-106l3 52h110l20 145h-105l3 52h109zM180 270h129l20 145h-129z" />
    <glyph glyph-name="dollar" unicode="$" 
d="M299 640q40 -5 78.5 -22t66.5 -49l-33 -36q-23 23 -50.5 38t-61.5 17v-213q80 -13 121 -56t41 -102q0 -70 -42.5 -115t-119.5 -56v-101l-44 -9v110q-51 2 -97 25.5t-78 65.5l42 36q24 -32 59.5 -52.5t73.5 -22.5v225q-85 14 -123.5 55.5t-38.5 104.5q0 66 43.5 109
t118.5 48v67l44 16v-83zM255 588q-51 -2 -79.5 -25.5t-28.5 -74.5q0 -52 29.5 -77t78.5 -30v207zM299 98q49 4 78.5 30t29.5 78t-30 78.5t-78 32.5v-219z" />
    <glyph glyph-name="percent" unicode="%" horiz-adv-x="833" 
d="M214 686q43 0 72 -16.5t50 -36.5q23 -21 49 -39t60 -18q22 0 40.5 9.5t35 24.5t30.5 35t28 41h51l-397 -702h-49l337 580l-2 2q-14 -9 -24.5 -14t-20 -7.5t-18.5 -3.5t-21 -1q-15 0 -30 5.5t-26 13.5l-2 -2q7 -22 7 -45q0 -33 -13 -64t-36.5 -54t-54.5 -37t-67 -14
q-35 0 -66 13t-54.5 36.5t-37 54.5t-13.5 67q0 34 13 65.5t36 55t54.5 37.5t68.5 14zM213 391q25 0 47.5 9.5t39 26.5t26.5 39t10 48q0 24 -9.5 46.5t-26 40t-39 27.5t-49.5 10q-24 0 -46.5 -9.5t-39 -26.5t-26.5 -39.5t-10 -48.5q0 -25 9.5 -47.5t26 -39t39 -26.5t48.5 -10
zM775 170q0 -34 -13 -65t-36 -54t-54 -37t-68 -14q-36 0 -67 13t-54 36t-36.5 54t-13.5 67q0 34 13 65.5t36 54.5t54 37t68 14q35 0 66 -13.5t54.5 -37t37 -54.5t13.5 -66zM604 48q25 0 47.5 9.5t39 26t26.5 38.5t10 48q0 24 -9.5 46.5t-26 39.5t-39.5 27t-49 10
q-24 0 -46.5 -9.5t-39 -26t-26.5 -39t-10 -47.5q0 -26 9.5 -48t26 -39t39 -26.5t48.5 -9.5z" />
    <glyph glyph-name="ampersand" unicode="&#x26;" horiz-adv-x="611" 
d="M413 578q0 -36 -20.5 -69.5t-48.5 -59.5l-70 -65l144 -176l125 122l39 -38l-128 -125l120 -147l-47 -28l-113 136l-73 -72q-66 -64 -133 -64q-74 0 -122 48t-48 121q0 21 3.5 38.5t11.5 34.5q5 11 12.5 23.5t18.5 25.5q4 5 13 14l19.5 19.5t20.5 20t16 14.5l44 43
q-28 34 -48 73.5t-20 84.5q0 69 41 109.5t108 40.5q27 0 51.5 -9.5t43.5 -26.5q20 -18 30 -41.5t10 -46.5zM241 425q37 29 58 49t35 41q8 13 14.5 28.5t6.5 36.5q0 31 -24.5 50.5t-58.5 19.5q-44 0 -64.5 -29t-20.5 -71q0 -31 14.5 -65t39.5 -60zM231 350q-7 -8 -25 -24.5
t-49 -45.5q-61 -57 -61 -122q0 -47 32 -77.5t79 -30.5q49 0 105 55q28 28 44.5 45t23.5 22z" />
    <glyph glyph-name="quotesingle" unicode="'" horiz-adv-x="222" 
d="M82 686h58v-271h-58v271z" />
    <glyph glyph-name="parenleft" unicode="(" horiz-adv-x="333" 
d="M274 654q-98 -72 -153 -163.5t-55 -216.5q0 -126 55 -218.5t159 -158.5l-24 -44q-112 72 -177.5 179t-65.5 245t65 245t180 180z" />
    <glyph glyph-name="parenright" unicode=")" horiz-adv-x="333" 
d="M77 702q114 -73 178.5 -180t64.5 -244t-65 -244.5t-180 -180.5l-16 48q98 72 153 163.5t55 216.5t-54.5 218t-159.5 159z" />
    <glyph glyph-name="asterisk" unicode="*" horiz-adv-x="444" 
d="M244 555l119 70l34 -36l-136 -74l129 -68l-15 -44l-131 76v-140l-47 -12v152l-120 -71l-30 35l132 76l-125 67l14 44l129 -74v135l47 11v-147z" />
    <glyph glyph-name="plus" unicode="+" horiz-adv-x="600" 
d="M271 502h58v-222h222v-58h-222v-222h-58v222h-222v58h222v222z" />
    <glyph glyph-name="comma" unicode="," horiz-adv-x="250" 
d="M189 83l-103 -267h-56l84 256z" />
    <glyph glyph-name="hyphen" unicode="-" horiz-adv-x="333" 
d="M294 278v-54h-255v54h255z" />
    <glyph glyph-name="period" unicode="." horiz-adv-x="250" 
d="M125 112l52 -59l-52 -59l-52 59z" />
    <glyph glyph-name="slash" unicode="/" horiz-adv-x="278" 
d="M229 702h50l-229 -718h-50z" />
    <glyph glyph-name="zero" unicode="0" 
d="M469 343q0 -32 -5 -71.5t-16.5 -79t-28.5 -77t-41.5 -67t-56.5 -47t-72 -17.5q-39 0 -70.5 17.5t-55.5 47t-41.5 67t-28.5 77t-16.5 79t-5.5 71.5q0 33 5.5 72t16.5 79t28.5 77.5t41.5 66.5t55.5 46.5t71.5 17.5t72 -18t56.5 -48t41.5 -68t28 -78t16 -78.5t5 -68.5z
M249 42q29 0 52 16t40.5 41.5t29.5 58t19.5 66t11 65t3.5 54.5q0 19 -3 49t-10 63.5t-19 67t-29 60.5t-40.5 44t-54.5 17q-28 0 -50.5 -16t-40 -42t-29.5 -59t-19.5 -67t-11 -66t-3.5 -56q0 -21 3.5 -51t11 -63t19 -65.5t29 -58.5t40 -42t51.5 -16z" />
    <glyph glyph-name="one" unicode="1" 
d="M321 723h2v-723l-64 -8v630l-179 -100l-18 43z" />
    <glyph glyph-name="two" unicode="2" 
d="M469 474q0 -51 -32.5 -107.5t-89.5 -116.5l-188 -192h306l-10 -58h-426l195 205q41 43 72 78.5t54 70.5q25 38 41 80t16 78q0 31 -14 55.5t-36.5 41.5t-51.5 26t-58 9q-33 0 -61 -11.5t-48.5 -32t-32 -48.5t-11.5 -60q0 -72 41.5 -114.5t109.5 -53.5l-40 -49
q-78 14 -126 73q-49 60 -49 137q0 45 16.5 85t45 69t68 46t85.5 17q48 0 89.5 -16.5t73.5 -49.5q32 -35 46.5 -76t14.5 -86z" />
    <glyph glyph-name="three" unicode="3" 
d="M432 524q0 -57 -29 -95.5t-80 -61.5q60 -23 94 -70.5t34 -110.5q0 -45 -17 -82t-47 -64t-71 -41.5t-88 -14.5q-32 0 -62.5 9t-57.5 26t-48.5 41.5t-36.5 54.5l52 33q22 -48 60.5 -77t91.5 -29q72 0 116 40t44 110q0 76 -53 110.5t-165 34.5v53h20q36 0 68 6t57 20.5
t39.5 38.5t14.5 60q0 60 -37.5 94.5t-94.5 34.5q-50 0 -85.5 -21.5t-68.5 -58.5l-41 40q19 19 38 37t42 31.5t51 21.5t66 8q40 0 75 -12.5t61.5 -35.5t42 -56t15.5 -74z" />
    <glyph glyph-name="four" unicode="4" 
d="M356 723h2v-473h118l-10 -58h-108v-192l-64 -8v200h-293zM292 551l-194 -301h196v301h-2z" />
    <glyph glyph-name="five" unicode="5" 
d="M407 686l-15 -58h-247v-207q42 18 88 18t86 -18t70 -49t47.5 -72t17.5 -87q0 -50 -17.5 -92t-48.5 -72.5t-73 -47.5t-90 -17q-67 0 -123.5 27.5t-85.5 75.5l45 41q32 -38 72 -62t91 -24q35 0 65.5 13t53 36t35 53.5t12.5 66.5q0 34 -12 65t-34 54.5t-53 37t-70 13.5
q-21 0 -38.5 -3t-33.5 -9t-32.5 -15t-35.5 -21v353h326z" />
    <glyph glyph-name="six" unicode="6" 
d="M356 686q-61 -56 -116 -117.5t-93 -132.5l2 -2q24 17 52 29.5t59 12.5q47 0 86 -20t66.5 -53.5t42.5 -77.5t15 -92q0 -47 -14 -91.5t-41.5 -79.5t-67.5 -56.5t-91 -21.5q-53 0 -94.5 21t-70 56t-43.5 81t-15 96q0 112 80 250q81 139 199 235zM259 42q37 0 65 18t46 46.5
t27 63.5t9 70q0 40 -11 74t-31 58.5t-48.5 38t-63.5 13.5q-39 0 -68 -16.5t-48.5 -44t-29 -63.5t-9.5 -75q0 -35 11 -68t32 -58.5t51 -41t68 -15.5z" />
    <glyph glyph-name="seven" unicode="7" 
d="M471 686l-258 -686l-69 -8l243 636h-352l11 58h425z" />
    <glyph glyph-name="eight" unicode="8" 
d="M453 517q0 -54 -31.5 -94.5t-79.5 -61.5q57 -21 92.5 -67t35.5 -109q0 -45 -17 -82t-46.5 -63.5t-69.5 -41t-86 -14.5q-47 0 -87.5 14.5t-70 41.5t-46.5 65.5t-17 85.5q0 28 9.5 55t27.5 49.5t42.5 39t54.5 24.5v2q-24 5 -45 19.5t-36.5 35t-24.5 45t-9 49.5
q0 41 13.5 76.5t38.5 61t61 40t82 14.5q42 0 80 -12.5t66.5 -36t45.5 -58t17 -78.5zM257 384q28 0 52.5 9.5t42 26t27.5 40t10 51.5q0 63 -37.5 98t-97.5 35q-61 0 -101 -35.5t-40 -104.5q0 -28 11 -50.5t30.5 -38t46 -23.5t56.5 -8zM246 42q33 0 62.5 10.5t51 29.5t34 46.5
t12.5 62.5q0 31 -12 57t-33.5 45t-50 29t-61.5 10q-72 0 -113.5 -41t-41.5 -113q0 -30 13 -55t34 -43t48.5 -28t56.5 -10z" />
    <glyph glyph-name="nine" unicode="9" 
d="M468 448q0 -63 -24.5 -131.5t-64 -134t-89.5 -123t-100 -96.5l-44 37q61 55 115.5 116.5t93.5 133.5l-2 2q-25 -17 -52.5 -29.5t-58.5 -12.5q-48 0 -87 20.5t-66.5 54.5t-42.5 77.5t-15 90.5q0 48 14.5 93t42.5 79.5t68 55.5t90 21q52 0 93 -20.5t69.5 -55t44 -81
t15.5 -97.5zM249 262q40 0 69.5 17.5t48.5 45.5t28 63.5t9 71.5q0 34 -10.5 67t-31 59t-51 42t-69.5 16q-37 0 -64.5 -18t-46 -46.5t-27.5 -63.5t-9 -70t9 -68t28 -58.5t48 -41.5t69 -16z" />
    <glyph glyph-name="colon" unicode=":" horiz-adv-x="250" 
d="M125 372l52 -59l-52 -59l-52 59zM125 112l52 -59l-52 -59l-52 59z" />
    <glyph glyph-name="semicolon" unicode=";" horiz-adv-x="250" 
d="M125 372l52 -59l-52 -59l-52 59zM155 83l-103 -267h-54l82 256z" />
    <glyph glyph-name="less" unicode="&#x3c;" horiz-adv-x="600" 
d="M554 510v-62l-436 -197l436 -197v-62l-508 232v54z" />
    <glyph glyph-name="equal" unicode="=" horiz-adv-x="600" 
d="M551 379v-58h-502v58h502zM551 181v-58h-502v58h502z" />
    <glyph glyph-name="greater" unicode="&#x3e;" horiz-adv-x="600" 
d="M46 510l508 -232v-54l-508 -232v62l436 197l-436 197v62z" />
    <glyph glyph-name="question" unicode="?" horiz-adv-x="444" 
d="M417 531q0 -93 -78 -149q-42 -30 -61.5 -55.5t-19.5 -60.5v-69l-48 -12v125q0 34 20 54.5t56 44.5t54.5 54.5t18.5 75.5q0 25 -9.5 48t-27 40t-40.5 27.5t-50 10.5t-49 -5.5t-40.5 -18.5t-34 -34.5t-30.5 -52.5l-50 27q29 63 75 102.5t119 39.5q39 0 74.5 -14t62 -39.5
t42.5 -60.5t16 -78zM240 112l52 -59l-52 -59l-52 59z" />
    <glyph glyph-name="at" unicode="@" horiz-adv-x="800" 
d="M742 404q0 -56 -20.5 -106.5t-53 -88t-72 -59.5t-77.5 -22q-25 0 -43 15.5t-20 47.5h-2q-23 -23 -55 -43t-68 -20q-30 0 -55 11.5t-42.5 31.5t-27 47t-9.5 57q0 54 17.5 104t48.5 88.5t73 62t91 23.5q34 0 62 -18.5t45 -61.5l23 62h56l-89 -279q-2 -7 -6.5 -22t-4.5 -29
q0 -12 4.5 -20t18.5 -8q28 0 54.5 21t47.5 54t33.5 72.5t12.5 76.5q0 55 -21 101t-57 79t-84.5 51t-104.5 18q-64 0 -119 -24.5t-95.5 -66.5t-63.5 -99t-23 -121q0 -62 23.5 -117.5t64.5 -96.5t96.5 -65t119.5 -24q72 0 138.5 32.5t109.5 89.5h55q-23 -42 -56.5 -74
t-73 -54.5t-84 -34t-89.5 -11.5q-76 0 -142 28.5t-115 77.5t-77 115t-28 141q0 76 29.5 141t79 113t114 75t134.5 27q69 0 128.5 -23t104 -63t69.5 -94.5t25 -117.5zM346 180q33 0 61.5 22.5t49.5 56t33.5 73t12.5 72.5q0 18 -6.5 35.5t-17 31t-25 22t-30.5 8.5
q-33 0 -62.5 -20t-51.5 -52t-35 -71t-13 -77q0 -45 24 -73t60 -28z" />
    <glyph glyph-name="A" unicode="A" horiz-adv-x="667" 
d="M335 702l349 -702l-60 -14l-141 284h-294l-139 -286l-66 16l349 702h2zM219 332h229l-114 229z" />
    <glyph glyph-name="B" unicode="B" 
d="M245 686q39 0 73.5 -9.5t61 -31t41.5 -56t15 -83.5q0 -107 -90 -151q57 -28 83.5 -67.5t26.5 -101.5q0 -92 -55 -139t-158 -47h-175v686h177zM228 379q69 0 107.5 33t38.5 93q0 30 -10 52t-27 37t-39 22.5t-45 7.5h-123v-245h98zM239 62q67 0 108 28.5t41 93.5
q0 59 -34 96t-96 37h-128v-255h109z" />
    <glyph glyph-name="C" unicode="C" horiz-adv-x="556" 
d="M514 594q-21 16 -58.5 31t-83.5 15q-59 0 -110 -23t-88.5 -63t-58.5 -94t-21 -115q0 -66 22 -120.5t60 -94.5t88 -62t106 -22q42 0 79.5 12.5t64.5 33.5l-9 -76q-29 -14 -63 -23t-66 -9q-71 0 -134.5 28t-111.5 76.5t-76 114t-28 140.5q0 76 28.5 141.5t76 114t110.5 76
t132 27.5q33 0 68 -9t64 -23z" />
    <glyph glyph-name="D" unicode="D" horiz-adv-x="611" 
d="M248 686q68 0 128 -25.5t105 -71t71.5 -107.5t26.5 -135q0 -75 -26 -138.5t-71 -110t-105.5 -72.5t-128.5 -26h-180v686h180zM235 62q57 0 107.5 21t88 58.5t59 90t21.5 115.5t-19.5 114t-54.5 87t-83 56t-104 20h-120v-562h105z" />
    <glyph glyph-name="E" unicode="E" 
d="M445 686l12 -62h-321v-245h275v-62h-275v-255h338l-11 -62h-389v686h371z" />
    <glyph glyph-name="F" unicode="F" horiz-adv-x="389" 
d="M366 686l12 -62h-242v-245h189v-62h-189v-317l-62 -8v694h292z" />
    <glyph glyph-name="G" unicode="G" horiz-adv-x="667" 
d="M570 564q-45 33 -91.5 54.5t-94.5 21.5q-60 0 -112.5 -22.5t-92 -61.5t-62.5 -92.5t-23 -115.5q0 -63 23 -118t61.5 -96t89.5 -64.5t107 -23.5q53 0 96.5 17.5t86.5 49.5v197h-220l20 62h262v-295q-60 -45 -121.5 -69t-127.5 -24q-73 0 -136 28t-109.5 76.5t-73 115
t-26.5 143.5q0 73 26 137.5t73.5 113t113 76.5t143.5 28q31 0 62.5 -7t61.5 -19t56 -28.5t46 -35.5z" />
    <glyph glyph-name="H" unicode="H" horiz-adv-x="667" 
d="M136 379h394v307l62 16v-702l-62 -8v325h-394v-317l-62 -8v694l62 16v-323z" />
    <glyph glyph-name="I" unicode="I" horiz-adv-x="222" 
d="M142 0l-62 -8v694l62 16v-702z" />
    <glyph glyph-name="J" unicode="J" horiz-adv-x="389" 
d="M314 208q0 -62 -11 -104.5t-33.5 -69t-57.5 -38.5t-82 -12q-31 0 -63.5 10.5t-53.5 30.5l29 61q15 -17 40.5 -28.5t51.5 -11.5q61 0 89.5 37.5t28.5 108.5v494l62 16v-494z" />
    <glyph glyph-name="K" unicode="K" 
d="M128 368h7l290 334l70 -21l-275 -316l296 -343l-67 -30l-314 364h-7v-356l-62 -8v694l62 16v-334z" />
    <glyph glyph-name="L" unicode="L" horiz-adv-x="389" 
d="M136 62h250l-19 -62h-293v686l62 16v-640z" />
    <glyph glyph-name="M" unicode="M" horiz-adv-x="778" 
d="M156 702h2l233 -559l231 559h2l138 -702l-62 -8l-98 508h-2l-208 -516h-2l-216 516h-2l-94 -508l-62 8z" />
    <glyph glyph-name="N" unicode="N" horiz-adv-x="667" 
d="M71 702h2l459 -551h2v535l62 12v-714h-2l-459 554h-2v-538l-62 -8v710z" />
    <glyph glyph-name="O" unicode="O" horiz-adv-x="778" 
d="M752 343q0 -74 -28.5 -139t-78 -114t-115.5 -77.5t-141 -28.5q-74 0 -140 28.5t-115.5 77t-78.5 114t-29 139.5t29 139.5t78.5 114t115.5 77t140 28.5q73 0 139 -28t116 -77t79 -114t29 -140zM389 46q59 0 112.5 23.5t94 63.5t64.5 94t24 116q0 60 -23.5 114t-63.5 94.5
t-94 64.5t-115 24q-59 0 -112 -23.5t-93.5 -64t-64.5 -94.5t-24 -115q0 -60 23.5 -114t64 -94.5t94 -64.5t113.5 -24z" />
    <glyph glyph-name="P" unicode="P" horiz-adv-x="444" 
d="M197 686q51 0 92.5 -15t71.5 -44.5t46 -72t16 -97.5q0 -51 -15 -93t-46 -71.5t-78.5 -46t-111.5 -16.5h-45v-230l-62 -8v694h132zM127 292h59q81 0 125 44t44 122q0 40 -11.5 71t-32 52t-48 32t-58.5 11h-78v-332z" />
    <glyph glyph-name="Q" unicode="Q" horiz-adv-x="778" 
d="M752 343q0 -75 -27 -136.5t-73 -109.5l130 -119l-51 -43l-129 119q-42 -32 -96.5 -51t-116.5 -19q-74 0 -139.5 28t-115.5 76.5t-79 114t-29 140.5q0 72 28 137t77 114.5t115 78.5t143 29q75 0 141 -28.5t115.5 -77t78 -114t28.5 -139.5zM390 46q47 0 86.5 13.5
t76.5 39.5l-97 89l51 42l96 -88q38 40 59.5 91.5t21.5 109.5q0 59 -23 112.5t-63 94.5t-94.5 65.5t-117.5 24.5q-56 0 -109 -23t-93.5 -63.5t-65 -94.5t-24.5 -116q0 -60 23.5 -114t64 -94.5t94.5 -64.5t114 -24z" />
    <glyph glyph-name="R" unicode="R" horiz-adv-x="444" 
d="M208 686q43 0 79.5 -15t62.5 -42t41 -64t15 -80q0 -78 -43 -130t-120 -66l210 -264l-63 -33l-256 335h-4v-327l-62 -8v694h140zM218 339q59 0 89.5 40.5t30.5 105.5q0 28 -10 53.5t-26.5 44.5t-38 30t-45.5 11h-88v-285h88z" />
    <glyph glyph-name="S" unicode="S" 
d="M404 574q-32 29 -65.5 47.5t-77.5 18.5q-63 0 -105 -32.5t-42 -95.5q0 -29 12 -48.5t32.5 -34t47.5 -24.5t56 -19q38 -12 75 -26t65.5 -35.5t46 -55t17.5 -84.5q0 -45 -16.5 -82t-45.5 -63.5t-68 -41t-85 -14.5q-70 0 -125.5 28.5t-91.5 91.5l48 38q32 -49 71.5 -72.5
t98.5 -23.5q63 0 104.5 35t41.5 101q0 31 -11.5 53t-33 38t-53.5 28.5t-73 24.5q-35 10 -68 23.5t-58 33.5t-40 49.5t-15 73.5q0 46 16.5 82.5t45 61.5t68 38.5t85.5 13.5q51 0 99.5 -22.5t81.5 -59.5z" />
    <glyph glyph-name="T" unicode="T" horiz-adv-x="444" 
d="M434 686v-62h-181v-624l-62 -8v632h-190l14 62h419z" />
    <glyph glyph-name="U" unicode="U" horiz-adv-x="611" 
d="M128 215q0 -29 11.5 -59t34 -54.5t56 -40t77.5 -15.5q40 0 72.5 15t55.5 40.5t36 59t13 71.5v454l62 16v-488q0 -47 -14.5 -89t-44.5 -73.5t-75.5 -49.5t-108.5 -18q-54 0 -98 16.5t-75 46.5t-47.5 72t-16.5 94v473l62 16v-487z" />
    <glyph glyph-name="V" unicode="V" horiz-adv-x="611" 
d="M47 702l254 -564l268 564l65 -16l-332 -702h-2l-318 702z" />
    <glyph glyph-name="W" unicode="W" horiz-adv-x="833" 
d="M47 702l231 -558l99 242l-125 300l64 16l98 -232l100 232l58 -16l-121 -300l103 -242l228 558l70 -16l-300 -702h-2l-136 324l-135 -323l-2 -1l-297 702z" />
    <glyph glyph-name="X" unicode="X" horiz-adv-x="556" 
d="M74 694l208 -277l190 277l56 -28l-208 -302l260 -340l-61 -32l-237 318l-229 -318l-64 27l253 351l-220 296z" />
    <glyph glyph-name="Y" unicode="Y" 
d="M39 702l228 -377l197 377l68 -16l-369 -694l-71 16l139 251l-256 427z" />
    <glyph glyph-name="Z" unicode="Z" horiz-adv-x="556" 
d="M527 686l-399 -624h414l-13 -62h-516l400 624h-381l14 62h481z" />
    <glyph glyph-name="bracketleft" unicode="[" horiz-adv-x="278" 
d="M199 686v-48h-111v-730h111v-48h-164v826h164z" />
    <glyph glyph-name="backslash" unicode="\" horiz-adv-x="278" 
d="M0 702h50l229 -718h-50z" />
    <glyph glyph-name="bracketright" unicode="]" horiz-adv-x="278" 
d="M243 686v-826h-164v48h111v730h-111v48h164z" />
    <glyph glyph-name="asciicircum" unicode="^" horiz-adv-x="600" 
d="M271 686h58l224 -443h-63l-191 376l-188 -376h-64z" />
    <glyph glyph-name="underscore" unicode="_" 
d="M500 -75v-50h-500v50h500z" />
    <glyph glyph-name="grave" unicode="`" horiz-adv-x="222" 
d="M63 705l111 -139h-52l-136 139h77z" />
    <glyph glyph-name="a" unicode="a" horiz-adv-x="444" 
d="M390 0l-58 -12v63h-2q-16 -28 -47 -45.5t-76 -17.5q-41 0 -76 13t-60.5 36t-40 55t-14.5 71q0 42 13.5 77t37.5 60t58 39t75 14q38 0 72.5 -18t59.5 -40v85q0 14 -8.5 28t-24 24.5t-37 17t-47.5 6.5q-36 0 -75 -14.5t-72 -25.5l19 68q35 14 70.5 22t75.5 8
q33 0 61.5 -8.5t49.5 -25t33.5 -39.5t12.5 -52v-389zM211 46q54 0 87.5 35t33.5 89q0 57 -34.5 91t-89.5 34q-28 0 -52.5 -9t-42.5 -26.5t-28.5 -42t-10.5 -54.5q0 -27 11.5 -48.5t30.5 -36.5t43.5 -23.5t51.5 -8.5z" />
    <glyph glyph-name="b" unicode="b" horiz-adv-x="611" 
d="M112 407q45 51 98 79t119 28q55 0 101.5 -19t80 -53.5t52 -81.5t18.5 -103q0 -54 -20 -103t-55 -86t-83 -58.5t-104 -21.5q-64 0 -113.5 20.5t-83 56.5t-51 86t-17.5 109v452l58 12v-317zM321 46q45 0 82 16.5t64 44.5t41.5 65.5t14.5 80.5q0 42 -15 79t-42 64.5
t-65 43.5t-84 16q-44 0 -81.5 -16t-65 -44t-43 -66.5t-15.5 -83.5q0 -43 16.5 -79.5t44.5 -63.5t66 -42t82 -15z" />
    <glyph glyph-name="c" unicode="c" 
d="M431 408q-23 20 -57 34t-82 14q-45 0 -83.5 -15.5t-66 -43.5t-43.5 -65.5t-16 -82.5q0 -39 14 -75.5t40 -65t63 -45.5t83 -17q41 0 78.5 14t66.5 37l36 -45q-32 -30 -81.5 -47t-98.5 -17q-56 0 -103 20t-82 56t-54.5 85t-19.5 107q0 55 21.5 102.5t58 82t85.5 54
t105 19.5q46 0 90 -16.5t82 -42.5z" />
    <glyph glyph-name="d" unicode="d" horiz-adv-x="611" 
d="M552 0l-58 -12v96h-2q-15 -20 -36.5 -37.5t-47.5 -30.5t-55 -20.5t-58 -7.5q-56 0 -104 20t-83 55t-55 84t-20 106q0 55 20.5 102.5t55.5 83t82.5 55.5t101.5 20q63 0 112.5 -28.5t86.5 -70.5h2v297l58 12v-724zM292 46q42 0 78.5 16.5t64 44.5t43.5 65t16 78
q0 47 -16 85t-43.5 65t-65 41.5t-80.5 14.5t-79 -17t-62.5 -45.5t-41.5 -65t-15 -75.5q0 -45 15 -83t41.5 -65.5t63.5 -43t81 -15.5z" />
    <glyph glyph-name="e" unicode="e" 
d="M101 163q11 -24 29.5 -45.5t42 -37.5t50.5 -25t56 -9q55 0 101.5 24.5t88.5 58.5v-70q-16 -16 -38 -29t-47 -22.5t-51 -14.5t-50 -5q-59 0 -106.5 21t-82 57t-53 85t-18.5 106t20 104.5t55 81t83 52.5t104 19q30 0 60 -8.5t56 -24t47 -37t35 -47.5zM392 412
q-17 19 -44 31.5t-64 12.5q-42 0 -79 -15t-64.5 -41.5t-43.5 -63.5t-16 -80q0 -7 1 -19t3 -22z" />
    <glyph glyph-name="f" unicode="f" horiz-adv-x="278" 
d="M299 666q-16 0 -28.5 -0.5t-23.5 -1.5q-30 -3 -49 -9t-30 -19t-15 -34.5t-4 -54.5v-45h143v-58h-143v-444l-58 -12v456h-68l14 58h54v46q0 42 8.5 74.5t30 55t59 34.5t95.5 12z" />
    <glyph glyph-name="g" unicode="g" 
d="M445 472q-12 -4 -21.5 -5.5t-22.5 -1.5q-14 0 -27 3l-2 -2q32 -27 54 -60t22 -78q0 -52 -30.5 -93.5t-78.5 -60.5q52 -24 83.5 -65.5t31.5 -101.5q0 -42 -18 -77t-49.5 -60.5t-73 -39.5t-89.5 -14q-61 0 -117.5 30t-104.5 92l44 33q35 -41 79 -69t104 -28q31 0 61.5 9.5
t53.5 26.5t37.5 40t14.5 51q0 31 -13.5 57t-36 45.5t-52 30.5t-60.5 11q-36 0 -67 -8t-64 -21l21 66q-21 10 -39 26t-31 35t-20 40t-7 41q0 42 15.5 77t43.5 60t66.5 39t84.5 14q15 0 30 -1t30 -1q42 0 82 5.5t83 13.5zM235 199q31 0 59 9t49.5 26t34 41t12.5 53t-12.5 53
t-33.5 41.5t-49 27.5t-59 10q-29 0 -56 -9.5t-48 -26.5t-34 -42t-13 -55q0 -29 12 -52.5t32.5 -40t47.5 -26t58 -9.5z" />
    <glyph glyph-name="h" unicode="h" 
d="M112 441h2q20 35 60 54t86 19q94 0 140 -45.5t46 -128.5v-340l-58 -8v360q0 51 -32 80.5t-93 29.5q-25 0 -51.5 -8.5t-48.5 -26t-36.5 -42.5t-14.5 -58v-327l-58 -8v720l58 12v-283z" />
    <glyph glyph-name="i" unicode="i" horiz-adv-x="222" 
d="M106 724l46 -52l-46 -52l-46 52zM140 0l-58 -12v514l58 12v-514z" />
    <glyph glyph-name="j" unicode="j" horiz-adv-x="222" 
d="M106 724l46 -52l-46 -52l-46 52zM140 -7q0 -177 -192 -177l-21 62q9 -2 18.5 -3t19.5 -1q68 0 92.5 39t24.5 125v464l58 12v-521z" />
    <glyph glyph-name="k" unicode="k" horiz-adv-x="389" 
d="M110 258l226 262l46 -28l-203 -236l227 -230l-37 -34l-259 252v-244l-58 -12v724l58 12v-466z" />
    <glyph glyph-name="l" unicode="l" horiz-adv-x="222" 
d="M140 0l-58 -12v724l58 12v-724z" />
    <glyph glyph-name="m" unicode="m" horiz-adv-x="778" 
d="M121 428h2q9 18 23.5 33.5t33 27.5t38.5 18.5t40 6.5q27 0 47.5 -4.5t38 -14t32 -25.5t28.5 -39q26 38 63.5 60.5t79.5 22.5q81 0 124.5 -39.5t43.5 -105.5v-369l-58 -8v364q0 44 -28.5 75t-77.5 31q-35 0 -60 -11.5t-41 -31t-24 -46.5t-8 -58v-315l-58 -8v364
q0 22 -7.5 41.5t-21.5 33.5t-33.5 22.5t-43.5 8.5q-69 0 -101 -42.5t-32 -105.5v-314l-58 -8v510l58 12v-86z" />
    <glyph glyph-name="n" unicode="n" 
d="M112 431h2q20 34 59.5 58.5t88.5 24.5q94 0 139 -46t45 -127v-341l-58 -8v361q0 50 -32 79.5t-93 29.5q-30 0 -57 -10t-48 -28t-33.5 -42.5t-12.5 -52.5v-329l-58 -8v510l58 12v-83z" />
    <glyph glyph-name="o" unicode="o" horiz-adv-x="556" 
d="M535 251q0 -50 -19 -97.5t-53.5 -84t-81.5 -59t-102 -22.5q-54 0 -101 21t-82 57t-55 84t-20 101q0 52 19.5 99.5t54 84t81.5 58t102 21.5q53 0 100 -21t82 -57t55 -84t20 -101zM278 46q41 0 77 16.5t63 44.5t43 65t16 79q0 40 -15 77t-42 65.5t-63.5 45.5t-79.5 17
q-41 0 -77 -16.5t-63 -44.5t-42.5 -65.5t-15.5 -78.5t15 -78t41.5 -65t63 -45t79.5 -17z" />
    <glyph glyph-name="p" unicode="p" horiz-adv-x="611" 
d="M117 398h2q29 53 81.5 84.5t115.5 31.5q54 0 101.5 -21t83 -57t56.5 -84.5t21 -102.5q0 -53 -19.5 -100t-54 -83t-82 -57t-104.5 -21q-60 0 -111.5 23.5t-86.5 68.5h-3v-252l-58 -12v686l58 12v-116zM321 46q41 0 77.5 16.5t63.5 44t42.5 64.5t15.5 78q0 42 -14 80
t-40 66t-63.5 44.5t-84.5 16.5q-41 0 -77.5 -16.5t-64 -44t-43.5 -64.5t-16 -79q0 -44 14.5 -81.5t41 -65t64 -43.5t84.5 -16z" />
    <glyph glyph-name="q" unicode="q" horiz-adv-x="611" 
d="M494 405v97l58 12v-686l-58 -12v269h-2q-38 -42 -87.5 -69.5t-111.5 -27.5q-54 0 -101.5 20t-83 55.5t-55.5 83t-20 102.5q0 51 19.5 99t54.5 85t83 59t105 22q31 0 60 -8t54.5 -22.5t46.5 -34.5t36 -44h2zM290 46q45 0 82.5 15t64.5 42.5t42 65.5t15 83q0 38 -15 75
t-41.5 65.5t-64 46t-82.5 17.5q-44 0 -81 -16t-63.5 -43.5t-41 -65.5t-14.5 -82q0 -40 15 -77t42 -65t63.5 -44.5t78.5 -16.5z" />
    <glyph glyph-name="r" unicode="r" horiz-adv-x="278" 
d="M111 402h2q26 64 71 88t115 24l-25 -59l-19 1q-30 0 -56 -16t-45.5 -43.5t-31 -63.5t-11.5 -75v-258l-58 -12v514l58 12v-112z" />
    <glyph glyph-name="s" unicode="s" horiz-adv-x="389" 
d="M313 409q-26 20 -55.5 33.5t-64.5 13.5q-45 0 -75 -21.5t-30 -61.5q0 -22 9 -36.5t24.5 -24t36 -16t43.5 -12.5q38 -10 72.5 -23t54.5 -39q12 -15 18.5 -34.5t6.5 -48.5q-1 -72 -50 -111.5t-129 -39.5q-46 0 -87 20.5t-70 55.5l44 37q29 -27 57 -41t69 -14q47 0 77.5 24
t30.5 72q0 22 -12.5 37t-32 25t-44 17t-48.5 15q-25 7 -48 17t-41 25t-28.5 37t-10.5 54q0 33 13.5 60t36.5 46t53 29t63 10q46 0 80 -16.5t70 -42.5z" />
    <glyph glyph-name="t" unicode="t" horiz-adv-x="278" 
d="M130 502h136v-58h-136v-307q0 -30 7 -47t20 -26t32 -11.5t42 -2.5q8 0 16.5 0.5t19.5 1.5v-54q-12 -2 -23 -3.5t-22 -1.5q-77 -2 -113.5 38t-36.5 101v312h-67l14 58h53v123l58 32v-155z" />
    <glyph glyph-name="u" unicode="u" 
d="M112 177q0 -61 27.5 -99t94.5 -38q48 0 77.5 14t46.5 46q17 31 23.5 74t6.5 97v231l58 12v-514l-58 -8v83h-2q-8 -17 -22 -32.5t-34.5 -27.5t-45.5 -19.5t-55 -7.5q-48 0 -81.5 13.5t-54 37.5t-30 57.5t-9.5 73.5v332l58 12v-337z" />
    <glyph glyph-name="v" unicode="v" horiz-adv-x="444" 
d="M35 514l187 -386l181 386l62 -12l-242 -514h-2l-242 514z" />
    <glyph glyph-name="w" unicode="w" horiz-adv-x="778" 
d="M37 514l167 -383l181 383l187 -383l170 383l56 -12l-225 -514h-2l-188 397l-178 -397h-2l-223 514z" />
    <glyph glyph-name="x" unicode="x" horiz-adv-x="444" 
d="M54 514l166 -211l161 211l52 -24l-176 -230l186 -244l-52 -24l-171 219l-162 -219l-55 24l178 244l-179 230z" />
    <glyph glyph-name="y" unicode="y" horiz-adv-x="444" 
d="M33 514l201 -366l176 366l58 -12l-335 -686l-56 12l124 259l-225 415z" />
    <glyph glyph-name="z" unicode="z" 
d="M479 502l-359 -444h357l-15 -58h-456l357 444h-313l13 58h416z" />
    <glyph glyph-name="braceleft" unicode="{" horiz-adv-x="333" 
d="M268 702v-48h-41q-18 0 -29 -22.5t-11 -60.5v-147q0 -33 -6.5 -58t-16 -42.5t-21.5 -28.5t-24 -17v-1q35 -20 51.5 -58.5t16.5 -79.5v-156q0 -35 10.5 -58.5t27.5 -23.5h43v-48h-49q-42 0 -63.5 32t-21.5 79v150q0 72 -18 107t-50 35v42q33 0 50.5 37t17.5 94v156
q0 22 4.5 43.5t14.5 37.5t27 26t41 10h47z" />
    <glyph glyph-name="bar" unicode="|" horiz-adv-x="222" 
d="M82 750h58v-1000h-58v1000z" />
    <glyph glyph-name="braceright" unicode="}" horiz-adv-x="333" 
d="M65 -147v48h41q20 0 30 24t10 60v153q0 50 19.5 87.5t48.5 51.5v1q-35 20 -51.5 58.5t-16.5 79.5v156q0 35 -10.5 58.5t-27.5 23.5h-43v48h49q42 0 63.5 -32t21.5 -79v-150q0 -72 18 -107t50 -35v-42q-33 0 -50.5 -37t-17.5 -94v-156q0 -23 -4.5 -44t-15 -37t-26.5 -26
t-40 -10h-48z" />
    <glyph glyph-name="asciitilde" unicode="~" horiz-adv-x="600" 
d="M531 275q-33 -48 -61.5 -67t-63.5 -19q-23 0 -48.5 8.5t-55.5 25.5q-62 34 -112 34q-54 0 -85 -72l-36 42q45 86 125 86q23 0 51.5 -8.5t63.5 -25.5q73 -34 98 -34q9 0 18.5 2.5t20 10t22.5 22t27 37.5z" />
    <glyph glyph-name="uni00A0" unicode="&#xa0;" horiz-adv-x="250" 
 />
    <glyph glyph-name="exclamdown" unicode="&#xa1;" horiz-adv-x="222" 
d="M117 544l52 -59l-52 -59l-52 59zM141 -173l-67 -11l10 547l57 6v-542z" />
    <glyph glyph-name="cent" unicode="&#xa2;" 
d="M257 546q27 -5 52.5 -14.5t46.5 -26.5l-28 -37q-14 13 -33 20t-38 10v-266q20 0 38.5 7.5t36.5 19.5l27 -38q-20 -15 -47 -26t-55 -11v-162l-43 -10v172q-35 6 -63.5 20.5t-49.5 37t-32.5 52.5t-11.5 66q0 79 40.5 124t116.5 62v118l43 10v-128zM213 498
q-23 -2 -41.5 -15t-32 -32.5t-21 -42.5t-7.5 -45q0 -21 7.5 -44t21 -42t32.5 -31.5t41 -13.5v266z" />
    <glyph glyph-name="sterling" unicode="&#xa3;" 
d="M372 516q-5 65 -33 99.5t-76 34.5q-49 0 -76 -46.5t-27 -131.5v-88h126v-62h-126v-260h115q45 0 72.5 10.5t43 30.5t22.5 50.5t10 71.5l58 -17q0 -52 -13.5 -91t-38.5 -65t-59 -39t-74 -13h-286v62h86v260h-86l21 62h65v78q0 117 43 178.5t124 61.5q64 0 106.5 -46
t54.5 -131z" />
    <glyph glyph-name="currency" unicode="&#xa4;" 
d="M458 600l42 -42l-55 -54q28 -32 40.5 -71.5t12.5 -81.5t-12.5 -81t-39.5 -73l53 -56l-40 -40l-54 58q-32 -29 -70.5 -43t-80.5 -14t-83.5 13t-75.5 44l-54 -58l-40 40l54 57q-53 67 -53 151q0 42 12.5 81.5t42.5 71.5l-56 57l40 40l57 -55q32 27 71.5 40.5t81.5 13.5
t81 -13.5t70 -40.5zM249 160q42 0 77 16t60.5 42t39.5 60.5t14 72.5q0 37 -14.5 71t-40 60t-59.5 42t-74 16q-38 0 -72.5 -14t-61 -39.5t-42.5 -60.5t-16 -77q0 -40 15.5 -74.5t42 -60t60.5 -40t71 -14.5z" />
    <glyph glyph-name="yen" unicode="&#xa5;" 
d="M53 702l197 -377l197 377l68 -16l-167 -308h93v-58h-123l-36 -60v-22h139v-58h-139v-180l-64 -8v188h-139v58h139v22l-38 60h-121v58h91l-165 308z" />
    <glyph glyph-name="brokenbar" unicode="&#xa6;" horiz-adv-x="222" 
d="M82 675h58v-350h-58v350zM82 175h58v-350h-58v350z" />
    <glyph glyph-name="section" unicode="&#xa7;" 
d="M367 563q-16 37 -45.5 64t-71.5 27q-33 0 -57.5 -24t-24.5 -57q0 -20 12 -40t31.5 -41.5t45.5 -44t55 -46.5q67 -56 101.5 -102.5t34.5 -91.5q0 -54 -33.5 -86.5t-88.5 -34.5q35 -35 52.5 -69t17.5 -63q0 -70 -42.5 -104t-109.5 -34q-55 0 -95 28t-64 76l50 29
q32 -85 120 -85q38 0 60.5 23t22.5 61q0 35 -40.5 80.5t-104.5 104.5q-71 66 -106 114.5t-35 88.5q0 54 32 84t83 37q-24 20 -40.5 48t-16.5 60q0 63 38.5 100t101.5 37q60 0 101.5 -31t65.5 -84zM327 128q25 0 44 19t19 44q0 20 -19.5 55.5t-64.5 80.5q-88 88 -139 88
q-10 0 -20 -4.5t-18.5 -12t-13.5 -17t-5 -20.5q0 -31 22 -70t55 -76q37 -41 75.5 -64t64.5 -23z" />
    <glyph glyph-name="dieresis" unicode="&#xa8;" horiz-adv-x="222" 
d="M23 678l45 -53l-45 -52l-43 52zM197 678l45 -53l-45 -52l-43 52z" />
    <glyph glyph-name="copyright" unicode="&#xa9;" horiz-adv-x="800" 
d="M761 346q0 -75 -28 -140.5t-76.5 -115t-114.5 -78t-141 -28.5q-72 0 -138 27.5t-115.5 75.5t-79 114t-29.5 143q0 72 28 137t76.5 114t114.5 78t143 29q73 0 138.5 -28t115 -76.5t78 -113.5t28.5 -138zM401 36q63 0 118.5 23t96 64t64 97.5t23.5 123.5q0 61 -21.5 116.5
t-61.5 97.5t-95.5 67t-124.5 25q-63 0 -118 -23t-96 -63.5t-65 -96.5t-24 -123q0 -63 22 -119t62 -98t96 -66.5t124 -24.5zM535 418q-9 42 -42 70t-83 28q-36 0 -64.5 -13t-49 -36t-31 -54t-10.5 -68q0 -33 10.5 -64.5t31 -56t49.5 -39.5t66 -15q51 0 83 29.5t40 72.5h56
q-15 -70 -63 -112t-116 -42q-47 0 -86.5 16.5t-68 46.5t-44.5 71.5t-16 91.5q0 46 14 87t41 71.5t66.5 48t90.5 17.5q34 0 65.5 -9.5t55.5 -28.5t40 -47t21 -65h-56z" />
    <glyph glyph-name="ordfeminine" unicode="&#xaa;" horiz-adv-x="266" 
d="M244 394l-48 -6v37h-2q-9 -17 -24.5 -27t-44.5 -10q-53 0 -89 28t-36 76q0 51 33 82.5t87 31.5q25 0 45.5 -10.5t28.5 -24.5h2v50q0 10 -17 21.5t-50 11.5q-23 0 -48 -6.5t-47 -16.5l13 53q43 18 93 18q48 0 76 -21t28 -53v-234zM127 436q69 0 69 60q0 62 -71 62
q-32 0 -49.5 -16t-17.5 -50q0 -31 20.5 -43.5t48.5 -12.5z" />
    <glyph glyph-name="guillemotleft" unicode="&#xab;" horiz-adv-x="444" 
d="M214 390l34 -32l-110 -107l110 -107l-34 -32l-140 139zM358 390l34 -32l-110 -107l110 -107l-34 -32l-140 139z" />
    <glyph glyph-name="logicalnot" unicode="&#xac;" horiz-adv-x="600" 
d="M551 379v-280h-58v222h-444v58h502z" />
    <glyph glyph-name="uni00AD" unicode="&#xad;" horiz-adv-x="333" 
d="M294 278v-54h-255v54h255z" />
    <glyph glyph-name="registered" unicode="&#xae;" horiz-adv-x="800" 
d="M761 344q0 -72 -27.5 -137.5t-76 -115t-114.5 -78.5t-142 -29q-74 0 -139.5 28t-115 76.5t-78.5 114t-29 141.5q0 74 28.5 139t78 114t115 77t140.5 28q73 0 138.5 -27.5t114.5 -76t78 -114t29 -140.5zM401 36q64 0 119 23t95.5 64t64 97.5t23.5 123.5q0 61 -21.5 116.5
t-61.5 97.5t-95.5 67t-124.5 25q-61 0 -116 -22t-96.5 -62.5t-66 -97t-24.5 -124.5q0 -65 22.5 -121t63 -97.5t96.5 -65.5t122 -24zM429 556q66 0 102.5 -28.5t36.5 -91.5q0 -48 -26 -78t-81 -40l123 -186h-64l-117 185h-84v-185h-54v424h164zM420 365q50 0 72 17.5t22 55.5
q0 37 -26 53.5t-70 16.5h-99v-143h101z" />
    <glyph glyph-name="macron" unicode="&#xaf;" horiz-adv-x="222" 
d="M258 649v-48h-294v48h294z" />
    <glyph glyph-name="degree" unicode="&#xb0;" horiz-adv-x="400" 
d="M344 559q0 -29 -11 -55t-30.5 -45.5t-45.5 -31t-57 -11.5q-29 0 -55.5 11t-46 30t-31 45t-11.5 57q0 29 11 55t30.5 45.5t45.5 31t57 11.5q29 0 55 -10.5t46 -29.5t31.5 -45.5t11.5 -57.5zM200 464q45 0 70.5 27.5t25.5 67.5t-25.5 67.5t-71.5 27.5q-44 0 -69.5 -27.5
t-25.5 -67.5t25.5 -67.5t70.5 -27.5z" />
    <glyph glyph-name="plusminus" unicode="&#xb1;" horiz-adv-x="600" 
d="M271 502h58v-172h222v-58h-222v-175h-58v175h-222v58h222v172zM551 58v-58h-502v58h502z" />
    <glyph glyph-name="twosuperior" unicode="&#xb2;" horiz-adv-x="300" 
d="M305 572q0 -68 -84 -146l-110 -103h191l-6 -42h-277l173 168q24 24 44.5 55t20.5 69q0 42 -25.5 64.5t-70.5 22.5q-42 0 -67.5 -22t-25.5 -62q0 -42 23.5 -68t67.5 -33l-26 -29q-50 8 -81.5 43.5t-31.5 82.5q0 28 10.5 51.5t29.5 41t44.5 27.5t55.5 10q29 0 55 -9t46 -26
t32 -41t12 -54z" />
    <glyph glyph-name="threesuperior" unicode="&#xb3;" horiz-adv-x="300" 
d="M281 595q0 -33 -19.5 -56.5t-51.5 -37.5q38 -14 60.5 -42t22.5 -66q0 -29 -11.5 -51.5t-31.5 -38t-46.5 -24t-55.5 -8.5q-43 0 -78.5 22t-54.5 57l34 20q15 -29 40.5 -43t58.5 -14q45 0 71 19.5t26 62.5q0 45 -29 64.5t-100 19.5h-6v35h11q54 0 83 19t29 57
q0 36 -21.5 53t-58.5 17q-32 0 -55 -9.5t-45 -31.5l-26 24q36 35 64 47t64 12q26 0 49 -7.5t40 -21.5t27 -34t10 -44z" />
    <glyph glyph-name="acute" unicode="&#xb4;" horiz-adv-x="222" 
d="M236 705l-136 -139h-52l111 139h77z" />
    <glyph glyph-name="mu" unicode="&#xb5;" 
d="M112 168q0 -26 6.5 -49.5t20.5 -41t37.5 -27.5t57.5 -10q49 0 78 14.5t45 43.5q17 30 24 72t7 99v233l58 12v-514l-58 -8v83h-2q-15 -34 -57 -60.5t-100 -26.5q-42 0 -69.5 9t-47.5 26v-195l-58 -12v686l58 12v-346z" />
    <glyph glyph-name="paragraph" unicode="&#xb6;" horiz-adv-x="600" 
d="M505 686v-869h-58v821h-123v-821h-58v496q-41 0 -77.5 13.5t-65 37.5t-45 58t-16.5 75q0 49 16 84.5t45 58.5t69 34.5t88 11.5h225z" />
    <glyph glyph-name="periodcentered" unicode="&#xb7;" horiz-adv-x="250" 
d="M175 251q0 -21 -15.5 -35.5t-35.5 -14.5q-21 0 -35 15t-14 35t14.5 35t34.5 15t35.5 -15t15.5 -35z" />
    <glyph glyph-name="cedilla" unicode="&#xb8;" horiz-adv-x="222" 
d="M113 0h38l-46 -57l2 -2q10 4 19.5 5t17.5 1q33 0 54.5 -19t21.5 -58q0 -18 -9 -33t-24 -25t-34.5 -15.5t-39.5 -5.5q-24 0 -48 5t-47 16l14 30q39 -15 65 -15q29 0 47 10.5t18 28.5q0 20 -13.5 32.5t-35.5 12.5q-14 0 -23 -1t-22 -5l-15 13z" />
    <glyph glyph-name="onesuperior" unicode="&#xb9;" horiz-adv-x="300" 
d="M213 281l-48 -5v363l-116 -61l-13 26l177 98v-421z" />
    <glyph glyph-name="ordmasculine" unicode="&#xba;" horiz-adv-x="334" 
d="M331 546q0 -31 -11 -59.5t-32 -50.5t-51 -35t-69 -13q-35 0 -65 11.5t-52.5 32t-35 49.5t-12.5 64q0 34 12.5 63t35 50t52 32.5t64.5 11.5q33 0 63 -11t52.5 -31.5t35.5 -49.5t13 -64zM170 436q25 0 45.5 9.5t35.5 24.5t23.5 34.5t8.5 40.5q0 22 -8.5 41.5t-24 34.5
t-37 24t-46.5 9q-24 0 -45 -8.5t-36.5 -23t-25 -34.5t-9.5 -43t9.5 -43t25.5 -34.5t37.5 -23t46.5 -8.5z" />
    <glyph glyph-name="guillemotright" unicode="&#xbb;" horiz-adv-x="444" 
d="M86 390l140 -139l-140 -139l-34 32l110 107l-110 107zM230 390l140 -139l-140 -139l-34 32l110 107l-110 107z" />
    <glyph glyph-name="onequarter" unicode="&#xbc;" horiz-adv-x="750" 
d="M658 433v-280h75l-6 -42h-69v-111l-48 -5v116h-188zM487 153h123v162h-2zM213 281l-48 -5v363l-116 -61l-13 26l177 98v-421zM599 702h55l-445 -718h-56z" />
    <glyph glyph-name="onehalf" unicode="&#xbd;" horiz-adv-x="750" 
d="M213 281l-48 -5v363l-116 -61l-13 26l177 98v-421zM562 702h55l-445 -718h-56zM727 292q0 -68 -84 -146l-110 -103h191l-6 -42h-277l173 168q24 24 44.5 55t20.5 69q0 42 -25.5 64.5t-70.5 22.5q-42 0 -67.5 -22t-25.5 -62q0 -42 23.5 -68t67.5 -33l-26 -29
q-50 8 -81.5 43.5t-31.5 82.5q0 28 10.5 51.5t29.5 41t44.5 27.5t55.5 10q29 0 55 -9t46 -26t32 -41t12 -54z" />
    <glyph glyph-name="threequarters" unicode="&#xbe;" horiz-adv-x="750" 
d="M658 433v-280h75l-6 -42h-69v-111l-48 -5v116h-188zM487 153h123v162h-2zM281 595q0 -33 -19.5 -56.5t-51.5 -37.5q38 -14 60.5 -42t22.5 -66q0 -29 -11.5 -51.5t-31.5 -38t-46.5 -24t-55.5 -8.5q-43 0 -78.5 22t-54.5 57l34 20q15 -29 40.5 -43t58.5 -14q45 0 71 19.5
t26 62.5q0 45 -29 64.5t-100 19.5h-6v35h11q54 0 83 19t29 57q0 36 -21.5 53t-58.5 17q-32 0 -55 -9.5t-45 -31.5l-26 24q36 35 64 47t64 12q26 0 49 -7.5t40 -21.5t27 -34t10 -44zM599 702h55l-445 -718h-56z" />
    <glyph glyph-name="questiondown" unicode="&#xbf;" horiz-adv-x="444" 
d="M204 544l52 -59l-52 -59l-52 59zM234 229q0 -32 -19 -53.5t-55 -44.5q-39 -26 -57 -56t-18 -75q0 -26 10 -48.5t27 -40t40.5 -27.5t50.5 -10q53 0 88 24t65 87l50 -27q-29 -64 -75 -103t-119 -39q-39 0 -74 13.5t-62 39t-43 60.5t-16 79q0 48 18.5 82.5t56.5 63.5
q20 15 35.5 28.5t26.5 27t16.5 28.5t5.5 34v70l48 12v-125z" />
    <glyph glyph-name="Agrave" unicode="&#xc0;" horiz-adv-x="667" 
d="M335 702l349 -702l-60 -14l-141 284h-294l-139 -286l-66 16l349 702h2zM219 332h229l-114 229zM286 865l111 -139h-52l-136 139h77z" />
    <glyph glyph-name="Aacute" unicode="&#xc1;" horiz-adv-x="667" 
d="M335 702l349 -702l-60 -14l-141 284h-294l-139 -286l-66 16l349 702h2zM219 332h229l-114 229zM459 865l-136 -139h-52l111 139h77z" />
    <glyph glyph-name="Acircumflex" unicode="&#xc2;" horiz-adv-x="667" 
d="M335 702l349 -702l-60 -14l-141 284h-294l-139 -286l-66 16l349 702h2zM219 332h229l-114 229zM368 865l113 -139h-65l-82 102l-82 -102h-64l113 139h67z" />
    <glyph glyph-name="Atilde" unicode="&#xc3;" horiz-adv-x="667" 
d="M335 702l349 -702l-60 -14l-141 284h-294l-139 -286l-66 16l349 702h2zM219 332h229l-114 229zM492 839q-17 -97 -88 -97q-15 0 -31.5 6t-39.5 17q-20 9 -37 15.5t-32 6.5q-17 0 -29.5 -11t-18.5 -38h-37q1 19 8.5 36.5t19.5 31t27 21.5t33 8q28 0 72 -22q19 -9 37 -16
t33 -7q17 0 28 10.5t16 38.5h39z" />
    <glyph glyph-name="Adieresis" unicode="&#xc4;" horiz-adv-x="667" 
d="M335 702l349 -702l-60 -14l-141 284h-294l-139 -286l-66 16l349 702h2zM219 332h229l-114 229zM246 838l45 -53l-45 -52l-43 52zM420 838l45 -53l-45 -52l-43 52z" />
    <glyph glyph-name="Aring" unicode="&#xc5;" horiz-adv-x="667" 
d="M335 702l349 -702l-60 -14l-141 284h-294l-139 -286l-66 16l349 702h2zM219 332h229l-114 229zM434 824q0 -21 -8 -39t-21.5 -31.5t-31.5 -21t-39 -7.5t-39 7.5t-31.5 21t-21.5 31.5t-8 39t7.5 39t21 31.5t32 21.5t39.5 8q42 0 71 -29t29 -71zM334 759q27 0 46.5 18.5
t19.5 46.5q0 27 -19.5 46.5t-47.5 19.5q-27 0 -46 -19.5t-19 -46.5q0 -28 19 -46.5t47 -18.5z" />
    <glyph glyph-name="AE" unicode="&#xc6;" horiz-adv-x="944" 
d="M890 686l12 -62h-308v-245h262v-62h-262v-255h332l-13 -62h-381v317h-224l-231 -325l-64 20l477 674h400zM349 379h183v245h-7z" />
    <glyph glyph-name="Ccedilla" unicode="&#xc7;" horiz-adv-x="556" 
d="M514 594q-21 16 -58.5 31t-83.5 15q-59 0 -110 -23t-88.5 -63t-58.5 -94t-21 -115q0 -66 22 -120.5t60 -94.5t88 -62t106 -22q42 0 79.5 12.5t64.5 33.5l-9 -76q-29 -14 -63 -23t-66 -9h-5l-33 -41l2 -2q10 4 19.5 5t17.5 1q33 0 54.5 -19t21.5 -58q0 -18 -9 -33t-24 -25
t-34.5 -15.5t-39.5 -5.5q-24 0 -48 5t-47 16l14 30q39 -15 65 -15q29 0 47 10.5t18 28.5q0 20 -13.5 32.5t-35.5 12.5q-14 0 -23 -1t-22 -5l-15 13l50 68q-64 7 -120.5 37.5t-98.5 78t-66.5 109.5t-24.5 132q0 75 28 140.5t76 114t111 76.5t132 28q33 0 68 -9t64 -23z" />
    <glyph glyph-name="Egrave" unicode="&#xc8;" 
d="M445 686l12 -62h-321v-245h275v-62h-275v-255h338l-11 -62h-389v686h371zM221 865l111 -139h-52l-136 139h77z" />
    <glyph glyph-name="Eacute" unicode="&#xc9;" 
d="M445 686l12 -62h-321v-245h275v-62h-275v-255h338l-11 -62h-389v686h371zM394 865l-136 -139h-52l111 139h77z" />
    <glyph glyph-name="Ecircumflex" unicode="&#xca;" 
d="M445 686l12 -62h-321v-245h275v-62h-275v-255h338l-11 -62h-389v686h371zM303 865l113 -139h-65l-82 102l-82 -102h-64l113 139h67z" />
    <glyph glyph-name="Edieresis" unicode="&#xcb;" 
d="M445 686l12 -62h-321v-245h275v-62h-275v-255h338l-11 -62h-389v686h371zM181 838l45 -53l-45 -52l-43 52zM355 838l45 -53l-45 -52l-43 52z" />
    <glyph glyph-name="Igrave" unicode="&#xcc;" horiz-adv-x="222" 
d="M142 0l-62 -8v694l62 16v-702zM63 865l111 -139h-52l-136 139h77z" />
    <glyph glyph-name="Iacute" unicode="&#xcd;" horiz-adv-x="222" 
d="M142 0l-62 -8v694l62 16v-702zM236 865l-136 -139h-52l111 139h77z" />
    <glyph glyph-name="Icircumflex" unicode="&#xce;" horiz-adv-x="222" 
d="M142 0l-62 -8v694l62 16v-702zM145 865l113 -139h-65l-82 102l-82 -102h-64l113 139h67z" />
    <glyph glyph-name="Idieresis" unicode="&#xcf;" horiz-adv-x="222" 
d="M142 0l-62 -8v694l62 16v-702zM23 838l45 -53l-45 -52l-43 52zM197 838l45 -53l-45 -52l-43 52z" />
    <glyph glyph-name="Eth" unicode="&#xd0;" horiz-adv-x="611" 
d="M246 686q69 0 129.5 -25.5t106 -71t71.5 -107.5t26 -135q0 -71 -25 -134.5t-69 -110.5t-105.5 -74.5t-134.5 -27.5h-177v317h-65v62h65v307h178zM296 379v-62h-166v-255h103q58 0 109 21t88.5 59t59 90.5t21.5 115.5q0 60 -18.5 110.5t-53 87.5t-83 57.5t-108.5 20.5
h-118v-245h166z" />
    <glyph glyph-name="Ntilde" unicode="&#xd1;" horiz-adv-x="667" 
d="M71 702h2l459 -551h2v535l62 12v-714h-2l-459 554h-2v-538l-62 -8v710zM492 839q-17 -97 -88 -97q-15 0 -31.5 6t-39.5 17q-20 9 -37 15.5t-32 6.5q-17 0 -29.5 -11t-18.5 -38h-37q1 19 8.5 36.5t19.5 31t27 21.5t33 8q28 0 72 -22q19 -9 37 -16t33 -7q17 0 28 10.5
t16 38.5h39z" />
    <glyph glyph-name="Ograve" unicode="&#xd2;" horiz-adv-x="778" 
d="M752 343q0 -74 -28.5 -139t-78 -114t-115.5 -77.5t-141 -28.5q-74 0 -140 28.5t-115.5 77t-78.5 114t-29 139.5t29 139.5t78.5 114t115.5 77t140 28.5q73 0 139 -28t116 -77t79 -114t29 -140zM389 46q59 0 112.5 23.5t94 63.5t64.5 94t24 116q0 60 -23.5 114t-63.5 94.5
t-94 64.5t-115 24q-59 0 -112 -23.5t-93.5 -64t-64.5 -94.5t-24 -115q0 -60 23.5 -114t64 -94.5t94 -64.5t113.5 -24zM341 865l111 -139h-52l-136 139h77z" />
    <glyph glyph-name="Oacute" unicode="&#xd3;" horiz-adv-x="778" 
d="M752 343q0 -74 -28.5 -139t-78 -114t-115.5 -77.5t-141 -28.5q-74 0 -140 28.5t-115.5 77t-78.5 114t-29 139.5t29 139.5t78.5 114t115.5 77t140 28.5q73 0 139 -28t116 -77t79 -114t29 -140zM389 46q59 0 112.5 23.5t94 63.5t64.5 94t24 116q0 60 -23.5 114t-63.5 94.5
t-94 64.5t-115 24q-59 0 -112 -23.5t-93.5 -64t-64.5 -94.5t-24 -115q0 -60 23.5 -114t64 -94.5t94 -64.5t113.5 -24zM514 865l-136 -139h-52l111 139h77z" />
    <glyph glyph-name="Ocircumflex" unicode="&#xd4;" horiz-adv-x="778" 
d="M752 343q0 -74 -28.5 -139t-78 -114t-115.5 -77.5t-141 -28.5q-74 0 -140 28.5t-115.5 77t-78.5 114t-29 139.5t29 139.5t78.5 114t115.5 77t140 28.5q73 0 139 -28t116 -77t79 -114t29 -140zM389 46q59 0 112.5 23.5t94 63.5t64.5 94t24 116q0 60 -23.5 114t-63.5 94.5
t-94 64.5t-115 24q-59 0 -112 -23.5t-93.5 -64t-64.5 -94.5t-24 -115q0 -60 23.5 -114t64 -94.5t94 -64.5t113.5 -24zM423 865l113 -139h-65l-82 102l-82 -102h-64l113 139h67z" />
    <glyph glyph-name="Otilde" unicode="&#xd5;" horiz-adv-x="778" 
d="M752 343q0 -74 -28.5 -139t-78 -114t-115.5 -77.5t-141 -28.5q-74 0 -140 28.5t-115.5 77t-78.5 114t-29 139.5t29 139.5t78.5 114t115.5 77t140 28.5q73 0 139 -28t116 -77t79 -114t29 -140zM389 46q59 0 112.5 23.5t94 63.5t64.5 94t24 116q0 60 -23.5 114t-63.5 94.5
t-94 64.5t-115 24q-59 0 -112 -23.5t-93.5 -64t-64.5 -94.5t-24 -115q0 -60 23.5 -114t64 -94.5t94 -64.5t113.5 -24zM547 839q-17 -97 -88 -97q-15 0 -31.5 6t-39.5 17q-20 9 -37 15.5t-32 6.5q-17 0 -29.5 -11t-18.5 -38h-37q1 19 8.5 36.5t19.5 31t27 21.5t33 8
q28 0 72 -22q19 -9 37 -16t33 -7q17 0 28 10.5t16 38.5h39z" />
    <glyph glyph-name="Odieresis" unicode="&#xd6;" horiz-adv-x="778" 
d="M752 343q0 -74 -28.5 -139t-78 -114t-115.5 -77.5t-141 -28.5q-74 0 -140 28.5t-115.5 77t-78.5 114t-29 139.5t29 139.5t78.5 114t115.5 77t140 28.5q73 0 139 -28t116 -77t79 -114t29 -140zM389 46q59 0 112.5 23.5t94 63.5t64.5 94t24 116q0 60 -23.5 114t-63.5 94.5
t-94 64.5t-115 24q-59 0 -112 -23.5t-93.5 -64t-64.5 -94.5t-24 -115q0 -60 23.5 -114t64 -94.5t94 -64.5t113.5 -24zM301 838l45 -53l-45 -52l-43 52zM475 838l45 -53l-45 -52l-43 52z" />
    <glyph glyph-name="multiply" unicode="&#xd7;" horiz-adv-x="600" 
d="M300 293l211 209l40 -40l-211 -211l211 -211l-40 -40l-211 213l-211 -213l-40 40l210 211l-210 211l40 40z" />
    <glyph glyph-name="Oslash" unicode="&#xd8;" horiz-adv-x="778" 
d="M648 730l44 -27l-67 -88q58 -50 92.5 -120t34.5 -152q0 -71 -27 -136t-75.5 -114.5t-114.5 -79t-144 -29.5q-51 0 -104 15t-98 45l-79 -104l-44 27l82 108q-57 49 -89.5 118t-32.5 150q0 72 27 137t75.5 114.5t115 78.5t145.5 29q51 0 101.5 -15t92.5 -42zM544 594
q-36 23 -75.5 34.5t-80.5 11.5q-56 0 -109 -21.5t-98 -66.5q-44 -44 -65.5 -98.5t-21.5 -111.5q0 -59 23 -114.5t71 -100.5zM228 95q73 -49 161 -49q61 0 115 24.5t94 65.5t63 94.5t23 111.5q0 63 -26 120.5t-73 99.5z" />
    <glyph glyph-name="Ugrave" unicode="&#xd9;" horiz-adv-x="611" 
d="M128 215q0 -29 11.5 -59t34 -54.5t56 -40t77.5 -15.5q40 0 72.5 15t55.5 40.5t36 59t13 71.5v454l62 16v-488q0 -47 -14.5 -89t-44.5 -73.5t-75.5 -49.5t-108.5 -18q-54 0 -98 16.5t-75 46.5t-47.5 72t-16.5 94v473l62 16v-487zM258 865l111 -139h-52l-136 139h77z" />
    <glyph glyph-name="Uacute" unicode="&#xda;" horiz-adv-x="611" 
d="M128 215q0 -29 11.5 -59t34 -54.5t56 -40t77.5 -15.5q40 0 72.5 15t55.5 40.5t36 59t13 71.5v454l62 16v-488q0 -47 -14.5 -89t-44.5 -73.5t-75.5 -49.5t-108.5 -18q-54 0 -98 16.5t-75 46.5t-47.5 72t-16.5 94v473l62 16v-487zM431 865l-136 -139h-52l111 139h77z" />
    <glyph glyph-name="Ucircumflex" unicode="&#xdb;" horiz-adv-x="611" 
d="M128 215q0 -29 11.5 -59t34 -54.5t56 -40t77.5 -15.5q40 0 72.5 15t55.5 40.5t36 59t13 71.5v454l62 16v-488q0 -47 -14.5 -89t-44.5 -73.5t-75.5 -49.5t-108.5 -18q-54 0 -98 16.5t-75 46.5t-47.5 72t-16.5 94v473l62 16v-487zM340 865l113 -139h-65l-82 102l-82 -102
h-64l113 139h67z" />
    <glyph glyph-name="Udieresis" unicode="&#xdc;" horiz-adv-x="611" 
d="M128 215q0 -29 11.5 -59t34 -54.5t56 -40t77.5 -15.5q40 0 72.5 15t55.5 40.5t36 59t13 71.5v454l62 16v-488q0 -47 -14.5 -89t-44.5 -73.5t-75.5 -49.5t-108.5 -18q-54 0 -98 16.5t-75 46.5t-47.5 72t-16.5 94v473l62 16v-487zM218 838l45 -53l-45 -52l-43 52zM392 838
l45 -53l-45 -52l-43 52z" />
    <glyph glyph-name="Yacute" unicode="&#xdd;" 
d="M39 702l228 -377l197 377l68 -16l-369 -694l-71 16l139 251l-256 427zM387 865l-136 -139h-52l111 139h77z" />
    <glyph glyph-name="Thorn" unicode="&#xde;" horiz-adv-x="444" 
d="M127 586h70q51 0 92.5 -15t71.5 -44t46 -71.5t16 -97.5q0 -33 -8 -65.5t-27 -61t-49 -52t-73 -36.5q-25 -8 -53.5 -10.5t-62.5 -2.5h-23v-130l-62 -8v694l62 16v-116zM127 192h41q36 0 61 4.5t47 17.5q38 23 58.5 64t20.5 83q0 78 -44 122q-19 19 -45.5 30t-66.5 11h-72
v-332z" />
    <glyph glyph-name="germandbls" unicode="&#xdf;" horiz-adv-x="556" 
d="M468 537q0 -92 -74 -146q30 -12 54.5 -31.5t42 -44t27 -52.5t9.5 -57q0 -46 -16.5 -85.5t-46 -69t-69.5 -46.5t-86 -17q-54 0 -97.5 28t-68.5 72h-2v-88l-58 -12v368h-75l16 58h59v125q0 40 14.5 73.5t41 58t62.5 38.5t79 14q39 0 73 -14t59.5 -38.5t40.5 -59t15 -74.5z
M141 176l24 4q12 -61 51 -97.5t94 -36.5q33 0 61.5 11.5t50.5 31.5t34.5 47t12.5 59q0 72 -55.5 112.5t-176.5 40.5v54q87 0 130 34.5t43 94.5q0 29 -10.5 53.5t-29 42.5t-44 28t-56.5 10q-43 0 -68.5 -17t-39 -46t-17.5 -66.5t-4 -79.5v-280z" />
    <glyph glyph-name="agrave" unicode="&#xe0;" horiz-adv-x="444" 
d="M390 0l-58 -12v63h-2q-16 -28 -47 -45.5t-76 -17.5q-41 0 -76 13t-60.5 36t-40 55t-14.5 71q0 42 13.5 77t37.5 60t58 39t75 14q38 0 72.5 -18t59.5 -40v85q0 14 -8.5 28t-24 24.5t-37 17t-47.5 6.5q-36 0 -75 -14.5t-72 -25.5l19 68q35 14 70.5 22t75.5 8
q33 0 61.5 -8.5t49.5 -25t33.5 -39.5t12.5 -52v-389zM211 46q54 0 87.5 35t33.5 89q0 57 -34.5 91t-89.5 34q-28 0 -52.5 -9t-42.5 -26.5t-28.5 -42t-10.5 -54.5q0 -27 11.5 -48.5t30.5 -36.5t43.5 -23.5t51.5 -8.5zM181 705l111 -139h-52l-136 139h77z" />
    <glyph glyph-name="aacute" unicode="&#xe1;" horiz-adv-x="444" 
d="M390 0l-58 -12v63h-2q-16 -28 -47 -45.5t-76 -17.5q-41 0 -76 13t-60.5 36t-40 55t-14.5 71q0 42 13.5 77t37.5 60t58 39t75 14q38 0 72.5 -18t59.5 -40v85q0 14 -8.5 28t-24 24.5t-37 17t-47.5 6.5q-36 0 -75 -14.5t-72 -25.5l19 68q35 14 70.5 22t75.5 8
q33 0 61.5 -8.5t49.5 -25t33.5 -39.5t12.5 -52v-389zM211 46q54 0 87.5 35t33.5 89q0 57 -34.5 91t-89.5 34q-28 0 -52.5 -9t-42.5 -26.5t-28.5 -42t-10.5 -54.5q0 -27 11.5 -48.5t30.5 -36.5t43.5 -23.5t51.5 -8.5zM354 705l-136 -139h-52l111 139h77z" />
    <glyph glyph-name="acircumflex" unicode="&#xe2;" horiz-adv-x="444" 
d="M390 0l-58 -12v63h-2q-16 -28 -47 -45.5t-76 -17.5q-41 0 -76 13t-60.5 36t-40 55t-14.5 71q0 42 13.5 77t37.5 60t58 39t75 14q38 0 72.5 -18t59.5 -40v85q0 14 -8.5 28t-24 24.5t-37 17t-47.5 6.5q-36 0 -75 -14.5t-72 -25.5l19 68q35 14 70.5 22t75.5 8
q33 0 61.5 -8.5t49.5 -25t33.5 -39.5t12.5 -52v-389zM211 46q54 0 87.5 35t33.5 89q0 57 -34.5 91t-89.5 34q-28 0 -52.5 -9t-42.5 -26.5t-28.5 -42t-10.5 -54.5q0 -27 11.5 -48.5t30.5 -36.5t43.5 -23.5t51.5 -8.5zM263 705l113 -139h-65l-82 102l-82 -102h-64l113 139h67z
" />
    <glyph glyph-name="atilde" unicode="&#xe3;" horiz-adv-x="444" 
d="M390 0l-58 -12v63h-2q-16 -28 -47 -45.5t-76 -17.5q-41 0 -76 13t-60.5 36t-40 55t-14.5 71q0 42 13.5 77t37.5 60t58 39t75 14q38 0 72.5 -18t59.5 -40v85q0 14 -8.5 28t-24 24.5t-37 17t-47.5 6.5q-36 0 -75 -14.5t-72 -25.5l19 68q35 14 70.5 22t75.5 8
q33 0 61.5 -8.5t49.5 -25t33.5 -39.5t12.5 -52v-389zM211 46q54 0 87.5 35t33.5 89q0 57 -34.5 91t-89.5 34q-28 0 -52.5 -9t-42.5 -26.5t-28.5 -42t-10.5 -54.5q0 -27 11.5 -48.5t30.5 -36.5t43.5 -23.5t51.5 -8.5zM387 679q-17 -97 -88 -97q-15 0 -31.5 6t-39.5 17
q-20 9 -37 15.5t-32 6.5q-17 0 -29.5 -11t-18.5 -38h-37q1 19 8.5 36.5t19.5 31t27 21.5t33 8q28 0 72 -22q19 -9 37 -16t33 -7q17 0 28 10.5t16 38.5h39z" />
    <glyph glyph-name="adieresis" unicode="&#xe4;" horiz-adv-x="444" 
d="M390 0l-58 -12v63h-2q-16 -28 -47 -45.5t-76 -17.5q-41 0 -76 13t-60.5 36t-40 55t-14.5 71q0 42 13.5 77t37.5 60t58 39t75 14q38 0 72.5 -18t59.5 -40v85q0 14 -8.5 28t-24 24.5t-37 17t-47.5 6.5q-36 0 -75 -14.5t-72 -25.5l19 68q35 14 70.5 22t75.5 8
q33 0 61.5 -8.5t49.5 -25t33.5 -39.5t12.5 -52v-389zM211 46q54 0 87.5 35t33.5 89q0 57 -34.5 91t-89.5 34q-28 0 -52.5 -9t-42.5 -26.5t-28.5 -42t-10.5 -54.5q0 -27 11.5 -48.5t30.5 -36.5t43.5 -23.5t51.5 -8.5zM141 678l45 -53l-45 -52l-43 52zM315 678l45 -53l-45 -52
l-43 52z" />
    <glyph glyph-name="aring" unicode="&#xe5;" horiz-adv-x="444" 
d="M390 0l-58 -12v63h-2q-16 -28 -47 -45.5t-76 -17.5q-41 0 -76 13t-60.5 36t-40 55t-14.5 71q0 42 13.5 77t37.5 60t58 39t75 14q38 0 72.5 -18t59.5 -40v85q0 14 -8.5 28t-24 24.5t-37 17t-47.5 6.5q-36 0 -75 -14.5t-72 -25.5l19 68q35 14 70.5 22t75.5 8
q33 0 61.5 -8.5t49.5 -25t33.5 -39.5t12.5 -52v-389zM211 46q54 0 87.5 35t33.5 89q0 57 -34.5 91t-89.5 34q-28 0 -52.5 -9t-42.5 -26.5t-28.5 -42t-10.5 -54.5q0 -27 11.5 -48.5t30.5 -36.5t43.5 -23.5t51.5 -8.5zM329 664q0 -21 -8 -39t-21.5 -31.5t-31.5 -21t-39 -7.5
t-39 7.5t-31.5 21t-21.5 31.5t-8 39t7.5 39t21 31.5t32 21.5t39.5 8q42 0 71 -29t29 -71zM229 599q27 0 46.5 18.5t19.5 46.5q0 27 -19.5 46.5t-47.5 19.5q-27 0 -46 -19.5t-19 -46.5q0 -28 19 -46.5t47 -18.5z" />
    <glyph glyph-name="ae" unicode="&#xe6;" horiz-adv-x="889" 
d="M418 414q45 51 95.5 75.5t116.5 24.5q31 0 62 -8.5t58.5 -24.5t51 -39t38.5 -51l-388 -227q15 -55 63 -86.5t109 -31.5q60 0 113.5 22.5t89.5 60.5v-74q-52 -37 -102 -52t-110 -15q-63 0 -115.5 30.5t-87.5 81.5q-33 -57 -76 -84.5t-111 -27.5q-39 0 -73.5 12.5t-60 35
t-40 55t-14.5 72.5q0 88 50.5 139t137.5 51q42 0 78 -16.5t65 -44.5q3 13 3 27q0 30 -5.5 52.5t-20.5 40.5q-37 44 -107 44q-42 0 -76.5 -10t-70.5 -26l21 67q32 12 67 19.5t70 7.5q55 0 100 -24.5t69 -75.5zM431 218l322 189q-26 25 -58.5 37t-67.5 12q-40 0 -77.5 -15.5
t-64.5 -44.5q-56 -60 -56 -145zM231 46q27 0 52 9t44 25.5t30.5 39.5t11.5 51q0 27 -10 49.5t-28 39t-42.5 26t-54.5 9.5q-61 0 -100 -35.5t-39 -95.5q0 -54 36.5 -86t99.5 -32z" />
    <glyph glyph-name="ccedilla" unicode="&#xe7;" 
d="M431 408q-23 20 -57 34t-82 14q-45 0 -83.5 -15.5t-66 -43.5t-43.5 -65.5t-16 -82.5q0 -39 14 -75.5t40 -65t63 -45.5t83 -17q41 0 78.5 14t66.5 37l36 -45q-29 -26 -70 -42t-85 -20l-38 -47l2 -2q7 3 16 4.5t18 1.5q35 0 57 -18.5t22 -58.5q0 -35 -31.5 -57t-75.5 -22
q-24 0 -48 5t-47 16l14 30q13 -5 29.5 -10t30.5 -5q36 0 53 11t17 30q0 17 -13 30t-35 13q-11 0 -23 -0.5t-23 -5.5l-15 13l52 71q-53 3 -98 23.5t-78 56t-51.5 83t-18.5 104.5q0 55 21.5 102.5t58 82t85.5 54t105 19.5q46 0 90 -16.5t82 -42.5z" />
    <glyph glyph-name="egrave" unicode="&#xe8;" 
d="M101 163q11 -24 29.5 -45.5t42 -37.5t50.5 -25t56 -9q55 0 101.5 24.5t88.5 58.5v-70q-16 -16 -38 -29t-47 -22.5t-51 -14.5t-50 -5q-59 0 -106.5 21t-82 57t-53 85t-18.5 106t20 104.5t55 81t83 52.5t104 19q30 0 60 -8.5t56 -24t47 -37t35 -47.5zM392 412
q-17 19 -44 31.5t-64 12.5q-42 0 -79 -15t-64.5 -41.5t-43.5 -63.5t-16 -80q0 -7 1 -19t3 -22zM223 705l111 -139h-52l-136 139h77z" />
    <glyph glyph-name="eacute" unicode="&#xe9;" 
d="M101 163q11 -24 29.5 -45.5t42 -37.5t50.5 -25t56 -9q55 0 101.5 24.5t88.5 58.5v-70q-16 -16 -38 -29t-47 -22.5t-51 -14.5t-50 -5q-59 0 -106.5 21t-82 57t-53 85t-18.5 106t20 104.5t55 81t83 52.5t104 19q30 0 60 -8.5t56 -24t47 -37t35 -47.5zM392 412
q-17 19 -44 31.5t-64 12.5q-42 0 -79 -15t-64.5 -41.5t-43.5 -63.5t-16 -80q0 -7 1 -19t3 -22zM396 705l-136 -139h-52l111 139h77z" />
    <glyph glyph-name="ecircumflex" unicode="&#xea;" 
d="M101 163q11 -24 29.5 -45.5t42 -37.5t50.5 -25t56 -9q55 0 101.5 24.5t88.5 58.5v-70q-16 -16 -38 -29t-47 -22.5t-51 -14.5t-50 -5q-59 0 -106.5 21t-82 57t-53 85t-18.5 106t20 104.5t55 81t83 52.5t104 19q30 0 60 -8.5t56 -24t47 -37t35 -47.5zM392 412
q-17 19 -44 31.5t-64 12.5q-42 0 -79 -15t-64.5 -41.5t-43.5 -63.5t-16 -80q0 -7 1 -19t3 -22zM305 705l113 -139h-65l-82 102l-82 -102h-64l113 139h67z" />
    <glyph glyph-name="edieresis" unicode="&#xeb;" 
d="M101 163q11 -24 29.5 -45.5t42 -37.5t50.5 -25t56 -9q55 0 101.5 24.5t88.5 58.5v-70q-16 -16 -38 -29t-47 -22.5t-51 -14.5t-50 -5q-59 0 -106.5 21t-82 57t-53 85t-18.5 106t20 104.5t55 81t83 52.5t104 19q30 0 60 -8.5t56 -24t47 -37t35 -47.5zM392 412
q-17 19 -44 31.5t-64 12.5q-42 0 -79 -15t-64.5 -41.5t-43.5 -63.5t-16 -80q0 -7 1 -19t3 -22zM183 678l45 -53l-45 -52l-43 52zM357 678l45 -53l-45 -52l-43 52z" />
    <glyph glyph-name="igrave" unicode="&#xec;" horiz-adv-x="222" 
d="M140 0l-58 -12v514l58 12v-514zM59 705l111 -139h-52l-136 139h77z" />
    <glyph glyph-name="iacute" unicode="&#xed;" horiz-adv-x="222" 
d="M140 0l-58 -12v514l58 12v-514zM232 705l-136 -139h-52l111 139h77z" />
    <glyph glyph-name="icircumflex" unicode="&#xee;" horiz-adv-x="222" 
d="M140 0l-58 -12v514l58 12v-514zM141 705l113 -139h-65l-82 102l-82 -102h-64l113 139h67z" />
    <glyph glyph-name="idieresis" unicode="&#xef;" horiz-adv-x="222" 
d="M140 0l-58 -12v514l58 12v-514zM19 678l45 -53l-45 -52l-43 52zM193 678l45 -53l-45 -52l-43 52z" />
    <glyph glyph-name="eth" unicode="&#xf0;" horiz-adv-x="556" 
d="M142 724q28 -14 58 -32t61 -40l159 54l25 -45l-135 -45q52 -42 94 -87t71 -91.5t44.5 -94t15.5 -92.5q0 -52 -19 -99.5t-53 -84t-81.5 -58t-103.5 -21.5q-55 0 -102 20.5t-81.5 56t-54 83.5t-19.5 103q0 52 19.5 99.5t54 83.5t81.5 57.5t101 22.5q19 0 39 -5t30 -7l2 2
q-17 22 -41.5 45t-56.5 47l-152 -51l-24 44l127 43q-23 17 -48.5 32t-52.5 29zM278 46q42 0 78 16.5t63 44t42.5 65t15.5 79.5q0 40 -15 77t-42 65.5t-63.5 45.5t-79.5 17q-42 0 -78 -17t-62.5 -45.5t-42 -65.5t-15.5 -77t14.5 -77t41 -65.5t63 -45.5t80.5 -17z" />
    <glyph glyph-name="ntilde" unicode="&#xf1;" 
d="M112 431h2q20 34 59.5 58.5t88.5 24.5q94 0 139 -46t45 -127v-341l-58 -8v361q0 50 -32 79.5t-93 29.5q-30 0 -57 -10t-48 -28t-33.5 -42.5t-12.5 -52.5v-329l-58 -8v510l58 12v-83zM408 679q-17 -97 -88 -97q-15 0 -31.5 6t-39.5 17q-20 9 -37 15.5t-32 6.5
q-17 0 -29.5 -11t-18.5 -38h-37q1 19 8.5 36.5t19.5 31t27 21.5t33 8q28 0 72 -22q19 -9 37 -16t33 -7q17 0 28 10.5t16 38.5h39z" />
    <glyph glyph-name="ograve" unicode="&#xf2;" horiz-adv-x="556" 
d="M535 251q0 -50 -19 -97.5t-53.5 -84t-81.5 -59t-102 -22.5q-54 0 -101 21t-82 57t-55 84t-20 101q0 52 19.5 99.5t54 84t81.5 58t102 21.5q53 0 100 -21t82 -57t55 -84t20 -101zM278 46q41 0 77 16.5t63 44.5t43 65t16 79q0 40 -15 77t-42 65.5t-63.5 45.5t-79.5 17
q-41 0 -77 -16.5t-63 -44.5t-42.5 -65.5t-15.5 -78.5t15 -78t41.5 -65t63 -45t79.5 -17zM230 705l111 -139h-52l-136 139h77z" />
    <glyph glyph-name="oacute" unicode="&#xf3;" horiz-adv-x="556" 
d="M535 251q0 -50 -19 -97.5t-53.5 -84t-81.5 -59t-102 -22.5q-54 0 -101 21t-82 57t-55 84t-20 101q0 52 19.5 99.5t54 84t81.5 58t102 21.5q53 0 100 -21t82 -57t55 -84t20 -101zM278 46q41 0 77 16.5t63 44.5t43 65t16 79q0 40 -15 77t-42 65.5t-63.5 45.5t-79.5 17
q-41 0 -77 -16.5t-63 -44.5t-42.5 -65.5t-15.5 -78.5t15 -78t41.5 -65t63 -45t79.5 -17zM403 705l-136 -139h-52l111 139h77z" />
    <glyph glyph-name="ocircumflex" unicode="&#xf4;" horiz-adv-x="556" 
d="M535 251q0 -50 -19 -97.5t-53.5 -84t-81.5 -59t-102 -22.5q-54 0 -101 21t-82 57t-55 84t-20 101q0 52 19.5 99.5t54 84t81.5 58t102 21.5q53 0 100 -21t82 -57t55 -84t20 -101zM278 46q41 0 77 16.5t63 44.5t43 65t16 79q0 40 -15 77t-42 65.5t-63.5 45.5t-79.5 17
q-41 0 -77 -16.5t-63 -44.5t-42.5 -65.5t-15.5 -78.5t15 -78t41.5 -65t63 -45t79.5 -17zM312 705l113 -139h-65l-82 102l-82 -102h-64l113 139h67z" />
    <glyph glyph-name="otilde" unicode="&#xf5;" horiz-adv-x="556" 
d="M535 251q0 -50 -19 -97.5t-53.5 -84t-81.5 -59t-102 -22.5q-54 0 -101 21t-82 57t-55 84t-20 101q0 52 19.5 99.5t54 84t81.5 58t102 21.5q53 0 100 -21t82 -57t55 -84t20 -101zM278 46q41 0 77 16.5t63 44.5t43 65t16 79q0 40 -15 77t-42 65.5t-63.5 45.5t-79.5 17
q-41 0 -77 -16.5t-63 -44.5t-42.5 -65.5t-15.5 -78.5t15 -78t41.5 -65t63 -45t79.5 -17zM436 679q-17 -97 -88 -97q-15 0 -31.5 6t-39.5 17q-20 9 -37 15.5t-32 6.5q-17 0 -29.5 -11t-18.5 -38h-37q1 19 8.5 36.5t19.5 31t27 21.5t33 8q28 0 72 -22q19 -9 37 -16t33 -7
q17 0 28 10.5t16 38.5h39z" />
    <glyph glyph-name="odieresis" unicode="&#xf6;" horiz-adv-x="556" 
d="M535 251q0 -50 -19 -97.5t-53.5 -84t-81.5 -59t-102 -22.5q-54 0 -101 21t-82 57t-55 84t-20 101q0 52 19.5 99.5t54 84t81.5 58t102 21.5q53 0 100 -21t82 -57t55 -84t20 -101zM278 46q41 0 77 16.5t63 44.5t43 65t16 79q0 40 -15 77t-42 65.5t-63.5 45.5t-79.5 17
q-41 0 -77 -16.5t-63 -44.5t-42.5 -65.5t-15.5 -78.5t15 -78t41.5 -65t63 -45t79.5 -17zM190 678l45 -53l-45 -52l-43 52zM364 678l45 -53l-45 -52l-43 52z" />
    <glyph glyph-name="divide" unicode="&#xf7;" horiz-adv-x="600" 
d="M360 458q0 -23 -18 -41.5t-42 -18.5t-42 18.5t-18 41.5t18 41.5t42 18.5t42 -18.5t18 -41.5zM551 280v-58h-502v58h502zM360 44q0 -23 -18 -41.5t-42 -18.5q-23 0 -41.5 18.5t-18.5 41.5t18 41.5t41 18.5q25 0 43 -18.5t18 -41.5z" />
    <glyph glyph-name="oslash" unicode="&#xf8;" horiz-adv-x="556" 
d="M474 567l43 -25l-69 -97q42 -38 64.5 -90t22.5 -110q0 -56 -21.5 -103t-57 -81.5t-82 -53.5t-97.5 -19q-33 0 -66.5 8.5t-65.5 27.5l-64 -90l-43 25l68 94q-46 43 -65.5 94t-19.5 105q0 52 20 99.5t55 83.5t81.5 57.5t100.5 21.5q38 0 70 -11t60 -28zM374 427
q-44 29 -96 29q-43 0 -79.5 -17.5t-63 -46.5t-41.5 -66.5t-15 -78.5q0 -39 14.5 -76.5t46.5 -69.5zM180 73q23 -14 48 -20.5t51 -6.5q43 0 79.5 17t62.5 45.5t41 65.5t15 77q0 39 -15.5 77t-47.5 70z" />
    <glyph glyph-name="ugrave" unicode="&#xf9;" 
d="M112 177q0 -61 27.5 -99t94.5 -38q48 0 77.5 14t46.5 46q17 31 23.5 74t6.5 97v231l58 12v-514l-58 -8v83h-2q-8 -17 -22 -32.5t-34.5 -27.5t-45.5 -19.5t-55 -7.5q-48 0 -81.5 13.5t-54 37.5t-30 57.5t-9.5 73.5v332l58 12v-337zM202 705l111 -139h-52l-136 139h77z" />
    <glyph glyph-name="uacute" unicode="&#xfa;" 
d="M112 177q0 -61 27.5 -99t94.5 -38q48 0 77.5 14t46.5 46q17 31 23.5 74t6.5 97v231l58 12v-514l-58 -8v83h-2q-8 -17 -22 -32.5t-34.5 -27.5t-45.5 -19.5t-55 -7.5q-48 0 -81.5 13.5t-54 37.5t-30 57.5t-9.5 73.5v332l58 12v-337zM375 705l-136 -139h-52l111 139h77z" />
    <glyph glyph-name="ucircumflex" unicode="&#xfb;" 
d="M112 177q0 -61 27.5 -99t94.5 -38q48 0 77.5 14t46.5 46q17 31 23.5 74t6.5 97v231l58 12v-514l-58 -8v83h-2q-8 -17 -22 -32.5t-34.5 -27.5t-45.5 -19.5t-55 -7.5q-48 0 -81.5 13.5t-54 37.5t-30 57.5t-9.5 73.5v332l58 12v-337zM284 705l113 -139h-65l-82 102l-82 -102
h-64l113 139h67z" />
    <glyph glyph-name="udieresis" unicode="&#xfc;" 
d="M112 177q0 -61 27.5 -99t94.5 -38q48 0 77.5 14t46.5 46q17 31 23.5 74t6.5 97v231l58 12v-514l-58 -8v83h-2q-8 -17 -22 -32.5t-34.5 -27.5t-45.5 -19.5t-55 -7.5q-48 0 -81.5 13.5t-54 37.5t-30 57.5t-9.5 73.5v332l58 12v-337zM162 678l45 -53l-45 -52l-43 52z
M336 678l45 -53l-45 -52l-43 52z" />
    <glyph glyph-name="yacute" unicode="&#xfd;" horiz-adv-x="444" 
d="M33 514l201 -366l176 366l58 -12l-335 -686l-56 12l124 259l-225 415zM347 705l-136 -139h-52l111 139h77z" />
    <glyph glyph-name="thorn" unicode="&#xfe;" horiz-adv-x="611" 
d="M117 398h2q29 54 82 85t115 31q53 0 100.5 -20.5t83.5 -56.5t57 -84.5t21 -103.5q0 -53 -19.5 -100t-54 -83t-82 -57t-104.5 -21q-63 0 -112 25t-86 67h-3v-252l-58 -12v896l58 12v-326zM316 46q45 0 82.5 17t64.5 45t42 65t15 76q0 42 -14 79.5t-40 66t-63.5 45
t-84.5 16.5q-40 0 -76.5 -16t-64 -43.5t-44 -65t-16.5 -79.5t13 -78.5t38.5 -64t62.5 -44.5t85 -19z" />
    <glyph glyph-name="ydieresis" unicode="&#xff;" horiz-adv-x="444" 
d="M33 514l201 -366l176 366l58 -12l-335 -686l-56 12l124 259l-225 415zM134 678l45 -53l-45 -52l-43 52zM308 678l45 -53l-45 -52l-43 52z" />
    <glyph glyph-name="dotlessi" unicode="&#x131;" horiz-adv-x="222" 
d="M140 0l-58 -12v514l58 12v-514z" />
    <glyph glyph-name="Lslash" unicode="&#x141;" horiz-adv-x="389" 
d="M136 388l116 58l-15 -62l-101 -50v-272h250l-19 -62h-293v303l-58 -30l14 61l44 23v329l62 16v-314z" />
    <glyph glyph-name="lslash" unicode="&#x142;" horiz-adv-x="222" 
d="M140 428l64 46v-56l-64 -46v-372l-58 -12v346l-64 -42v56l64 42v322l58 12v-296z" />
    <glyph glyph-name="OE" unicode="&#x152;" horiz-adv-x="1000" 
d="M624 553v133h331l10 -62h-279v-245h240v-62h-240v-255h305l-13 -62h-352v133h-4q-49 -65 -115 -107t-149 -42q-73 0 -134.5 29t-106.5 78t-70.5 114.5t-25.5 137.5q0 65 23 129.5t67 115.5t107 82.5t142 31.5q40 0 77 -11.5t70 -31.5t62 -47t53 -59h2zM357 46
q58 0 107 25.5t85 67.5t56 95.5t20 108.5q0 52 -19.5 105t-54.5 95.5t-84.5 69.5t-110.5 27q-58 0 -107 -26t-85 -68.5t-55.5 -96t-19.5 -107.5q0 -55 20.5 -108t56 -95t84.5 -67.5t107 -25.5z" />
    <glyph glyph-name="oe" unicode="&#x153;" horiz-adv-x="1000" 
d="M524 379q50 71 103.5 103t120.5 32q72 0 129 -29.5t92 -93.5l-389 -227q16 -57 64 -87.5t114 -30.5q60 0 106 23.5t91 61.5v-74q-88 -69 -204 -69q-75 0 -133 38t-93 101q-39 -67 -98 -103t-135 -36q-57 0 -105 20.5t-82.5 56.5t-54 85t-19.5 106q0 52 20 99t55.5 82
t83 56t103.5 21q74 0 133.5 -34.5t97.5 -100.5zM296 46q43 0 80 15t64.5 42t43 64t15.5 81q0 45 -15 83.5t-42.5 66t-65.5 43t-84 15.5q-41 0 -77.5 -16t-64.5 -43.5t-44.5 -65t-16.5 -80.5q0 -44 15 -81.5t42 -65t65 -43t85 -15.5zM882 408q-25 23 -59 35.5t-70 12.5
q-38 0 -75 -14.5t-65 -44.5t-42 -68.5t-14 -76.5q0 -18 3 -34z" />
    <glyph glyph-name="Scaron" unicode="&#x160;" 
d="M404 574q-32 29 -65.5 47.5t-77.5 18.5q-63 0 -105 -32.5t-42 -95.5q0 -29 12 -48.5t32.5 -34t47.5 -24.5t56 -19q38 -12 75 -26t65.5 -35.5t46 -55t17.5 -84.5q0 -45 -16.5 -82t-45.5 -63.5t-68 -41t-85 -14.5q-70 0 -125.5 28.5t-91.5 91.5l48 38q32 -49 71.5 -72.5
t98.5 -23.5q63 0 104.5 35t41.5 101q0 31 -11.5 53t-33 38t-53.5 28.5t-73 24.5q-35 10 -68 23.5t-58 33.5t-40 49.5t-15 73.5q0 46 16.5 82.5t45 61.5t68 38.5t85.5 13.5q51 0 99.5 -22.5t81.5 -59.5zM180 865l82 -102l82 102h65l-113 -139h-67l-113 139h64z" />
    <glyph glyph-name="scaron" unicode="&#x161;" horiz-adv-x="389" 
d="M313 409q-26 20 -55.5 33.5t-64.5 13.5q-45 0 -75 -21.5t-30 -61.5q0 -22 9 -36.5t24.5 -24t36 -16t43.5 -12.5q38 -10 72.5 -23t54.5 -39q12 -15 18.5 -34.5t6.5 -48.5q-1 -72 -50 -111.5t-129 -39.5q-46 0 -87 20.5t-70 55.5l44 37q29 -27 57 -41t69 -14q47 0 77.5 24
t30.5 72q0 22 -12.5 37t-32 25t-44 17t-48.5 15q-25 7 -48 17t-41 25t-28.5 37t-10.5 54q0 33 13.5 60t36.5 46t53 29t63 10q46 0 80 -16.5t70 -42.5zM113 705l82 -102l82 102h65l-113 -139h-67l-113 139h64z" />
    <glyph glyph-name="Ydieresis" unicode="&#x178;" 
d="M39 702l228 -377l197 377l68 -16l-369 -694l-71 16l139 251l-256 427zM174 838l45 -53l-45 -52l-43 52zM348 838l45 -53l-45 -52l-43 52z" />
    <glyph glyph-name="Zcaron" unicode="&#x17d;" horiz-adv-x="556" 
d="M527 686l-399 -624h414l-13 -62h-516l400 624h-381l14 62h481zM208 865l82 -102l82 102h65l-113 -139h-67l-113 139h64z" />
    <glyph glyph-name="zcaron" unicode="&#x17e;" 
d="M479 502l-359 -444h357l-15 -58h-456l357 444h-313l13 58h416zM168 705l82 -102l82 102h65l-113 -139h-67l-113 139h64z" />
    <glyph glyph-name="florin" unicode="&#x192;" 
d="M483 653l-28 12t-30 6q-17 0 -30 -4.5t-24 -18t-19.5 -38t-16.5 -64.5l-21 -104h119v-58h-127l-85 -437q-12 -62 -44.5 -96.5t-80.5 -34.5q-25 0 -45 7t-42 21l10 56q16 -12 34 -22t38 -10q31 0 51 34t35 115l68 367h-104v58h115l20 102q9 46 19.5 79.5t26 55.5t38.5 33
t58 11q43 0 73 -10z" />
    <glyph glyph-name="circumflex" unicode="&#x2c6;" horiz-adv-x="222" 
d="M145 705l113 -139h-65l-82 102l-82 -102h-64l113 139h67z" />
    <glyph glyph-name="caron" unicode="&#x2c7;" horiz-adv-x="222" 
d="M29 705l82 -102l82 102h65l-113 -139h-67l-113 139h64z" />
    <glyph glyph-name="uni02C9" unicode="&#x2c9;" horiz-adv-x="222" 
d="M258 649v-48h-294v48h294z" />
    <glyph glyph-name="breve" unicode="&#x2d8;" horiz-adv-x="222" 
d="M7 702q8 -45 37.5 -63t71.5 -18q40 0 66.5 21.5t35.5 59.5h38q-9 -67 -45.5 -98t-96.5 -31q-66 0 -104 36t-41 93h38z" />
    <glyph glyph-name="dotaccent" unicode="&#x2d9;" horiz-adv-x="222" 
d="M110 678l45 -53l-45 -52l-43 52z" />
    <glyph glyph-name="ring" unicode="&#x2da;" horiz-adv-x="222" 
d="M211 664q0 -21 -8 -39t-21.5 -31.5t-31.5 -21t-39 -7.5t-39 7.5t-31.5 21t-21.5 31.5t-8 39t7.5 39t21 31.5t32 21.5t39.5 8q42 0 71 -29t29 -71zM111 599q27 0 46.5 18.5t19.5 46.5q0 27 -19.5 46.5t-47.5 19.5q-27 0 -46 -19.5t-19 -46.5q0 -28 19 -46.5t47 -18.5z" />
    <glyph glyph-name="ogonek" unicode="&#x2db;" horiz-adv-x="222" 
d="M209 11q-33 -13 -60.5 -29t-48 -33t-31.5 -34.5t-11 -32.5q0 -24 18 -35.5t39 -11.5q31 0 55.5 12.5t47.5 29.5l14 -30q-24 -27 -61.5 -41.5t-80.5 -14.5q-39 0 -64.5 18.5t-25.5 53.5q0 61 53 99t156 58v-9z" />
    <glyph glyph-name="tilde" unicode="&#x2dc;" horiz-adv-x="222" 
d="M269 679q-17 -97 -88 -97q-15 0 -31.5 6t-39.5 17q-20 9 -37 15.5t-32 6.5q-17 0 -29.5 -11t-18.5 -38h-37q1 19 8.5 36.5t19.5 31t27 21.5t33 8q28 0 72 -22q19 -9 37 -16t33 -7q17 0 28 10.5t16 38.5h39z" />
    <glyph glyph-name="hungarumlaut" unicode="&#x2dd;" horiz-adv-x="222" 
d="M139 705l-101 -139h-55l80 139h76zM266 705l-102 -139h-54l80 139h76z" />
    <glyph glyph-name="uni03A9" unicode="&#x3a9;" horiz-adv-x="648" 
d="M588 375q-1 -88 -31 -173t-95 -148v-3h138v-51h-211v37q34 26 60 63t44 80t27 90t9 94q0 48 -13 99t-38 93t-63 68.5t-89 26.5q-54 0 -93 -26t-64.5 -67t-37.5 -92t-12 -103q0 -45 9 -92t27 -90t44 -80t59 -64v-37h-211v51h137v3q-56 54 -90.5 136.5t-34.5 179.5
q0 69 18 129t52.5 105t84.5 71.5t114 27.5q60 1 108.5 -26t82 -72.5t51.5 -105.5t18 -124z" />
    <glyph glyph-name="uni03BC" unicode="&#x3bc;" 
d="M112 168q0 -26 6.5 -49.5t20.5 -41t37.5 -27.5t57.5 -10q49 0 78 14.5t45 43.5q17 30 24 72t7 99v233l58 12v-514l-58 -8v83h-2q-15 -34 -57 -60.5t-100 -26.5q-42 0 -69.5 9t-47.5 26v-195l-58 -12v686l58 12v-346z" />
    <glyph glyph-name="pi" unicode="&#x3c0;" horiz-adv-x="511" 
d="M491 514l-6 -53h-74v-329q0 -50 4 -84.5t9 -47.5h-57q-6 13 -10.5 46t-4.5 81v334h-170q-4 -104 -24 -249q-10 -72 -22 -126t-23 -86h-58q25 75 43 200q9 63 15.5 127.5t9.5 133.5q-42 0 -64.5 -3t-37.5 -9l-10 40q20 13 51.5 19t70.5 6h358z" />
    <glyph glyph-name="endash" unicode="&#x2013;" 
d="M500 273v-44h-500v44h500z" />
    <glyph glyph-name="emdash" unicode="&#x2014;" horiz-adv-x="1000" 
d="M1000 273v-44h-1000v44h1000z" />
    <glyph glyph-name="quoteleft" unicode="&#x2018;" horiz-adv-x="222" 
d="M160 683q-7 -12 -16.5 -24.5t-18 -25.5t-14.5 -26t-6 -24q0 -6 4 -12.5t9.5 -12t11.5 -9.5t11 -5l-43 -55q-19 12 -36.5 30t-17.5 42q0 18 9 37t22 37t27 35t24 32z" />
    <glyph glyph-name="quoteright" unicode="&#x2019;" horiz-adv-x="222" 
d="M124 702q20 -14 37 -30.5t17 -41.5q0 -31 -35 -79q-17 -23 -29.5 -38.5t-17.5 -23.5l-34 20l7 10q17 25 32.5 49t15.5 37q0 15 -12.5 26t-23.5 17z" />
    <glyph glyph-name="quotesinglbase" unicode="&#x201a;" horiz-adv-x="222" 
d="M127 63q17 -17 32 -35t15 -41q0 -19 -25 -51.5t-68 -74.5l-30 23q6 7 17 20t22 27t19 27t8 21q0 17 -11.5 26.5t-19.5 17.5z" />
    <glyph glyph-name="quotedblleft" unicode="&#x201c;" horiz-adv-x="333" 
d="M146 679l-34 -42q-32 -39 -32 -56q0 -11 11 -24t21 -18l-41 -39q-15 11 -31.5 31.5t-16.5 40.5q0 19 20 48t73 82zM283 679l-36 -45q-17 -21 -23.5 -33t-6.5 -20q0 -11 11 -24t21 -18l-41 -39q-15 11 -31.5 31.5t-16.5 40.5q0 10 4.5 21.5t15.5 27t29 35.5t44 46z" />
    <glyph glyph-name="quotedblright" unicode="&#x201d;" horiz-adv-x="333" 
d="M125 702q15 -11 31.5 -31.5t16.5 -40.5t-20.5 -49t-72.5 -81l-30 23l34 42q17 21 24.5 34.5t7.5 21.5q0 11 -11 24t-21 18zM262 702q15 -11 31.5 -31.5t16.5 -40.5t-20.5 -49t-72.5 -81l-30 23l32 39q34 41 34 59q0 11 -12 24.5t-20 17.5z" />
    <glyph glyph-name="quotedblbase" unicode="&#x201e;" horiz-adv-x="333" 
d="M126 63q17 -17 32 -35t15 -41q0 -19 -25 -51.5t-68 -74.5l-30 23q6 7 17 20t22 27t19 27t8 21q0 17 -11.5 26.5t-19.5 17.5zM262 63q17 -17 32.5 -35t15.5 -41q0 -19 -25.5 -51.5t-67.5 -74.5l-30 23q6 8 17 21t22 26.5t19 26.5t8 21q0 17 -11.5 26.5t-20.5 17.5z" />
    <glyph glyph-name="dagger" unicode="&#x2020;" 
d="M288 686l-25 -206l171 21v-72l-172 21l26 -185l-24 -364v-85h-27v85l-24 364l26 185l-173 -21v72l173 -21l-25 206h74z" />
    <glyph glyph-name="daggerdbl" unicode="&#x2021;" 
d="M292 686l-24 -199l169 23v-74l-169 21l21 -193l-21 -200l167 23v-74l-167 22l20 -219h-80l25 219l-171 -22v74l171 -23l-18 200l18 193l-171 -21v74l171 -23l-18 199h77z" />
    <glyph glyph-name="bullet" unicode="&#x2022;" 
d="M421 343q0 -34 -13 -65t-36 -55t-54 -38t-68 -14q-36 0 -67 13.5t-54.5 36.5t-37 54.5t-13.5 67.5q0 35 13 66t36 54.5t54.5 37t68.5 13.5q35 0 66 -13.5t54.5 -36.5t37 -54t13.5 -67z" />
    <glyph glyph-name="ellipsis" unicode="&#x2026;" horiz-adv-x="1000" 
d="M167 112l52 -59l-52 -59l-52 59zM500 112l52 -59l-52 -59l-52 59zM833 112l52 -59l-52 -59l-52 59z" />
    <glyph glyph-name="perthousand" unicode="&#x2030;" horiz-adv-x="1000" 
d="M372 594q28 0 57.5 23.5t58.5 68.5h51l-399 -702h-49l344 593l-2 2q-15 -11 -31.5 -16t-33.5 -5q-31 0 -50 14l-2 -2q7 -21 7 -45q0 -32 -12.5 -60.5t-34 -50t-51 -34.5t-62.5 -13q-34 0 -63 12.5t-50.5 34.5t-33.5 51t-12 62t12 61.5t33.5 50.5t50.5 34.5t63 12.5
q24 0 42.5 -5.5t34.5 -14.5t29.5 -19.5t26.5 -20.5q17 -13 35 -22.5t41 -9.5zM164 415q22 0 42 9t35.5 24t24.5 35.5t9 43.5q0 22 -8.5 42.5t-23.5 35.5t-36 24t-45 9q-23 0 -43 -8.5t-35 -23.5t-23.5 -35.5t-8.5 -43.5t8 -43.5t23 -35.5t35.5 -24t45.5 -9zM642 158
q0 -33 -12.5 -61.5t-34 -50t-50.5 -34t-63 -12.5q-33 0 -62 12t-50.5 33t-34 50t-12.5 63q0 33 12.5 62t34 51t50.5 34.5t62 12.5t62 -12.5t51 -34.5t34.5 -51t12.5 -62zM998 158q1 -32 -11.5 -60.5t-34 -50t-50 -34.5t-61.5 -13t-62.5 11.5t-51.5 32.5t-35 50t-13 64
q0 32 12.5 61t34 51t50.5 35t63 13q32 0 60.5 -12t50.5 -33.5t34.5 -51t13.5 -63.5zM482 48q23 0 43.5 8.5t35.5 23.5t24 35t9 43q0 22 -8.5 42.5t-23.5 36t-35.5 24.5t-45.5 9q-22 0 -42 -8.5t-35 -23.5t-24 -35.5t-9 -44.5q0 -23 9 -43t24 -35t35 -23.5t43 -8.5zM839 48
q23 0 43 8.5t35 23.5t24 35t9 43q0 22 -8 42t-23 35.5t-35.5 25t-45.5 9.5q-23 0 -43 -9t-35 -24t-24 -35.5t-9 -43.5t8.5 -43t23.5 -35t35.5 -23.5t44.5 -8.5z" />
    <glyph glyph-name="guilsinglleft" unicode="&#x2039;" horiz-adv-x="278" 
d="M192 390l34 -32l-110 -107l110 -107l-34 -32l-140 139z" />
    <glyph glyph-name="guilsinglright" unicode="&#x203a;" horiz-adv-x="278" 
d="M86 390l140 -139l-140 -139l-34 32l110 107l-110 107z" />
    <glyph glyph-name="fraction" unicode="&#x2044;" horiz-adv-x="167" 
d="M279 702h55l-445 -718h-56z" />
    <glyph glyph-name="Euro" unicode="&#x20ac;" 
d="M473 604q-17 17 -44.5 28.5t-59.5 11.5q-33 0 -62 -14.5t-53 -41t-42 -64.5t-27 -84h207l-10 -53h-206q-2 -11 -2 -21v-21v-15t1 -15h193l-10 -53h-178q16 -103 67.5 -161.5t123.5 -58.5q30 0 58 11.5t49 30.5l-9 -74q-24 -17 -51.5 -21.5t-45.5 -4.5q-48 0 -90.5 20
t-76 56t-56.5 87t-33 115h-90l10 53h75q-1 8 -1 15.5v14.5q0 11 0.5 21t1.5 21h-86l10 53h83q11 57 34.5 105t56.5 83t74.5 54.5t88.5 19.5q25 0 50.5 -6t39.5 -19z" />
    <glyph glyph-name="afii61289" unicode="&#x2113;" horiz-adv-x="437" 
d="M346 605q0 -95 -52.5 -186t-136.5 -180q-2 -54 4.5 -92.5t20.5 -62.5t34.5 -35.5t44.5 -11.5q35 0 68.5 24.5t54.5 66.5l30 -24q-28 -55 -69 -85t-95 -30q-72 0 -110.5 52t-37.5 153l-54 -47l-19 36l7.5 7.5t19.5 17.5t24 22l21 21v282q0 105 36 165.5t100 60.5
q55 0 82 -44t27 -110zM157 302q72 84 109.5 157.5t37.5 143.5q0 51 -15.5 80t-52.5 29q-33 0 -56 -44.5t-23 -129.5v-236z" />
    <glyph glyph-name="trademark" unicode="&#x2122;" horiz-adv-x="990" 
d="M402 686v-54h-132v-358h-58v358h-132v54h322zM563 686l128 -323l124 323h95v-412h-58v357h-2l-143 -357h-36l-143 358h-2v-358h-58v412h95z" />
    <glyph glyph-name="Omega" unicode="&#x2126;" horiz-adv-x="648" 
d="M588 375q-1 -88 -31 -173t-95 -148v-3h138v-51h-211v37q34 26 60 63t44 80t27 90t9 94q0 48 -13 99t-38 93t-63 68.5t-89 26.5q-54 0 -93 -26t-64.5 -67t-37.5 -92t-12 -103q0 -45 9 -92t27 -90t44 -80t59 -64v-37h-211v51h137v3q-56 54 -90.5 136.5t-34.5 179.5
q0 69 18 129t52.5 105t84.5 71.5t114 27.5q60 1 108.5 -26t82 -72.5t51.5 -105.5t18 -124z" />
    <glyph glyph-name="estimated" unicode="&#x212e;" horiz-adv-x="866" 
d="M184 333l-4 -2v-203q0 -11 22.5 -31t55.5 -42q35 -23 80.5 -36.5t94.5 -13.5q78 0 143 32t114 87h57q-54 -63 -135.5 -101t-179.5 -38q-78 0 -149.5 26.5t-126.5 73.5t-88.5 111.5t-34.5 141.5q-1 73 28.5 139t88.5 120q60 54 134 80t150 25q80 -1 152.5 -27.5
t130.5 -80.5q60 -55 88 -122t26 -139h-647zM180 357l3 -5h498q4 0 4 5v200q0 24 -76 73q-35 23 -81.5 36.5t-95.5 13.5q-40 -1 -71 -8t-54 -17t-44 -22t-40 -28q-20 -16 -31.5 -28t-11.5 -22v-198z" />
    <glyph glyph-name="partialdiff" unicode="&#x2202;" horiz-adv-x="492" 
d="M445 399q-1 -92 -15.5 -167t-43.5 -128.5t-72 -83.5t-100 -31q-38 -1 -69.5 14.5t-54.5 45t-36 71.5t-13 94q0 54 15 100.5t41 80t61.5 53t76.5 19.5q45 0 86.5 -24.5t64.5 -66.5q0 9 0.5 19.5t0.5 19.5q0 74 -14.5 131t-39 96t-56 59t-65.5 20q-42 0 -70.5 -15
t-48.5 -32l-22 44q30 24 64 38.5t83 14.5q50 0 92 -26t72.5 -74.5t47 -117.5t15.5 -154zM215 39q37 0 66 23.5t49 61.5t32.5 86.5t16.5 98.5q-5 16 -16.5 35t-29.5 35.5t-40.5 27t-47.5 10.5q-31 0 -57.5 -16t-46.5 -43.5t-31 -64.5t-11 -78q1 -79 31.5 -127t84.5 -49z" />
    <glyph glyph-name="Delta" unicode="&#x2206;" horiz-adv-x="583" 
d="M326 711l227 -667v-44h-523v43l230 668h66zM288 633l-0.5 -3t-3 -12t-7.5 -25.5t-14 -42.5l-18 -51l-16 -50l-140 -399h401l-92 269l-63 185q-11 32 -23 64t-20 65h-4z" />
    <glyph glyph-name="product" unicode="&#x220f;" horiz-adv-x="629" 
d="M603 692v-55h-98v-733h-58v733h-266v-733h-57v733h-99v55h578z" />
    <glyph glyph-name="summation" unicode="&#x2211;" horiz-adv-x="502" 
d="M466 692v-52h-352v-4l225 -330l-243 -341v-3h385v-58h-459v42l250 351l-239 353v42h433z" />
    <glyph glyph-name="minus" unicode="&#x2212;" horiz-adv-x="600" 
d="M551 280v-58h-502v58h502z" />
    <glyph glyph-name="uni2215" unicode="&#x2215;" horiz-adv-x="167" 
d="M279 702h55l-445 -718h-56z" />
    <glyph glyph-name="uni2219" unicode="&#x2219;" horiz-adv-x="250" 
d="M175 251q0 -21 -15.5 -35.5t-35.5 -14.5q-21 0 -35 15t-14 35t14.5 35t34.5 15t35.5 -15t15.5 -35z" />
    <glyph glyph-name="radical" unicode="&#x221a;" horiz-adv-x="522" 
d="M472 821h45l-202 -972h-53l-149 467l-68 -25l-13 38l119 46l120 -374q1 -2 3 -9.5t4 -19.5q6 -25 9 -43l13 70z" />
    <glyph glyph-name="infinity" unicode="&#x221e;" horiz-adv-x="724" 
d="M366 317q17 19 35.5 39.5t40 36.5t46 26.5t54.5 10.5q61 0 97 -39t37 -102q0 -31 -10.5 -57.5t-28.5 -46t-42.5 -31t-51.5 -12.5q-14 -1 -31.5 2t-39 14t-49 34t-60.5 62q-52 -61 -92.5 -86.5t-85.5 -25.5q-28 0 -53 11t-44 30t-30 45.5t-11 56.5t10.5 56t29 46
t45.5 31.5t60 11.5q42 0 82 -26t92 -87zM191 182q22 0 42 9t38.5 23.5t35 32.5t33.5 36q-14 18 -30.5 37t-35.5 35t-41 26.5t-49 10.5q-21 0 -38.5 -8.5t-30 -23.5t-19 -34.5t-6.5 -40.5q1 -43 28 -73t73 -30zM388 287q15 -15 31.5 -33.5t35 -34.5t39.5 -26.5t45 -10.5
q21 0 38 8t30 22.5t20 33t7 39.5q0 50 -26 78.5t-71 28.5q-22 0 -42.5 -10t-39 -26t-35.5 -34.5t-32 -34.5z" />
    <glyph glyph-name="integral" unicode="&#x222b;" horiz-adv-x="326" 
d="M298 787q-14 10 -33 10q-21 0 -35 -11.5t-22.5 -29.5t-13 -41t-6.5 -46t-2 -44.5v-36.5q-1 -51 1 -111t4 -134q2 -73 4 -135t2 -114q0 -123 -30 -186.5t-97 -63.5q-17 0 -33 5t-24 10l12 44q7 -2 17 -6.5t24 -4.5q15 0 29 10t24.5 33t17 62t5.5 97l-1 69q0 17 -1.5 66
t-4.5 137t-4 145.5t-1 85.5q0 32 2 73.5t14.5 79t38.5 64t73 29.5q14 1 28.5 -3.5t22.5 -9.5z" />
    <glyph glyph-name="approxequal" unicode="&#x2248;" horiz-adv-x="517" 
d="M168 416q16 0 31.5 -4.5t29.5 -11t25.5 -13.5t19.5 -12q24 -14 45 -22.5t42 -8.5q25 0 46 16.5t40 54.5l27 -22q-20 -42 -50 -65.5t-66 -23.5q-25 0 -48.5 9t-53.5 27q-31 18 -52.5 27t-41.5 9q-32 0 -53.5 -21t-38.5 -50l-28 21q21 42 53.5 66t72.5 24zM168 261
q16 0 31.5 -4.5t29.5 -11t25.5 -13.5t19.5 -12q24 -14 45 -22.5t42 -8.5q25 0 46 16.5t40 54.5l27 -22q-20 -42 -50 -65.5t-66 -23.5q-25 0 -48.5 9t-53.5 27q-31 18 -52.5 27t-41.5 9q-32 0 -53.5 -21t-38.5 -50l-28 21q21 42 53.5 66t72.5 24z" />
    <glyph glyph-name="notequal" unicode="&#x2260;" horiz-adv-x="517" 
d="M332 499l33 -15l-42 -93h146v-41h-163l-63 -138h226v-40h-242l-50 -110l-33 15l43 95h-139v40h156l63 138h-219v41h235z" />
    <glyph glyph-name="lessequal" unicode="&#x2264;" horiz-adv-x="517" 
d="M466 572v-51l-368 -182v-2l369 -185v-50l-414 214v42zM469 62v-42h-421v42h421z" />
    <glyph glyph-name="greaterequal" unicode="&#x2265;" horiz-adv-x="517" 
d="M467 358v-42l-413 -214v50l368 183v3l-368 183v51zM469 62v-42h-421v42h421z" />
    <glyph glyph-name="lozenge" unicode="&#x25ca;" horiz-adv-x="523" 
d="M237 732h49l184 -386l-186 -386h-49l-183 386zM259 678q-3 -11 -7 -24t-10 -26l-136 -281l137 -284q5 -9 9.5 -25t6.5 -25h4q8 28 12 39t8 19l132 273l-134 278q-7 14 -11 28t-9 28h-2z" />
    </font>
</defs>
</svg>
