<?xml version="1.0" standalone="no"?>
<!DOCTYPE svg PUBLIC "-//W3C//DTD SVG 1.1//EN" "http://www.w3.org/Graphics/SVG/1.1/DTD/svg11.dtd" >
<svg xmlns="http://www.w3.org/2000/svg" xmlns:xlink="http://www.w3.org/1999/xlink" version="1.1">
<metadata>
Created by FontForge 20201107 at Wed May 14 15:28:30 2014
 By 
Copyright (c) 2014 Monotype ITC Inc. All rights reserved.
</metadata>
<defs>
<font id="ITCKabelStd-Bold" horiz-adv-x="556" >
  <font-face 
    font-family="ITC Kabel Std Medium"
    font-weight="700"
    font-stretch="normal"
    units-per-em="1000"
    panose-1="2 13 8 2 2 2 4 2 3 4"
    ascent="724"
    descent="-276"
    x-height="516"
    cap-height="702"
    bbox="-167 -250 1007 950"
    underline-thickness="50"
    underline-position="-125"
    unicode-range="U+000D-FB02"
  />
<missing-glyph horiz-adv-x="497" 
d="M497 696v-696h-497v696h497zM448 49v598h-399v-598h399zM372 464q0 -29 -8.5 -48.5t-21 -35t-28.5 -29.5t-31 -30q-9 -11 -14 -24t-5 -40v-31h-48v38q0 38 16.5 63t36.5 45.5t36.5 40.5t16.5 47q0 35 -22 58.5t-52 23.5q-29 0 -51 -21t-28 -71l-49 8q7 70 43 101.5
t88 31.5q53 0 87 -34.5t34 -92.5zM210 178h60v-65h-60v65z" />
    <glyph glyph-name="fi" unicode="fi" horiz-adv-x="611" 
d="M476 735l115 -84l-100 -98l-113 82zM360 587h-17q-59 0 -82 -17.5t-23 -60.5h91v-130h-91v-371l-156 -16v387h-83l31 130h52q0 103 61.5 160.5t180.5 57.5zM563 8l-156 -16v516l156 16v-516z" />
    <glyph glyph-name="fl" unicode="fl" horiz-adv-x="611" 
d="M360 587q-34 0 -56.5 -3t-37 -11.5t-21 -23.5t-7.5 -40h91v-130h-91v-371l-156 -16v387h-83l31 130h52q0 103 61 160.5t181 57.5zM563 8l-156 -16v705l156 16v-705z" />
    <glyph glyph-name=".notdef" horiz-adv-x="497" 
d="M497 696v-696h-497v696h497zM448 49v598h-399v-598h399zM372 464q0 -29 -8.5 -48.5t-21 -35t-28.5 -29.5t-31 -30q-9 -11 -14 -24t-5 -40v-31h-48v38q0 38 16.5 63t36.5 45.5t36.5 40.5t16.5 47q0 35 -22 58.5t-52 23.5q-29 0 -51 -21t-28 -71l-49 8q7 70 43 101.5
t88 31.5q53 0 87 -34.5t34 -92.5zM210 178h60v-65h-60v65z" />
    <glyph glyph-name=".null" horiz-adv-x="0" 
 />
    <glyph glyph-name="nonmarkingreturn" unicode="&#xd;" horiz-adv-x="0" 
 />
    <glyph glyph-name="NULL" horiz-adv-x="500" 
 />
    <glyph glyph-name="NULL" horiz-adv-x="500" 
 />
    <glyph glyph-name="space" unicode=" " horiz-adv-x="278" 
 />
    <glyph glyph-name="exclam" unicode="!" horiz-adv-x="333" 
d="M238 253l-2 -18l-144 -16l-14 470l177 24zM166 196l107 -105l-107 -105l-107 105z" />
    <glyph glyph-name="quotedbl" unicode="&#x22;" horiz-adv-x="333" 
d="M135 686v-271h-120v271h120zM318 686v-271h-120v271h120z" />
    <glyph glyph-name="numbersign" unicode="#" 
d="M285 686l-27 -183h91l27 183h100l-25 -183h75l-4 -95h-86l-18 -116h78l-4 -95h-86l-27 -197h-100l27 197h-91l-27 -197h-100l27 197h-85l4 95h95l16 116h-85l4 95h94l27 183h100zM229 292h91l16 116h-91z" />
    <glyph glyph-name="dollar" unicode="$" 
d="M339 672q48 -7 88 -28.5t71 -61.5l-108 -96q-19 23 -42.5 36.5t-52.5 13.5q-24 0 -41.5 -10.5t-17.5 -36.5q0 -17 22.5 -26.5t54.5 -20.5q30 -9 63 -22t61.5 -34.5t47 -54.5t18.5 -83q0 -72 -43 -125t-121 -72v-121l-119 -19v135q-103 10 -179 82l96 118q21 -22 53.5 -36
t62.5 -14q29 0 49.5 10.5t20.5 31.5q0 14 -10 23.5t-26.5 17t-37.5 14t-44 14.5q-25 9 -50 22.5t-44.5 34.5t-32 51t-12.5 73q0 69 40 117t114 64v115l119 13v-125z" />
    <glyph glyph-name="percent" unicode="%" horiz-adv-x="889" 
d="M418 591q49 0 81.5 28t55.5 67h84l-393 -702h-84l309 544l-2 2q-18 -11 -46 -11q-12 0 -23 3t-22 8q-3 -38 -16 -71t-36 -58.5t-54 -40t-70 -14.5q-35 0 -67 13t-56 36t-38.5 54t-14.5 67q0 37 14.5 68t39 53.5t56 35.5t65.5 13q33 0 64 -11.5t58 -35.5q53 -48 95 -48z
M202 437q33 0 55.5 23t22.5 55t-22.5 56t-56.5 24q-16 0 -30 -6.5t-24.5 -17.5t-16.5 -25.5t-6 -30.5q0 -32 22.5 -55t55.5 -23zM789 170q0 -37 -14.5 -68t-39 -53.5t-57 -35.5t-67.5 -13t-67 13t-56 35.5t-38.5 54t-14.5 67.5q0 35 14 66t38 54t56 36.5t68 13.5t68.5 -13
t57 -36t38.5 -54t14 -67zM613 91q33 0 55.5 23.5t22.5 55.5t-22.5 55.5t-56.5 23.5q-16 0 -30.5 -6.5t-25 -17.5t-17 -25.5t-6.5 -29.5t6 -29t17 -25.5t25.5 -18t31.5 -6.5z" />
    <glyph glyph-name="ampersand" unicode="&#x26;" horiz-adv-x="722" 
d="M532 529q0 -44 -31.5 -86t-88.5 -74l78 -88l97 84l91 -102l-94 -87l97 -108l-113 -91l-90 106q-46 -43 -96 -71t-115 -28q-47 0 -85.5 16t-66.5 45t-43 69t-15 88q0 67 38 119t107 79q-12 7 -23 20.5t-18.5 30t-12 35.5t-4.5 37q0 41 14 74t39.5 56.5t60 36t76.5 12.5
q43 0 79.5 -13.5t63 -36.5t41 -54.5t14.5 -68.5zM321 472q40 19 53 34t13 36q0 17 -14.5 31t-36.5 14t-34.5 -16.5t-12.5 -37.5q0 -17 9.5 -33.5t22.5 -27.5zM292 129q32 0 54.5 16t42.5 35l5 5l-100 108q-29 -19 -48 -40.5t-19 -54.5q0 -25 18.5 -47t46.5 -22z" />
    <glyph glyph-name="quotesingle" unicode="'" horiz-adv-x="222" 
d="M171 686v-271h-120v271h120z" />
    <glyph glyph-name="parenleft" unicode="(" horiz-adv-x="333" 
d="M301 699q-78 -84 -120 -189t-42 -220q0 -62 11 -122.5t32 -116t50.5 -104t67.5 -86.5l-78 -78q-48 51 -85 109t-61.5 119.5t-37.5 125.5t-13 127q0 146 47.5 275t148.5 235z" />
    <glyph glyph-name="parenright" unicode=")" horiz-adv-x="333" 
d="M111 774q97 -104 147 -229t50 -252q0 -146 -47.5 -275t-148.5 -235l-80 75q78 84 120 189t42 220q0 61 -11 121.5t-31.5 116t-50.5 104t-68 87.5z" />
    <glyph glyph-name="asterisk" unicode="*" horiz-adv-x="444" 
d="M254 559l99 77l48 -67l-120 -61l117 -53l-33 -77l-113 76l10 -118l-85 -19l13 137l-98 -76l-49 64l117 68l-111 52l31 77l110 -76l-13 119l84 20z" />
    <glyph glyph-name="plus" unicode="+" horiz-adv-x="600" 
d="M361 516v-197h197v-122h-197v-197h-122v197h-197v122h197v197h122z" />
    <glyph glyph-name="comma" unicode="," horiz-adv-x="278" 
d="M106 -170h-125l101 351l186 27z" />
    <glyph glyph-name="hyphen" unicode="-" horiz-adv-x="333" 
d="M296 326v-136h-259v136h259z" />
    <glyph glyph-name="period" unicode="." horiz-adv-x="278" 
d="M139 216l117 -115l-117 -115l-117 115z" />
    <glyph glyph-name="slash" unicode="/" horiz-adv-x="278" 
d="M288 702l-181 -718h-117l180 718h118z" />
    <glyph glyph-name="zero" unicode="0" 
d="M531 343q0 -79 -15.5 -145t-47 -113.5t-79.5 -74t-113 -26.5q-64 0 -111 26.5t-78.5 73.5t-47 113t-15.5 146t15.5 146t47 113.5t78.5 73.5t111 26t112 -26t80 -73.5t47.5 -113.5t15.5 -146zM276 138q46 0 70 50t24 155t-23.5 155t-71.5 50q-90 0 -90 -205
q0 -108 23 -156.5t68 -48.5z" />
    <glyph glyph-name="one" unicode="1" 
d="M390 702v-702l-161 -16v467l-116 -56l-57 99z" />
    <glyph glyph-name="two" unicode="2" 
d="M515 477q0 -63 -29.5 -121.5t-74.5 -110.5l-77 -91h210l-36 -154h-484l250 306q13 17 27.5 36.5t26 40.5t19 43t7.5 43q0 36 -27 57.5t-64 21.5q-32 0 -56.5 -20t-24.5 -54q0 -31 14.5 -51t43.5 -34l-94 -125q-57 33 -91 82.5t-34 115.5q0 55 17.5 99t50.5 75.5t80 48.5
t105 17q52 0 96.5 -16t76.5 -45.5t50 -71t18 -92.5z" />
    <glyph glyph-name="three" unicode="3" 
d="M488 501q0 -45 -16.5 -76t-49.5 -60q45 -23 71 -66.5t26 -94.5q0 -53 -20 -93.5t-55.5 -69t-85 -43t-108.5 -14.5q-67 0 -129.5 29.5t-107.5 80.5l113 114q26 -33 53.5 -51.5t69.5 -18.5q45 0 70 22.5t25 61.5q0 51 -51 65q-13 4 -29 4.5t-35 0.5h-50v120h41q23 0 42.5 3
t34 11.5t22.5 22.5t8 35q0 42 -26 60t-59 18q-36 0 -59 -18.5t-48 -40.5l-119 68q42 66 108 98.5t141 32.5q49 0 90 -15t70.5 -41.5t46 -63.5t16.5 -81z" />
    <glyph glyph-name="four" unicode="4" 
d="M441 686v-379h94l-25 -140h-69v-167l-161 -16v183h-279l219 519h221zM194 307h98v234h-2z" />
    <glyph glyph-name="five" unicode="5" 
d="M473 686l-39 -154h-195v-60q22 3 38 3q52 0 96 -18.5t75.5 -50.5t49 -75.5t17.5 -94.5q0 -57 -21 -103.5t-58.5 -79.5t-88 -51t-108.5 -18q-69 0 -128.5 22t-107.5 70l119 121q20 -31 51.5 -45t66.5 -14q20 0 38 7.5t32 22t22 34t8 43.5q0 46 -35.5 73t-92.5 27
q-35 0 -68.5 -7.5t-65.5 -19.5v368h395z" />
    <glyph glyph-name="six" unicode="6" 
d="M457 653q-54 -46 -102 -95t-86 -106l2 -2q9 6 26 7.5t29 1.5q47 0 85.5 -17t65.5 -47t42 -71t15 -88q0 -56 -18.5 -102.5t-52 -79.5t-80.5 -51.5t-105 -18.5q-56 0 -102 19t-79.5 53.5t-52 82t-18.5 104.5q0 52 15 105t46.5 108.5t81.5 116t119 129.5zM281 138q19 0 36 8
t29.5 21.5t19.5 31t7 36.5q0 39 -26 66.5t-67 27.5q-20 0 -36.5 -7.5t-29.5 -20.5t-20 -30t-7 -36q0 -18 7.5 -35.5t20 -31t29.5 -22t37 -8.5z" />
    <glyph glyph-name="seven" unicode="7" 
d="M537 686l-220 -678l-194 -24l193 548h-281l39 154h463z" />
    <glyph glyph-name="eight" unicode="8" 
d="M506 500q0 -42 -20 -79t-55 -60q48 -32 73 -71t25 -99q0 -49 -20.5 -87.5t-56 -65t-81.5 -40.5t-97 -14q-46 0 -90.5 13.5t-79 39.5t-55.5 65t-21 89q0 51 27.5 94.5t68.5 69.5q-38 28 -58 63.5t-20 80.5q0 97 63.5 150t174.5 53q49 0 89.5 -14.5t70 -40.5t46 -63.5
t16.5 -83.5zM278 433q6 0 17.5 6t22.5 16t19 24t8 31q0 29 -20 40.5t-53 11.5q-26 0 -45.5 -17t-19.5 -44q0 -12 6.5 -24t17 -22t23 -16t24.5 -6zM272 124q40 0 68 19.5t28 61.5q0 16 -9 32t-22.5 29t-30.5 21.5t-32 8.5q-6 0 -20.5 -7t-28.5 -19.5t-25 -29.5t-11 -37
q0 -34 24 -56.5t59 -22.5z" />
    <glyph glyph-name="nine" unicode="9" 
d="M530 444q0 -48 -13.5 -98.5t-44 -106t-80.5 -118.5t-123 -137l-169 50q54 45 101.5 94.5t85.5 106.5l-2 2q-14 -6 -26 -8t-28 -2q-47 0 -85.5 17.5t-65.5 47.5t-42 71t-15 88q0 57 18 103.5t51 79.5t78.5 50.5t100.5 17.5q59 0 107 -19t81.5 -53t52 -81.5t18.5 -104.5z
M275 357q19 0 36.5 7.5t30 20.5t20 30.5t7.5 37.5t-7.5 37.5t-20.5 30t-30.5 20t-36.5 7.5q-18 0 -34 -7t-28.5 -20t-20 -30t-7.5 -38q0 -39 25.5 -67.5t65.5 -28.5z" />
    <glyph glyph-name="colon" unicode=":" horiz-adv-x="278" 
d="M139 493l117 -115l-117 -115l-117 115zM139 216l117 -115l-117 -115l-117 115z" />
    <glyph glyph-name="semicolon" unicode=";" horiz-adv-x="278" 
d="M161 493l117 -115l-117 -115l-117 115zM106 -170h-125l101 351l186 27z" />
    <glyph glyph-name="less" unicode="&#x3c;" horiz-adv-x="600" 
d="M558 404l-356 -146l356 -146v-115l-516 214v94l516 214v-115z" />
    <glyph glyph-name="equal" unicode="=" horiz-adv-x="600" 
d="M558 433v-122h-516v122h516zM558 205v-122h-516v122h516z" />
    <glyph glyph-name="greater" unicode="&#x3e;" horiz-adv-x="600" 
d="M42 519l516 -214v-94l-516 -214v115l356 146l-356 146v115z" />
    <glyph glyph-name="question" unicode="?" horiz-adv-x="500" 
d="M472 517q0 -49 -17.5 -86.5t-64.5 -69.5q-21 -15 -34 -25t-20.5 -19.5t-10 -21t-2.5 -28.5v-27l-152 -16v69q0 30 4.5 53t14.5 41t27 32.5t43 29.5q18 11 30 25t12 37q0 25 -22 41t-48 16q-28 0 -49 -14.5t-36 -37.5l-120 81q37 57 96.5 86.5t126.5 29.5q45 0 85.5 -14.5
t71 -40.5t48 -62t17.5 -79zM256 196l107 -105l-107 -105l-107 105z" />
    <glyph glyph-name="at" unicode="@" horiz-adv-x="800" 
d="M422 -16q-79 0 -148 27t-120 75t-80.5 113.5t-29.5 142.5q0 76 29 142t79 114.5t118 76t145 27.5q64 0 125 -20t109 -58t77 -93t29 -124q0 -49 -13 -88.5t-34 -70t-48.5 -52.5t-55.5 -36t-55.5 -20.5t-48.5 -6.5q-6 0 -14 2.5t-15 8.5t-12 15t-5 21l-2 1q-18 -20 -43 -34
t-50 -14q-33 0 -62 14t-51 38t-35 55t-13 65q0 44 14.5 84t40 70t61.5 48t80 18q37 0 67 -13t52 -43l9 47h92l-39 -209q-2 -12 -6 -27.5t-4 -27.5q0 -19 13 -19q15 0 31 8.5t29 26t21.5 45.5t8.5 67q0 57 -18.5 100.5t-52 73t-80.5 44.5t-104 15q-59 0 -107.5 -19.5t-83 -55
t-53.5 -85.5t-19 -111q0 -62 20 -111.5t56.5 -84.5t88 -54t115.5 -19q55 0 101.5 15t82.5 42h95q-53 -72 -125.5 -109t-161.5 -37zM386 242q44 0 71.5 29t27.5 72q0 35 -21 56t-57 21q-19 0 -36 -8t-30 -21.5t-20.5 -31.5t-7.5 -38q0 -33 19 -56t54 -23z" />
    <glyph glyph-name="A" unicode="A" horiz-adv-x="667" 
d="M331 702h2l370 -683l-173 -35l-70 147h-261l-69 -147l-165 35zM240 258h182l-91 168z" />
    <glyph glyph-name="B" unicode="B" 
d="M245 686q128 0 197.5 -45.5t69.5 -134.5q0 -51 -25 -89t-65 -55v-2q46 -18 78 -62t32 -107q0 -93 -66.5 -142t-177.5 -49h-239v686h196zM219 413h44q40 0 59.5 19.5t19.5 51.5q0 24 -15 42q-9 11 -26.5 18t-51.5 7h-30v-138zM219 135h34q48 0 71 10t30.5 26t7.5 34
q0 34 -20 53.5t-78 19.5h-45v-143z" />
    <glyph glyph-name="C" unicode="C" 
d="M516 497q-28 20 -59 34.5t-66 14.5q-43 0 -79.5 -14.5t-62.5 -41t-41 -63.5t-15 -82q0 -46 14.5 -83.5t40.5 -64.5t62.5 -42t80.5 -15q35 0 67.5 15.5t61.5 35.5l-21 -182q-10 -6 -26 -10.5t-33.5 -7.5t-34 -5t-26.5 -2q-78 0 -143.5 26t-113 73t-73.5 112.5t-26 145.5
q0 76 26 142t73 115t112.5 76.5t143.5 27.5q30 0 58 -5t54 -17z" />
    <glyph glyph-name="D" unicode="D" horiz-adv-x="667" 
d="M293 686q72 0 136 -26.5t111.5 -72.5t75 -109t27.5 -135q0 -75 -29 -138t-77 -108.5t-111 -71t-132 -25.5h-241v686h240zM223 145h51q40 0 76 15t63.5 42t43.5 63t16 78q0 39 -15 74.5t-41.5 63t-63 44t-78.5 16.5h-52v-396z" />
    <glyph glyph-name="E" unicode="E" horiz-adv-x="500" 
d="M441 686l30 -145h-248v-119h177v-145h-177v-132h269l-42 -145h-397v686h388z" />
    <glyph glyph-name="F" unicode="F" horiz-adv-x="444" 
d="M415 686l41 -156h-233v-147h169v-145h-169v-238l-170 -8v694h362z" />
    <glyph glyph-name="G" unicode="G" horiz-adv-x="722" 
d="M559 483q-33 30 -74.5 46.5t-86.5 16.5q-46 0 -83.5 -15.5t-64.5 -43t-42 -64.5t-15 -80q0 -46 16.5 -83.5t45.5 -64t69 -41t87 -14.5q32 0 59.5 7t38.5 18v99h-178l49 145h299v-355q-29 -17 -64.5 -30t-74 -22t-77 -13.5t-74.5 -4.5q-74 0 -140.5 27.5t-116.5 76
t-79.5 114t-29.5 141.5q0 75 29 140.5t79 114t116.5 76.5t141.5 28q49 0 91 -9.5t76 -23.5t60 -31t43 -32z" />
    <glyph glyph-name="H" unicode="H" horiz-adv-x="667" 
d="M223 436h220v250l170 16v-694l-170 -16v288h-220v-272l-170 -16v694l170 16v-266z" />
    <glyph glyph-name="I" unicode="I" horiz-adv-x="278" 
d="M224 8l-170 -16v694l170 16v-694z" />
    <glyph glyph-name="J" unicode="J" horiz-adv-x="389" 
d="M94 -16q-16 0 -32.5 1t-31.5 6l-41 170q17 -7 36 -9.5t38 -2.5q55 0 79 26.5t24 94.5v416l170 16v-465q0 -57 -16 -103.5t-46.5 -79.5t-76 -51.5t-103.5 -18.5z" />
    <glyph glyph-name="K" unicode="K" horiz-adv-x="611" 
d="M223 392h5l229 310l167 -45l-225 -298l233 -330l-179 -45l-225 341h-5v-317l-170 -16v694l170 16v-310z" />
    <glyph glyph-name="L" unicode="L" horiz-adv-x="444" 
d="M223 156h225l-45 -156h-350v686l170 16v-546z" />
    <glyph glyph-name="M" unicode="M" horiz-adv-x="778" 
d="M171 702h2l216 -420l223 420h2l182 -694l-171 -24l-59 330h-2l-180 -330h-2l-164 329h-2l-59 -329l-174 24z" />
    <glyph glyph-name="N" unicode="N" horiz-adv-x="722" 
d="M50 702h2l449 -384v368l170 16v-718h-2l-449 392v-368l-170 -16v710z" />
    <glyph glyph-name="O" unicode="O" horiz-adv-x="778" 
d="M389 -16q-74 0 -140.5 27.5t-116.5 76t-79.5 114t-29.5 141.5q0 74 29 139.5t78.5 114t116 77t142.5 28.5q74 0 140.5 -27.5t116.5 -76t79.5 -114t29.5 -141.5q0 -74 -29 -139.5t-78.5 -114.5t-116 -77t-142.5 -28zM389 140q40 0 76 17t62.5 45t42 65t15.5 76t-15.5 75.5
t-42 65t-62.5 45.5t-77 17q-40 0 -75.5 -17t-62 -45t-42 -64.5t-15.5 -76.5q0 -39 15.5 -76t42 -65t62 -45t76.5 -17z" />
    <glyph glyph-name="P" unicode="P" 
d="M262 686q138 0 206 -52t68 -168q0 -51 -20 -91t-54.5 -68.5t-81 -43.5t-98.5 -15h-62v-240l-170 -16v694h212zM220 393h50q45 0 70.5 19t25.5 55t-25.5 55t-70.5 19h-50v-148z" />
    <glyph glyph-name="Q" unicode="Q" horiz-adv-x="778" 
d="M755 343q0 -63 -20.5 -119t-58.5 -102l116 -109l-150 -63l-78 78q-40 -21 -83.5 -32.5t-91.5 -11.5q-74 0 -140.5 27.5t-116.5 76t-79.5 114t-29.5 141.5q0 74 29 139.5t78.5 114t116 77t142.5 28.5q74 0 140.5 -27.5t116.5 -76t79.5 -114t29.5 -141.5zM389 140
q14 0 26.5 2t27.5 7l-89 89l131 64l69 -65q31 51 31 106q0 39 -15.5 75.5t-42 65t-62.5 45.5t-77 17q-40 0 -75.5 -17t-62 -45t-42 -65t-15.5 -76t15.5 -76t42 -65t62 -45t76.5 -17z" />
    <glyph glyph-name="R" unicode="R" 
d="M234 686q131 0 202 -52t71 -160q0 -29 -8 -56.5t-23 -50.5t-35.5 -40.5t-44.5 -26.5l185 -261l-172 -55l-200 324h-2v-300l-170 -16v694h197zM207 349q5 -1 10 -1h10q20 0 40 4.5t35.5 16t25 31t9.5 49.5q0 36 -18.5 61t-68.5 30q-10 1 -20.5 1h-22.5v-192z" />
    <glyph glyph-name="S" unicode="S" 
d="M418 505q-32 29 -59 40.5t-53 11.5q-35 0 -60 -14t-25 -40q0 -16 8.5 -27.5t23.5 -20t35 -15.5t42 -14q33 -11 68.5 -24.5t64 -36.5t47 -59.5t18.5 -92.5q0 -59 -21.5 -102t-58 -71.5t-84 -42t-99.5 -13.5q-67 0 -128.5 20t-109.5 61l102 130q22 -26 56 -40.5t69 -14.5
q38 0 66 16t28 45q0 19 -12 31.5t-31.5 22t-45.5 17.5t-53 17q-30 10 -59.5 25t-53 38t-38 56.5t-14.5 81.5t20 87t54 66.5t79.5 43t96.5 15.5q60 0 117 -20.5t103 -58.5z" />
    <glyph glyph-name="T" unicode="T" horiz-adv-x="500" 
d="M500 686v-156h-165v-522l-170 -16v538h-176l43 156h468z" />
    <glyph glyph-name="U" unicode="U" horiz-adv-x="667" 
d="M219 270q0 -63 25.5 -96.5t81.5 -33.5q27 0 49 6.5t38.5 24t25.5 48.5t9 80v387l170 16v-467q0 -60 -23 -107t-63.5 -79t-94.5 -48.5t-116 -16.5q-133 0 -202.5 63.5t-69.5 175.5v463l170 16v-432z" />
    <glyph glyph-name="V" unicode="V" 
d="M145 702l132 -364h2l134 364l172 -33l-312 -685h-2l-299 685z" />
    <glyph glyph-name="W" unicode="W" horiz-adv-x="833" 
d="M146 702l98 -350l173 350l170 -355l104 355l165 -20l-245 -698h-4l-188 413l-202 -413h-3l-236 698z" />
    <glyph glyph-name="X" unicode="X" horiz-adv-x="611" 
d="M168 702l140 -212l138 212l162 -56l-203 -287l219 -319l-173 -56l-147 232l-154 -232l-163 60l219 312l-206 296z" />
    <glyph glyph-name="Y" unicode="Y" 
d="M129 702l175 -277l111 277l161 -50l-287 -668l-176 22l110 237l-253 394z" />
    <glyph glyph-name="Z" unicode="Z" horiz-adv-x="611" 
d="M596 686l-329 -530h339l-38 -156h-581l331 530h-286l33 156h531z" />
    <glyph glyph-name="bracketleft" unicode="[" horiz-adv-x="333" 
d="M252 747v-81h-81v-776h84v-81h-195v938h192z" />
    <glyph glyph-name="backslash" unicode="\" horiz-adv-x="278" 
d="M108 702l180 -718h-117l-181 718h118z" />
    <glyph glyph-name="bracketright" unicode="]" horiz-adv-x="333" 
d="M273 747v-938h-192v81h81v776h-84v81h195z" />
    <glyph glyph-name="asciicircum" unicode="^" horiz-adv-x="600" 
d="M353 686l174 -365h-117l-110 248l-111 -248h-116l174 365h106z" />
    <glyph glyph-name="underscore" unicode="_" horiz-adv-x="500" 
d="M500 -75v-50h-500v50h500z" />
    <glyph glyph-name="grave" unicode="`" horiz-adv-x="278" 
d="M135 742l98 -148h-121l-158 148h181z" />
    <glyph glyph-name="a" unicode="a" horiz-adv-x="500" 
d="M460 8l-136 -16v51h-2q-23 -35 -55.5 -47t-72.5 -12q-85 0 -132 49.5t-47 136.5q0 38 14.5 69.5t39.5 53.5t58.5 34t71.5 12q29 0 60 -10.5t56 -28.5l1 19q0 28 -7.5 44.5t-21.5 25t-33.5 11t-42.5 2.5q-26 0 -60 -7t-70 -24l22 138q30 11 69.5 17t71.5 6
q108 0 162 -46.5t54 -130.5v-347zM238 104q32 0 54.5 18t22.5 50t-23 49.5t-55 17.5q-31 0 -54 -17.5t-23 -49.5t23 -50t55 -18z" />
    <glyph glyph-name="b" unicode="b" horiz-adv-x="611" 
d="M193 480h2q22 28 59 40t75 12q57 0 105 -22.5t83 -61t54.5 -89t19.5 -106.5t-21 -105t-58 -85.5t-87 -57.5t-108 -21q-68 0 -120.5 20t-88 57t-53.5 88t-18 114v434l156 16v-233zM304 129q27 0 51 10t41.5 27.5t28 41t10.5 50.5q0 26 -10 49.5t-27.5 41t-41.5 28
t-53 10.5q-27 0 -51 -10t-42 -27.5t-28 -41t-10 -50.5t10.5 -50.5t28.5 -41t42 -27.5t51 -10z" />
    <glyph glyph-name="c" unicode="c" horiz-adv-x="500" 
d="M405 356q-21 18 -47.5 27t-53.5 9q-26 0 -49 -9.5t-40.5 -26t-28 -39t-10.5 -49.5q0 -31 9.5 -57.5t26.5 -45.5t41 -30t54 -11q28 0 52.5 8.5t46.5 28.5l85 -111q-11 -13 -31 -25t-45.5 -21t-54.5 -14.5t-57 -5.5q-63 0 -115 20.5t-89.5 56.5t-58 84.5t-20.5 103.5
q0 63 21 115t58.5 89.5t89.5 58t115 20.5q48 0 96 -16t86 -47z" />
    <glyph glyph-name="d" unicode="d" horiz-adv-x="611" 
d="M576 0l-146 -16v74h-2q-23 -42 -62 -58t-84 -16q-55 0 -102.5 21t-83 57t-56 84.5t-20.5 104.5q0 57 20 108t55 89.5t83 61t104 22.5q35 0 73.5 -13t64.5 -39v217l156 16v-713zM301 124q26 0 48.5 10.5t39.5 29t27 43t10 51.5t-9.5 51.5t-26.5 43t-40 29t-50 10.5
q-24 0 -46.5 -10.5t-40 -28.5t-27.5 -42.5t-10 -52.5t10 -52.5t27 -42.5t39.5 -28.5t48.5 -10.5z" />
    <glyph glyph-name="e" unicode="e" 
d="M216 161q14 -20 37.5 -28.5t46.5 -8.5q42 0 79.5 17t69.5 43l82 -120q-51 -35 -109 -57.5t-125 -22.5q-60 0 -110.5 23.5t-87.5 61t-58 85.5t-21 97q0 55 20.5 106t57 90t86 62t106.5 23q40 0 78.5 -11t72 -31.5t61 -50t45.5 -65.5zM360 381q-12 13 -30.5 17t-38.5 4
q-26 0 -48 -11t-38.5 -29t-25.5 -42.5t-9 -51.5v-14z" />
    <glyph glyph-name="f" unicode="f" horiz-adv-x="333" 
d="M374 584h-44q-42 0 -67 -14.5t-25 -60.5h91v-130h-91v-371l-156 -16v387h-83l31 130h52q0 104 58 158q32 29 80.5 44.5t115.5 15.5z" />
    <glyph glyph-name="g" unicode="g" 
d="M519 423l-49 -5l19 -32q8 -14 13 -35t5 -47q0 -45 -21.5 -81.5t-63.5 -58.5q48 -31 71 -66t23 -93q0 -45 -22 -80t-59 -59t-85 -37t-100 -13q-63 0 -123 22t-107 72l89 94q29 -28 61.5 -43t72.5 -15q48 0 82.5 21t34.5 62q0 40 -31.5 62t-82.5 22q-34 0 -62 -6t-60 -17
l12 48q-24 12 -44.5 29.5t-35 40t-23 47.5t-8.5 52q0 50 18 91.5t49.5 71t74.5 46t92 16.5q11 0 26.5 -2t32.5 -4t35 -3.5t35 -1.5q18 0 35.5 2.5t36.5 6.5t40.5 9.5t48.5 12.5zM266 213q19 0 36.5 7.5t30 20.5t20 30t7.5 37q0 19 -7.5 36.5t-20.5 30t-30.5 20t-36.5 7.5
q-18 0 -35 -7t-29.5 -19.5t-20.5 -30t-8 -37.5t7.5 -37t20 -30t29.5 -20.5t37 -7.5z" />
    <glyph glyph-name="h" unicode="h" 
d="M200 483q23 24 57.5 36.5t67.5 12.5q94 0 140.5 -54t46.5 -159v-311l-156 -16v314q0 40 -20 63t-58 23t-58 -23.5t-20 -63.5v-297l-156 -16v705l156 16v-230z" />
    <glyph glyph-name="i" unicode="i" horiz-adv-x="278" 
d="M125 741l115 -84l-100 -98l-113 82zM217 8l-156 -16v516l156 16v-516z" />
    <glyph glyph-name="j" unicode="j" horiz-adv-x="278" 
d="M125 741l115 -84l-100 -98l-113 82zM217 21q0 -59 -13 -98.5t-40 -63t-67.5 -33.5t-95.5 -10l-49 139h23q28 1 45 7t26 17.5t12 27t3 35.5v466l156 16v-503z" />
    <glyph glyph-name="k" unicode="k" 
d="M207 307h2l180 233l161 -49l-177 -209l203 -248l-176 -42l-191 251h-2v-235l-156 -16v705l156 16v-406z" />
    <glyph glyph-name="l" unicode="l" horiz-adv-x="278" 
d="M217 8l-156 -16v705l156 16v-705z" />
    <glyph glyph-name="m" unicode="m" horiz-adv-x="778" 
d="M182 450h2q13 37 44 59.5t73 22.5q36 0 67.5 -16.5t51.5 -45.5q25 31 61.5 46.5t75.5 15.5q92 0 136.5 -56.5t44.5 -180.5v-287l-156 -16v320q0 80 -57 80q-25 0 -41.5 -23.5t-16.5 -57.5v-303l-156 -16v320q0 34 -12.5 57t-44.5 23q-25 0 -41.5 -24t-16.5 -56v-304
l-156 -16v524l142 16v-82z" />
    <glyph glyph-name="n" unicode="n" 
d="M188 454h2q30 45 66 61.5t69 16.5q97 0 142 -55.5t45 -158.5v-310l-156 -16v314q0 40 -20.5 63t-57.5 23t-57.5 -23t-20.5 -63v-298l-156 -16v524l144 16v-78z" />
    <glyph glyph-name="o" unicode="o" horiz-adv-x="611" 
d="M592 258q0 -59 -23.5 -109.5t-63 -87t-91.5 -57t-109 -20.5q-58 0 -110 21t-91 58t-62 87t-23 108t23 108.5t62 87t91 57.5t110 21q59 0 111 -21t91 -58t62 -87t23 -108zM305 129q26 0 50 10t42 27.5t28.5 41t10.5 50.5q0 26 -10 49.5t-28 41t-42 28t-52 10.5
q-25 0 -48.5 -10t-41.5 -27t-28.5 -41t-10.5 -51q0 -26 10.5 -49.5t28 -41t41 -28t50.5 -10.5z" />
    <glyph glyph-name="p" unicode="p" horiz-adv-x="611" 
d="M179 438h2q21 44 64.5 69t91.5 25q55 0 101.5 -23t80.5 -62t53 -89.5t19 -105.5q0 -53 -21.5 -101.5t-57.5 -85.5t-83.5 -59t-99.5 -22q-54 0 -88 16.5t-50 42.5h-2v-211l-156 -16v700l146 16v-94zM308 124q26 0 49 11t40.5 29.5t27.5 42.5t10 51q0 25 -9.5 49.5
t-26.5 43t-40.5 30t-51.5 11.5q-26 0 -49 -11t-40 -30t-27 -43t-10 -50t9.5 -50t27 -43t40.5 -30t50 -11z" />
    <glyph glyph-name="q" unicode="q" horiz-adv-x="611" 
d="M436 444v72l143 16v-700l-156 -16v244h-2q-17 -37 -54.5 -56.5t-79.5 -19.5q-57 0 -106 20.5t-85 58t-56 89.5t-20 114q0 52 20 100.5t54.5 85t81.5 58.5t101 22q48 0 91.5 -21.5t65.5 -66.5h2zM301 124q26 0 48.5 10.5t39.5 29t27 43t10 51.5t-9.5 51.5t-26.5 43t-40 29
t-50 10.5q-24 0 -46.5 -10.5t-40 -28.5t-27.5 -42.5t-10 -52.5t10 -52.5t27 -42.5t39.5 -28.5t48.5 -10.5z" />
    <glyph glyph-name="r" unicode="r" horiz-adv-x="333" 
d="M306 376q-33 0 -54 -7.5t-32.5 -21.5t-15.5 -33.5t-4 -44.5v-261l-156 -16v516l138 16v-98h2q9 26 20.5 46t30 33.5t46 20t69.5 6.5z" />
    <glyph glyph-name="s" unicode="s" horiz-adv-x="444" 
d="M312 373q-17 13 -38 21t-44 8q-53 0 -53 -31q0 -25 24 -34t57 -16q26 -6 54 -13.5t51.5 -24.5t38.5 -46.5t15 -78.5q0 -40 -16 -72.5t-44 -55t-65 -34.5t-79 -12q-32 0 -58 3.5t-49.5 11.5t-46.5 21.5t-49 33.5l79 107q47 -47 113 -47q38 0 54 11t16 30q0 12 -8.5 19
t-22.5 12t-32 8.5t-38 8.5q-25 6 -49.5 15.5t-44.5 27.5t-32.5 46t-12.5 72q0 40 14.5 71.5t41 53t62 32.5t77.5 11q47 0 92 -20t79 -52z" />
    <glyph glyph-name="t" unicode="t" horiz-adv-x="389" 
d="M251 509h89v-130h-89v-182q0 -35 24.5 -49t58.5 -14q11 0 23.5 2t17.5 4l-45 -154q-8 -1 -14 -1.5t-11 -0.5q-106 0 -158 51t-52 148v196h-82l33 130h49v102l156 60v-162z" />
    <glyph glyph-name="u" unicode="u" 
d="M278 124q38 0 58 23t20 64v297l156 16v-516l-144 -16v78h-2q-18 -42 -54 -64t-81 -22q-94 0 -140.5 53.5t-46.5 159.5v311l156 16v-313q0 -42 20.5 -64.5t57.5 -22.5z" />
    <glyph glyph-name="v" unicode="v" horiz-adv-x="444" 
d="M124 532l97 -257l96 257l153 -24l-251 -524h-2l-242 523z" />
    <glyph glyph-name="w" unicode="w" horiz-adv-x="667" 
d="M335 532h5l117 -247l81 239l155 -26l-217 -514h-5l-134 272l-135 -272h-4l-224 514l154 26l85 -242z" />
    <glyph glyph-name="x" unicode="x" horiz-adv-x="500" 
d="M166 532l91 -152l97 152l147 -44l-159 -222l159 -240l-155 -42l-95 159l-103 -159l-149 52l167 232l-155 232z" />
    <glyph glyph-name="y" unicode="y" horiz-adv-x="500" 
d="M125 532l125 -306l124 306l150 -38l-303 -678l-163 16l111 223l-196 440l148 36z" />
    <glyph glyph-name="z" unicode="z" horiz-adv-x="500" 
d="M479 516l-227 -376h234l-38 -140h-443l235 386h-195l31 130h403z" />
    <glyph glyph-name="braceleft" unicode="{" horiz-adv-x="333" 
d="M301 747v-81h-22q-65 0 -65 -71v-217q0 -36 -25.5 -63t-78.5 -31v-3q57 -3 80.5 -31t23.5 -74v-214q0 -35 11.5 -53t45.5 -19h30v-81h-69q-19 0 -41.5 9t-42 26.5t-32.5 42.5t-13 58v229q0 31 -28.5 49.5t-73.5 18.5v81q45 0 73.5 16t28.5 43v230q0 31 13 56.5t32 42.5
t41.5 26.5t41.5 9.5h70z" />
    <glyph glyph-name="bar" unicode="|" horiz-adv-x="222" 
d="M172 750v-1000h-122v1000h122z" />
    <glyph glyph-name="braceright" unicode="}" horiz-adv-x="333" 
d="M102 747q19 0 41.5 -9.5t41.5 -26.5t32 -42.5t13 -56.5v-230q0 -27 28.5 -43t73.5 -16v-81q-45 0 -73.5 -18.5t-28.5 -49.5v-229q0 -33 -13 -58t-32.5 -42.5t-42 -26.5t-41.5 -9h-69v81h30q34 1 45.5 19t11.5 53v214q0 46 23.5 74t80.5 31v3q-53 4 -78.5 31t-25.5 63v217
q0 71 -65 71h-22v81h70z" />
    <glyph glyph-name="asciitilde" unicode="~" horiz-adv-x="600" 
d="M531 255q-32 -48 -61 -67t-64 -19q-24 0 -49 8.5t-55 25.5q-62 34 -112 34q-28 0 -48 -18t-37 -54l-36 96q22 42 52.5 64t73.5 22q26 0 54.5 -10.5t56.5 -22.5q30 -13 55.5 -24t45.5 -11q9 0 18.5 2.5t20 10.5t22.5 22t27 37z" />
    <glyph glyph-name="uni00A0" unicode="&#xa0;" horiz-adv-x="278" 
 />
    <glyph glyph-name="exclamdown" unicode="&#xa1;" horiz-adv-x="333" 
d="M167 542l107 -105l-107 -105l-107 105zM241 309l14 -470l-177 -24l18 478z" />
    <glyph glyph-name="cent" unicode="&#xa2;" 
d="M354 571q33 -6 60 -17t51 -29l-73 -107q-19 13 -37.5 18.5t-41.5 5.5q-36 0 -62.5 -25t-26.5 -61q0 -48 25.5 -71.5t71.5 -23.5q18 0 35 6t32 15l76 -104q-25 -19 -52.5 -29t-60.5 -15v-132l-86 -10v140q-40 5 -74 24t-59 48.5t-39 67t-14 78.5q0 85 49 144.5t137 75.5
v114l89 18v-131z" />
    <glyph glyph-name="sterling" unicode="&#xa3;" 
d="M348 490q-14 44 -31.5 58t-41.5 14q-47 0 -56 -55q-2 -10 -2 -20.5v-23.5v-32h92v-130h-92v-161h80q19 0 37.5 3.5t33 18t24.5 42.5t12 77l156 -25q-2 -65 -17.5 -113t-49 -80t-86.5 -47.5t-131 -15.5h-270v140h55v161h-53l28 130h24q0 6 -0.5 12t-0.5 12q0 49 12.5 94
t39.5 79t69 54t101 20q81 0 134.5 -46.5t76.5 -124.5z" />
    <glyph glyph-name="currency" unicode="&#xa4;" 
d="M539 546l-56 -56q20 -21 29.5 -59t9.5 -80t-10 -79.5t-31 -63.5l56 -56l-60 -60l-58 58q-24 -23 -61.5 -35.5t-78.5 -12.5q-43 0 -80.5 11.5t-63.5 34.5l-57 -57l-61 61l58 58q-22 25 -32.5 61t-10.5 78t10 80t33 61l-58 58l63 63l57 -57q23 20 62 32t81 12
q39 0 75.5 -11.5t57.5 -30.5l58 58zM279 217q29 0 52.5 10.5t40.5 29t26 43t9 51.5t-9.5 51t-26 42t-40.5 28.5t-52 10.5t-52 -10t-42 -28t-28 -42t-10 -52q0 -30 10 -54.5t27.5 -42.5t41.5 -27.5t53 -9.5z" />
    <glyph glyph-name="yen" unicode="&#xa5;" 
d="M129 702l165 -277l121 277l141 -50l-87 -179h70v-100h-116l-24 -49h120v-100h-147v-224l-161 -16v240h-165v100h131l-29 49h-122v100h62l-98 164z" />
    <glyph glyph-name="brokenbar" unicode="&#xa6;" horiz-adv-x="222" 
d="M172 675v-350h-122v350h122zM172 175v-350h-122v350h122z" />
    <glyph glyph-name="section" unicode="&#xa7;" 
d="M373 513q-32 71 -79 71q-15 0 -29.5 -9.5t-14.5 -27.5q0 -15 10.5 -29t28.5 -29t41 -31t47 -33q27 -19 53.5 -40.5t47 -46.5t33.5 -54t13 -63q0 -51 -32 -85.5t-83 -38.5q26 -26 38.5 -51.5t12.5 -61.5q0 -38 -14 -67t-39 -48.5t-60.5 -30t-78.5 -10.5q-29 0 -58 7
t-56 21t-49.5 35t-38.5 48l113 82q17 -39 38.5 -57t45.5 -18q18 0 32.5 8.5t14.5 27.5q0 17 -13.5 33.5t-35.5 33.5t-49.5 35t-55.5 39q-24 18 -46.5 38.5t-40 44t-28 50.5t-10.5 58q0 54 33 86.5t85 39.5q-21 20 -35 50t-14 59q0 34 13 62t36.5 48t56.5 31.5t73 11.5
q66 0 120 -27.5t90 -84.5zM342 175q14 0 28 8t14 24q0 20 -22 45.5t-51 49.5q-15 12 -31 23t-30.5 19.5t-26.5 13t-19 4.5q-14 0 -23.5 -11.5t-9.5 -27.5q0 -17 24 -42.5t55 -49.5q15 -12 29.5 -22t27 -17.5t22 -12t13.5 -4.5z" />
    <glyph glyph-name="dieresis" unicode="&#xa8;" horiz-adv-x="278" 
d="M125 668l-83 -85l-85 85l83 84zM322 668l-83 -85l-85 85l83 84z" />
    <glyph glyph-name="copyright" unicode="&#xa9;" horiz-adv-x="800" 
d="M772 344q0 -82 -29 -148.5t-79.5 -113.5t-118.5 -72.5t-145 -25.5t-145 25.5t-118.5 72.5t-80 113.5t-29.5 147.5q0 82 29.5 148t80 113t118.5 72.5t145 25.5q78 0 145.5 -26t118 -73t79.5 -113t29 -146zM400 73q53 0 99 20t80.5 56t54 85.5t19.5 108.5t-19.5 108.5
t-54 85.5t-81 56t-99.5 20q-54 0 -100.5 -20.5t-80 -56.5t-53 -85.5t-19.5 -107.5q0 -59 19.5 -108.5t53.5 -85.5t80.5 -56t100.5 -20zM495 405q-6 33 -29.5 46t-52.5 13q-43 0 -66.5 -30.5t-23.5 -85.5q0 -51 24.5 -85t66.5 -34q33 0 56 14.5t25 46.5h91q-9 -69 -56 -109.5
t-116 -40.5q-44 0 -80 15t-62.5 42.5t-41 65.5t-14.5 83q0 46 14 84t40 65.5t62.5 42.5t80.5 15q65 0 111.5 -37.5t57.5 -110.5h-87z" />
    <glyph glyph-name="ordfeminine" unicode="&#xaa;" horiz-adv-x="300" 
d="M293 388l-88 -10v29l-2 2q-14 -21 -35.5 -28.5t-47.5 -7.5q-57 0 -86.5 31.5t-29.5 80.5q0 22 9 41t25 32t38 20.5t47 7.5q20 0 39.5 -6t36.5 -17v7q0 32 -14 43t-51 11q-22 0 -44.5 -5t-42.5 -13l14 82q20 7 45.5 10.5t46.5 3.5q67 0 103.5 -27t36.5 -80v-207zM149 445
q20 0 35 10.5t15 30.5q0 19 -15 29.5t-36 10.5q-20 0 -35 -10.5t-15 -29.5q0 -20 15.5 -30.5t35.5 -10.5z" />
    <glyph glyph-name="guillemotleft" unicode="&#xab;" 
d="M285 427l-114 -169l118 -169h-129l-116 169l112 169h129zM508 427l-114 -169l118 -169h-129l-116 169l112 169h129z" />
    <glyph glyph-name="logicalnot" unicode="&#xac;" horiz-adv-x="600" 
d="M558 433v-350h-122v228h-394v122h516z" />
    <glyph glyph-name="uni00AD" unicode="&#xad;" horiz-adv-x="333" 
d="M296 326v-136h-259v136h259z" />
    <glyph glyph-name="registered" unicode="&#xae;" horiz-adv-x="800" 
d="M772 344q0 -81 -29 -147.5t-79.5 -114t-118.5 -73t-146 -25.5q-77 0 -145 25.5t-118.5 73t-79.5 113.5t-29 147t29 147.5t79.5 113.5t118.5 72.5t145 25.5q79 0 147 -26t118 -73.5t79 -113.5t29 -145zM400 73q54 0 100.5 20.5t80 56.5t53 85.5t19.5 107.5
q0 59 -19.5 108.5t-54 85.5t-81 56t-99.5 20q-54 0 -100.5 -20.5t-80.5 -56.5t-53 -85.5t-19 -107.5q0 -59 19.5 -108.5t53.5 -85.5t80.5 -56t100.5 -20zM404 538q81 0 119.5 -27.5t38.5 -91.5q0 -54 -28.5 -77t-80.5 -25l99 -168h-89l-88 162h-33v-162h-89v389h151z
M419 381q23 0 36.5 9.5t13.5 38.5q0 13 -6.5 21t-17 12t-23.5 5t-26 1h-54v-87h77z" />
    <glyph glyph-name="macron" unicode="&#xaf;" horiz-adv-x="278" 
d="M321 707v-85h-363v85h363z" />
    <glyph glyph-name="degree" unicode="&#xb0;" horiz-adv-x="400" 
d="M343 560q0 -29 -11 -55t-30 -45.5t-45 -31t-57 -11.5q-30 0 -56 11t-45.5 30.5t-30.5 45.5t-11 56t11 56t30.5 45t45.5 30t56 11t56 -11t45.5 -30t30.5 -45t11 -56zM200 476q16 0 31.5 7t27 19t18.5 27t7 31q0 15 -6.5 30t-18 26.5t-27 19t-33.5 7.5q-15 0 -29.5 -6.5
t-26.5 -18t-19.5 -26.5t-7.5 -32t7 -32t19 -26.5t27 -18.5t31 -7z" />
    <glyph glyph-name="plusminus" unicode="&#xb1;" horiz-adv-x="600" 
d="M361 516v-121h197v-122h-197v-121h-122v121h-197v122h197v121h122zM558 122v-122h-516v122h516z" />
    <glyph glyph-name="twosuperior" unicode="&#xb2;" horiz-adv-x="333" 
d="M335 568q0 -48 -34 -98q-16 -23 -38.5 -47.5t-45.5 -50.5h137l-24 -92h-314q48 56 85.5 97.5t66.5 75.5q9 11 20 23.5t20 26.5t15.5 29t6.5 31q0 22 -17.5 34.5t-41.5 12.5q-21 0 -37 -12.5t-16 -32.5q0 -35 38 -51l-61 -75q-37 20 -59.5 50t-22.5 69q0 67 45 105.5
t119 38.5q72 0 115 -37.5t43 -96.5z" />
    <glyph glyph-name="threesuperior" unicode="&#xb3;" horiz-adv-x="333" 
d="M318 582q0 -27 -11 -46t-33 -36q29 -14 46 -40t17 -57t-13.5 -55t-36.5 -40.5t-55.5 -25t-69.5 -8.5q-43 0 -84 17t-70 46l74 69q17 -21 35.5 -30t44.5 -9q24 0 43 11t19 36q0 18 -13 30t-53 12h-42v72h18q47 0 63 10.5t16 32.5q0 25 -16.5 36t-39.5 11t-38 -11t-31 -24
l-78 41q28 39 70.5 58.5t91.5 19.5q31 0 57.5 -8.5t46 -24t31 -38t11.5 -49.5z" />
    <glyph glyph-name="acute" unicode="&#xb4;" horiz-adv-x="278" 
d="M324 742l-158 -148h-121l97 148h182z" />
    <glyph glyph-name="mu" unicode="&#xb5;" 
d="M200 211q0 -41 20 -64t58 -23t58 23.5t20 63.5v297l156 16v-516l-144 -16v78h-2q-17 -42 -53.5 -64t-81.5 -22q-18 0 -31 3v-155l-156 -16v692l156 16v-313z" />
    <glyph glyph-name="paragraph" unicode="&#xb6;" horiz-adv-x="620" 
d="M573 686v-870h-120v780h-97v-780h-120v521q-108 0 -165.5 44.5t-57.5 126.5q0 91 57.5 134.5t182.5 43.5h320z" />
    <glyph glyph-name="periodcentered" unicode="&#xb7;" horiz-adv-x="278" 
d="M227 259q0 -37 -25 -63t-63 -26q-37 0 -62.5 25.5t-25.5 63.5q0 18 7 34t19 27.5t28 18.5t34 7t34 -7t28 -19t19 -27.5t7 -33.5z" />
    <glyph glyph-name="cedilla" unicode="&#xb8;" horiz-adv-x="278" 
d="M117 0h55l-40 -62q20 5 31 5q17 0 34.5 -5t31 -14t22 -22.5t8.5 -30.5q0 -48 -34 -73.5t-88 -25.5q-65 0 -124 25l19 45q20 -7 40.5 -12.5t41.5 -5.5q20 0 35.5 7.5t15.5 24.5q0 21 -13 30.5t-33 9.5q-10 0 -19 -2.5t-18 -4.5l-22 19z" />
    <glyph glyph-name="onesuperior" unicode="&#xb9;" horiz-adv-x="333" 
d="M254 280l-105 -6v278l-76 -33l-37 59l218 124v-422z" />
    <glyph glyph-name="ordmasculine" unicode="&#xba;" horiz-adv-x="367" 
d="M369 538q0 -35 -15 -65.5t-40.5 -52.5t-59 -34.5t-70.5 -12.5q-38 0 -71.5 13t-59 35t-40.5 52t-15 65q0 34 15 64t40.5 52.5t59 35t71.5 12.5t71.5 -13t59 -35.5t40 -52t14.5 -63.5zM184 460q34 0 59 22.5t25 55.5q0 30 -23.5 53.5t-61.5 23.5q-18 0 -33 -6.5t-26.5 -17
t-18 -24.5t-6.5 -29q0 -33 25 -55.5t60 -22.5z" />
    <glyph glyph-name="guillemotright" unicode="&#xbb;" 
d="M173 427l116 -169l-112 -169h-129l114 169l-118 169h129zM396 427l116 -169l-112 -169h-129l114 169l-118 169h129z" />
    <glyph glyph-name="onequarter" unicode="&#xbc;" horiz-adv-x="834" 
d="M761 416v-232h49l-16 -84h-33v-97l-110 -9v106h-189l142 316h157zM649 325l-62 -141h69v141h-7zM254 280l-105 -6v278l-76 -33l-37 59l218 124v-422zM663 702l-420 -718h-81l420 718h81z" />
    <glyph glyph-name="onehalf" unicode="&#xbd;" horiz-adv-x="834" 
d="M254 280l-105 -6v278l-76 -33l-37 59l218 124v-422zM639 702l-420 -718h-81l420 718h81zM790 289q0 -48 -34 -98q-16 -23 -38.5 -47.5t-45.5 -50.5h137l-24 -92h-314q48 56 85.5 97.5t66.5 75.5q9 11 20 23.5t20 26.5t15.5 29t6.5 31q0 22 -17.5 34.5t-41.5 12.5
q-21 0 -37 -12.5t-16 -32.5q0 -35 38 -51l-61 -75q-37 20 -59.5 50t-22.5 69q0 67 45 105.5t119 38.5q72 0 115 -37.5t43 -96.5z" />
    <glyph glyph-name="threequarters" unicode="&#xbe;" horiz-adv-x="834" 
d="M761 416v-232h61l-16 -84h-45v-100h-110v100h-189l142 316h157zM649 325l-62 -141h69v141h-7zM335 582q0 -27 -11 -46t-33 -36q29 -14 46 -40t17 -57t-13.5 -55t-36.5 -40.5t-55.5 -25t-69.5 -8.5q-43 0 -84 17t-70 46l74 69q17 -21 35.5 -30t44.5 -9q24 0 43 11t19 36
q0 18 -13 30t-53 12h-42v72h18q47 0 63 10.5t16 32.5q0 25 -16.5 36t-39.5 11t-38 -11t-31 -24l-78 41q28 39 70.5 58.5t91.5 19.5q31 0 57.5 -8.5t46 -24t31 -38t11.5 -49.5zM695 702l-420 -718h-81l420 718h81z" />
    <glyph glyph-name="questiondown" unicode="&#xbf;" horiz-adv-x="500" 
d="M244 542l107 -105l-107 -105l-107 105zM329 249q0 -34 -3.5 -60t-15.5 -47q-9 -17 -23.5 -30.5t-38.5 -27.5q-29 -17 -39.5 -32t-10.5 -35q0 -23 21.5 -40t48.5 -17q28 0 49 14.5t36 37.5l120 -81q-37 -57 -96.5 -86.5t-126.5 -29.5q-45 0 -85.5 14.5t-71 40.5t-48 62
t-17.5 79q0 47 16.5 84.5t66.5 72.5q21 15 34 25.5t20 20t9.5 20.5t2.5 28v26l152 16v-55z" />
    <glyph glyph-name="Agrave" unicode="&#xc0;" horiz-adv-x="667" 
d="M331 702h2l370 -683l-173 -35l-70 147h-261l-69 -147l-165 35zM240 258h182l-91 168zM330 883l98 -148h-121l-158 148h181z" />
    <glyph glyph-name="Aacute" unicode="&#xc1;" horiz-adv-x="667" 
d="M331 702h2l370 -683l-173 -35l-70 147h-261l-69 -147l-165 35zM240 258h182l-91 168zM519 883l-158 -148h-121l97 148h182z" />
    <glyph glyph-name="Acircumflex" unicode="&#xc2;" horiz-adv-x="667" 
d="M331 702h2l370 -683l-173 -35l-70 147h-261l-69 -147l-165 35zM240 258h182l-91 168zM410 883l113 -148h-129l-60 80l-60 -80h-128l112 148h152z" />
    <glyph glyph-name="Atilde" unicode="&#xc3;" horiz-adv-x="667" 
d="M331 702h2l370 -683l-173 -35l-70 147h-261l-69 -147l-165 35zM240 258h182l-91 168zM413 831q17 0 26.5 13t13.5 27h71q-6 -36 -17 -60.5t-27 -39.5t-37 -21t-45 -6q-17 0 -33.5 5t-33.5 11q-20 8 -38 14t-33 6q-17 0 -29.5 -13t-14.5 -30h-71q3 27 13 51.5t26 42.5
t37 29t46 11q20 0 42.5 -7.5t44.5 -15.5q18 -7 33 -12t26 -5z" />
    <glyph glyph-name="Adieresis" unicode="&#xc4;" horiz-adv-x="667" 
d="M331 702h2l370 -683l-173 -35l-70 147h-261l-69 -147l-165 35zM240 258h182l-91 168zM320 809l-83 -85l-85 85l83 84zM517 809l-83 -85l-85 85l83 84z" />
    <glyph glyph-name="Aring" unicode="&#xc5;" horiz-adv-x="667" 
d="M331 702h2l370 -683l-173 -35l-70 147h-261l-69 -147l-165 35zM240 258h182l-91 168zM334 735q-23 0 -43 8.5t-34.5 23t-22.5 34t-8 41.5t8.5 41.5t23 34.5t34 23.5t42.5 8.5t42.5 -9t34 -24t22.5 -34.5t8 -40.5q0 -23 -8.5 -42.5t-23 -34t-34 -22.5t-41.5 -8zM334 794
q20 0 34 14t14 34t-14.5 34.5t-34.5 14.5t-34 -14.5t-14 -34.5q0 -21 14.5 -34.5t34.5 -13.5z" />
    <glyph glyph-name="AE" unicode="&#xc6;" horiz-adv-x="944" 
d="M882 686l29 -145h-256v-119h186v-145h-186v-132h281l-40 -145h-411v210h-217l-139 -226l-178 44l423 658h508zM353 355h132v210h-2z" />
    <glyph glyph-name="Ccedilla" unicode="&#xc7;" 
d="M516 497q-28 20 -59 34.5t-66 14.5q-43 0 -79.5 -14.5t-62.5 -41t-41 -63.5t-15 -82q0 -46 14.5 -83.5t40.5 -64.5t62.5 -42t80.5 -15q35 0 67.5 15.5t61.5 35.5l-21 -182q-11 -6 -26 -10.5t-31.5 -7.5t-32 -4.5t-25.5 -1.5l-30 -47q9 3 17 4t15 1q18 0 35 -5t30.5 -14.5
t21.5 -23t8 -29.5q0 -48 -34 -73.5t-88 -25.5q-65 0 -124 25l19 45q6 -2 15.5 -5t20.5 -6t22.5 -5t21.5 -2q20 0 36.5 7t16.5 25q0 21 -13 30.5t-33 9.5q-10 0 -19 -2.5t-18 -4.5l-22 19l49 79q-70 8 -127 37t-97 75.5t-62 108t-22 133.5q0 76 26 142t73 115t112.5 76.5
t143.5 27.5q30 0 58 -5t54 -17z" />
    <glyph glyph-name="Egrave" unicode="&#xc8;" horiz-adv-x="500" 
d="M441 686l30 -145h-248v-119h177v-145h-177v-132h269l-42 -145h-397v686h388zM246 883l98 -148h-121l-158 148h181z" />
    <glyph glyph-name="Eacute" unicode="&#xc9;" horiz-adv-x="500" 
d="M441 686l30 -145h-248v-119h177v-145h-177v-132h269l-42 -145h-397v686h388zM435 883l-158 -148h-121l97 148h182z" />
    <glyph glyph-name="Ecircumflex" unicode="&#xca;" horiz-adv-x="500" 
d="M441 686l30 -145h-248v-119h177v-145h-177v-132h269l-42 -145h-397v686h388zM326 883l113 -148h-129l-60 80l-60 -80h-128l112 148h152z" />
    <glyph glyph-name="Edieresis" unicode="&#xcb;" horiz-adv-x="500" 
d="M441 686l30 -145h-248v-119h177v-145h-177v-132h269l-42 -145h-397v686h388zM236 809l-83 -85l-85 85l83 84zM433 809l-83 -85l-85 85l83 84z" />
    <glyph glyph-name="Igrave" unicode="&#xcc;" horiz-adv-x="278" 
d="M224 8l-170 -16v694l170 16v-694zM135 883l98 -148h-121l-158 148h181z" />
    <glyph glyph-name="Iacute" unicode="&#xcd;" horiz-adv-x="278" 
d="M224 8l-170 -16v694l170 16v-694zM324 883l-158 -148h-121l97 148h182z" />
    <glyph glyph-name="Icircumflex" unicode="&#xce;" horiz-adv-x="278" 
d="M224 8l-170 -16v694l170 16v-694zM215 883l113 -148h-129l-60 80l-60 -80h-128l112 148h152z" />
    <glyph glyph-name="Idieresis" unicode="&#xcf;" horiz-adv-x="278" 
d="M224 8l-170 -16v694l170 16v-694zM125 809l-83 -85l-85 85l83 84zM322 809l-83 -85l-85 85l83 84z" />
    <glyph glyph-name="Eth" unicode="&#xd0;" horiz-adv-x="667" 
d="M292 686q72 0 136 -26t111.5 -72t75.5 -109t28 -136q0 -74 -28 -137t-76 -108.5t-112 -71.5t-135 -26h-239v280h-49v156h49v250h239zM345 436v-156h-122v-135h52q42 0 78 16t62.5 43.5t42 63.5t15.5 75q0 40 -15.5 76t-42.5 63t-62 43t-74 16h-56v-105h122z" />
    <glyph glyph-name="Ntilde" unicode="&#xd1;" horiz-adv-x="722" 
d="M50 702h2l449 -384v368l170 16v-718h-2l-449 392v-368l-170 -16v710zM440 831q17 0 26.5 13t13.5 27h71q-6 -36 -17 -60.5t-27 -39.5t-37 -21t-45 -6q-17 0 -33.5 5t-33.5 11q-20 8 -38 14t-33 6q-17 0 -29.5 -13t-14.5 -30h-71q3 27 13 51.5t26 42.5t37 29t46 11
q20 0 42.5 -7.5t44.5 -15.5q18 -7 33 -12t26 -5z" />
    <glyph glyph-name="Ograve" unicode="&#xd2;" horiz-adv-x="778" 
d="M389 -16q-74 0 -140.5 27.5t-116.5 76t-79.5 114t-29.5 141.5q0 74 29 139.5t78.5 114t116 77t142.5 28.5q74 0 140.5 -27.5t116.5 -76t79.5 -114t29.5 -141.5q0 -74 -29 -139.5t-78.5 -114.5t-116 -77t-142.5 -28zM389 140q40 0 76 17t62.5 45t42 65t15.5 76t-15.5 75.5
t-42 65t-62.5 45.5t-77 17q-40 0 -75.5 -17t-62 -45t-42 -64.5t-15.5 -76.5q0 -39 15.5 -76t42 -65t62 -45t76.5 -17zM385 883l98 -148h-121l-158 148h181z" />
    <glyph glyph-name="Oacute" unicode="&#xd3;" horiz-adv-x="778" 
d="M389 -16q-74 0 -140.5 27.5t-116.5 76t-79.5 114t-29.5 141.5q0 74 29 139.5t78.5 114t116 77t142.5 28.5q74 0 140.5 -27.5t116.5 -76t79.5 -114t29.5 -141.5q0 -74 -29 -139.5t-78.5 -114.5t-116 -77t-142.5 -28zM389 140q40 0 76 17t62.5 45t42 65t15.5 76t-15.5 75.5
t-42 65t-62.5 45.5t-77 17q-40 0 -75.5 -17t-62 -45t-42 -64.5t-15.5 -76.5q0 -39 15.5 -76t42 -65t62 -45t76.5 -17zM574 883l-158 -148h-121l97 148h182z" />
    <glyph glyph-name="Ocircumflex" unicode="&#xd4;" horiz-adv-x="778" 
d="M389 -16q-74 0 -140.5 27.5t-116.5 76t-79.5 114t-29.5 141.5q0 74 29 139.5t78.5 114t116 77t142.5 28.5q74 0 140.5 -27.5t116.5 -76t79.5 -114t29.5 -141.5q0 -74 -29 -139.5t-78.5 -114.5t-116 -77t-142.5 -28zM389 140q40 0 76 17t62.5 45t42 65t15.5 76t-15.5 75.5
t-42 65t-62.5 45.5t-77 17q-40 0 -75.5 -17t-62 -45t-42 -64.5t-15.5 -76.5q0 -39 15.5 -76t42 -65t62 -45t76.5 -17zM465 883l113 -148h-129l-60 80l-60 -80h-128l112 148h152z" />
    <glyph glyph-name="Otilde" unicode="&#xd5;" horiz-adv-x="778" 
d="M389 -16q-74 0 -140.5 27.5t-116.5 76t-79.5 114t-29.5 141.5q0 74 29 139.5t78.5 114t116 77t142.5 28.5q74 0 140.5 -27.5t116.5 -76t79.5 -114t29.5 -141.5q0 -74 -29 -139.5t-78.5 -114.5t-116 -77t-142.5 -28zM389 140q40 0 76 17t62.5 45t42 65t15.5 76t-15.5 75.5
t-42 65t-62.5 45.5t-77 17q-40 0 -75.5 -17t-62 -45t-42 -64.5t-15.5 -76.5q0 -39 15.5 -76t42 -65t62 -45t76.5 -17zM468 831q17 0 26.5 13t13.5 27h71q-6 -36 -17 -60.5t-27 -39.5t-37 -21t-45 -6q-17 0 -33.5 5t-33.5 11q-20 8 -38 14t-33 6q-17 0 -29.5 -13t-14.5 -30
h-71q3 27 13 51.5t26 42.5t37 29t46 11q20 0 42.5 -7.5t44.5 -15.5q18 -7 33 -12t26 -5z" />
    <glyph glyph-name="Odieresis" unicode="&#xd6;" horiz-adv-x="778" 
d="M389 -16q-74 0 -140.5 27.5t-116.5 76t-79.5 114t-29.5 141.5q0 74 29 139.5t78.5 114t116 77t142.5 28.5q74 0 140.5 -27.5t116.5 -76t79.5 -114t29.5 -141.5q0 -74 -29 -139.5t-78.5 -114.5t-116 -77t-142.5 -28zM389 140q40 0 76 17t62.5 45t42 65t15.5 76t-15.5 75.5
t-42 65t-62.5 45.5t-77 17q-40 0 -75.5 -17t-62 -45t-42 -64.5t-15.5 -76.5q0 -39 15.5 -76t42 -65t62 -45t76.5 -17zM375 809l-83 -85l-85 85l83 84zM572 809l-83 -85l-85 85l83 84z" />
    <glyph glyph-name="multiply" unicode="&#xd7;" horiz-adv-x="600" 
d="M300 340l176 176l82 -82l-176 -176l176 -176l-82 -82l-176 176l-176 -176l-82 82l176 176l-176 176l82 82z" />
    <glyph glyph-name="Oslash" unicode="&#xd8;" horiz-adv-x="778" 
d="M622 775l80 -31l-81 -123q61 -51 97.5 -122t36.5 -156q0 -74 -29 -139.5t-78.5 -114.5t-116 -77t-142.5 -28q-86 0 -163 40l-77 -116l-79 36l83 125q-60 50 -95 120.5t-35 153.5q0 75 29 140t78.5 114t116.5 77t142 28q85 0 160 -37zM460 531q-32 15 -72 15t-75.5 -17
t-62 -45t-42 -65t-15.5 -76q0 -38 14 -72.5t39 -62.5zM314 157q37 -17 75 -17q40 0 76 17t62.5 45t42 65t15.5 76t-15 75t-41 64z" />
    <glyph glyph-name="Ugrave" unicode="&#xd9;" horiz-adv-x="667" 
d="M219 270q0 -63 25.5 -96.5t81.5 -33.5q27 0 49 6.5t38.5 24t25.5 48.5t9 80v387l170 16v-467q0 -60 -23 -107t-63.5 -79t-94.5 -48.5t-116 -16.5q-133 0 -202.5 63.5t-69.5 175.5v463l170 16v-432zM330 883l98 -148h-121l-158 148h181z" />
    <glyph glyph-name="Uacute" unicode="&#xda;" horiz-adv-x="667" 
d="M219 270q0 -63 25.5 -96.5t81.5 -33.5q27 0 49 6.5t38.5 24t25.5 48.5t9 80v387l170 16v-467q0 -60 -23 -107t-63.5 -79t-94.5 -48.5t-116 -16.5q-133 0 -202.5 63.5t-69.5 175.5v463l170 16v-432zM519 883l-158 -148h-121l97 148h182z" />
    <glyph glyph-name="Ucircumflex" unicode="&#xdb;" horiz-adv-x="667" 
d="M219 270q0 -63 25.5 -96.5t81.5 -33.5q27 0 49 6.5t38.5 24t25.5 48.5t9 80v387l170 16v-467q0 -60 -23 -107t-63.5 -79t-94.5 -48.5t-116 -16.5q-133 0 -202.5 63.5t-69.5 175.5v463l170 16v-432zM410 883l113 -148h-129l-60 80l-60 -80h-128l112 148h152z" />
    <glyph glyph-name="Udieresis" unicode="&#xdc;" horiz-adv-x="667" 
d="M219 270q0 -63 25.5 -96.5t81.5 -33.5q27 0 49 6.5t38.5 24t25.5 48.5t9 80v387l170 16v-467q0 -60 -23 -107t-63.5 -79t-94.5 -48.5t-116 -16.5q-133 0 -202.5 63.5t-69.5 175.5v463l170 16v-432zM320 809l-83 -85l-85 85l83 84zM517 809l-83 -85l-85 85l83 84z" />
    <glyph glyph-name="Yacute" unicode="&#xdd;" 
d="M129 702l175 -277l111 277l161 -50l-287 -668l-176 22l110 237l-253 394zM505 883l-158 -148h-121l97 148h182z" />
    <glyph glyph-name="Thorn" unicode="&#xde;" 
d="M220 601h35q145 0 211 -54t66 -165q0 -47 -19.5 -87t-54 -69.5t-82.5 -46t-104 -16.5h-52v-155l-170 -16v694l170 16v-101zM220 308h49q93 0 93 74t-92 74h-50v-148z" />
    <glyph glyph-name="germandbls" unicode="&#xdf;" horiz-adv-x="667" 
d="M579 523q0 -30 -9 -53.5t-20.5 -40t-20.5 -26t-9 -10.5q36 -23 59 -44t37 -43.5t19.5 -46.5t5.5 -52q0 -51 -17.5 -92.5t-49 -70.5t-75 -44.5t-94.5 -15.5q-42 0 -82.5 11.5t-71.5 42.5v-76l-144 -47v398h-88l34 130h54q3 134 65 202t177 68q47 0 88.5 -14t73 -39.5
t50 -60t18.5 -76.5zM263 188l37 19q1 -39 25 -61t62 -22q20 0 38 8t31.5 21t21 29.5t7.5 34.5q0 22 -9 40t-29.5 31t-54 19.5t-82.5 6.5v120h12q48 0 74.5 18t26.5 52q0 30 -19 49.5t-59 19.5q-37 0 -59.5 -25t-22.5 -92v-268z" />
    <glyph glyph-name="agrave" unicode="&#xe0;" horiz-adv-x="500" 
d="M460 8l-136 -16v51h-2q-23 -35 -55.5 -47t-72.5 -12q-85 0 -132 49.5t-47 136.5q0 38 14.5 69.5t39.5 53.5t58.5 34t71.5 12q29 0 60 -10.5t56 -28.5l1 19q0 28 -7.5 44.5t-21.5 25t-33.5 11t-42.5 2.5q-26 0 -60 -7t-70 -24l22 138q30 11 69.5 17t71.5 6
q108 0 162 -46.5t54 -130.5v-347zM238 104q32 0 54.5 18t22.5 50t-23 49.5t-55 17.5q-31 0 -54 -17.5t-23 -49.5t23 -50t55 -18zM260 742l98 -148h-121l-158 148h181z" />
    <glyph glyph-name="aacute" unicode="&#xe1;" horiz-adv-x="500" 
d="M460 8l-136 -16v51h-2q-23 -35 -55.5 -47t-72.5 -12q-85 0 -132 49.5t-47 136.5q0 38 14.5 69.5t39.5 53.5t58.5 34t71.5 12q29 0 60 -10.5t56 -28.5l1 19q0 28 -7.5 44.5t-21.5 25t-33.5 11t-42.5 2.5q-26 0 -60 -7t-70 -24l22 138q30 11 69.5 17t71.5 6
q108 0 162 -46.5t54 -130.5v-347zM238 104q32 0 54.5 18t22.5 50t-23 49.5t-55 17.5q-31 0 -54 -17.5t-23 -49.5t23 -50t55 -18zM449 742l-158 -148h-121l97 148h182z" />
    <glyph glyph-name="acircumflex" unicode="&#xe2;" horiz-adv-x="500" 
d="M460 8l-136 -16v51h-2q-23 -35 -55.5 -47t-72.5 -12q-85 0 -132 49.5t-47 136.5q0 38 14.5 69.5t39.5 53.5t58.5 34t71.5 12q29 0 60 -10.5t56 -28.5l1 19q0 28 -7.5 44.5t-21.5 25t-33.5 11t-42.5 2.5q-26 0 -60 -7t-70 -24l22 138q30 11 69.5 17t71.5 6
q108 0 162 -46.5t54 -130.5v-347zM238 104q32 0 54.5 18t22.5 50t-23 49.5t-55 17.5q-31 0 -54 -17.5t-23 -49.5t23 -50t55 -18zM340 742l113 -148h-129l-60 80l-60 -80h-128l112 148h152z" />
    <glyph glyph-name="atilde" unicode="&#xe3;" horiz-adv-x="500" 
d="M460 8l-136 -16v51h-2q-23 -35 -55.5 -47t-72.5 -12q-85 0 -132 49.5t-47 136.5q0 38 14.5 69.5t39.5 53.5t58.5 34t71.5 12q29 0 60 -10.5t56 -28.5l1 19q0 28 -7.5 44.5t-21.5 25t-33.5 11t-42.5 2.5q-26 0 -60 -7t-70 -24l22 138q30 11 69.5 17t71.5 6
q108 0 162 -46.5t54 -130.5v-347zM238 104q32 0 54.5 18t22.5 50t-23 49.5t-55 17.5q-31 0 -54 -17.5t-23 -49.5t23 -50t55 -18zM343 690q17 0 26.5 13t13.5 27h71q-6 -36 -17 -60.5t-27 -39.5t-37 -21t-45 -6q-17 0 -33.5 5t-33.5 11q-20 8 -38 14t-33 6q-17 0 -29.5 -13
t-14.5 -30h-71q3 27 13 51.5t26 42.5t37 29t46 11q20 0 42.5 -7.5t44.5 -15.5q18 -7 33 -12t26 -5z" />
    <glyph glyph-name="adieresis" unicode="&#xe4;" horiz-adv-x="500" 
d="M460 8l-136 -16v51h-2q-23 -35 -55.5 -47t-72.5 -12q-85 0 -132 49.5t-47 136.5q0 38 14.5 69.5t39.5 53.5t58.5 34t71.5 12q29 0 60 -10.5t56 -28.5l1 19q0 28 -7.5 44.5t-21.5 25t-33.5 11t-42.5 2.5q-26 0 -60 -7t-70 -24l22 138q30 11 69.5 17t71.5 6
q108 0 162 -46.5t54 -130.5v-347zM238 104q32 0 54.5 18t22.5 50t-23 49.5t-55 17.5q-31 0 -54 -17.5t-23 -49.5t23 -50t55 -18zM250 668l-83 -85l-85 85l83 84zM447 668l-83 -85l-85 85l83 84z" />
    <glyph glyph-name="aring" unicode="&#xe5;" horiz-adv-x="500" 
d="M460 8l-136 -16v51h-2q-23 -35 -55.5 -47t-72.5 -12q-85 0 -132 49.5t-47 136.5q0 38 14.5 69.5t39.5 53.5t58.5 34t71.5 12q29 0 60 -10.5t56 -28.5l1 19q0 28 -7.5 44.5t-21.5 25t-33.5 11t-42.5 2.5q-26 0 -60 -7t-70 -24l22 138q30 11 69.5 17t71.5 6
q108 0 162 -46.5t54 -130.5v-347zM238 104q32 0 54.5 18t22.5 50t-23 49.5t-55 17.5q-31 0 -54 -17.5t-23 -49.5t23 -50t55 -18zM264 594q-23 0 -43 8.5t-34.5 23t-22.5 34t-8 41.5t8.5 41.5t23 34.5t34 23.5t42.5 8.5t42.5 -9t34 -24t22.5 -34.5t8 -40.5q0 -23 -8.5 -42.5
t-23 -34t-34 -22.5t-41.5 -8zM264 653q20 0 34 14t14 34t-14.5 34.5t-34.5 14.5t-34 -14.5t-14 -34.5q0 -21 14.5 -34.5t34.5 -13.5z" />
    <glyph glyph-name="ae" unicode="&#xe6;" horiz-adv-x="889" 
d="M433 473q38 29 84 44t94 15q36 0 72 -10t69 -28.5t61 -46.5t48 -64l-330 -230q15 -15 37.5 -22t43.5 -7q43 0 82.5 16.5t74.5 42.5l84 -110q-52 -40 -112.5 -64.5t-129.5 -24.5q-57 0 -109 19.5t-91 59.5q-32 -39 -82 -59t-101 -20q-42 0 -78 12.5t-62 36t-40.5 56
t-14.5 73.5q0 39 14 71t39 55t59 35.5t74 12.5q31 0 60.5 -11t55.5 -29v27q0 25 -9.5 40.5t-24 24t-33 11.5t-36.5 3q-35 0 -68.5 -8t-66.5 -22l26 132q39 15 80.5 21.5t83.5 6.5t81 -13.5t65 -45.5zM675 385q-14 12 -32 14.5t-35 2.5q-27 0 -49.5 -10.5t-39 -29.5
t-25.5 -45.5t-9 -58.5zM251 104q30 0 51.5 17.5t21.5 48.5t-21 48.5t-53 17.5q-29 0 -50.5 -17t-21.5 -49q0 -31 21.5 -48.5t51.5 -17.5z" />
    <glyph glyph-name="ccedilla" unicode="&#xe7;" horiz-adv-x="500" 
d="M405 356q-21 18 -47.5 27t-53.5 9t-50.5 -9.5t-40.5 -26.5t-27 -39.5t-10 -48.5q0 -31 9.5 -57t26.5 -45.5t41 -30.5t54 -11q28 0 52 8.5t47 28.5l85 -111q-15 -15 -34 -26t-40.5 -19t-44.5 -12.5t-44 -6.5l-31 -48q10 3 17 4t14 1q18 0 35 -5t30.5 -14t22 -22.5
t8.5 -30.5q0 -48 -34.5 -73.5t-88.5 -25.5q-64 0 -123 25l19 45q20 -7 40.5 -12.5t41.5 -5.5q20 0 35.5 7.5t15.5 24.5q0 21 -13 30.5t-33 9.5q-10 0 -19 -2.5t-18 -4.5l-22 19l48 77q-59 6 -105.5 29t-79.5 59t-50.5 81t-17.5 95q0 62 20.5 114t58 89.5t90 58.5t115.5 21
q48 0 95.5 -15.5t86.5 -47.5z" />
    <glyph glyph-name="egrave" unicode="&#xe8;" 
d="M216 161q14 -20 37.5 -28.5t46.5 -8.5q42 0 79.5 17t69.5 43l82 -120q-51 -35 -109 -57.5t-125 -22.5q-60 0 -110.5 23.5t-87.5 61t-58 85.5t-21 97q0 55 20.5 106t57 90t86 62t106.5 23q40 0 78.5 -11t72 -31.5t61 -50t45.5 -65.5zM360 381q-12 13 -30.5 17t-38.5 4
q-26 0 -48 -11t-38.5 -29t-25.5 -42.5t-9 -51.5v-14zM302 742l98 -148h-121l-158 148h181z" />
    <glyph glyph-name="eacute" unicode="&#xe9;" 
d="M216 161q14 -20 37.5 -28.5t46.5 -8.5q42 0 79.5 17t69.5 43l82 -120q-51 -35 -109 -57.5t-125 -22.5q-60 0 -110.5 23.5t-87.5 61t-58 85.5t-21 97q0 55 20.5 106t57 90t86 62t106.5 23q40 0 78.5 -11t72 -31.5t61 -50t45.5 -65.5zM360 381q-12 13 -30.5 17t-38.5 4
q-26 0 -48 -11t-38.5 -29t-25.5 -42.5t-9 -51.5v-14zM491 742l-158 -148h-121l97 148h182z" />
    <glyph glyph-name="ecircumflex" unicode="&#xea;" 
d="M216 161q14 -20 37.5 -28.5t46.5 -8.5q42 0 79.5 17t69.5 43l82 -120q-51 -35 -109 -57.5t-125 -22.5q-60 0 -110.5 23.5t-87.5 61t-58 85.5t-21 97q0 55 20.5 106t57 90t86 62t106.5 23q40 0 78.5 -11t72 -31.5t61 -50t45.5 -65.5zM360 381q-12 13 -30.5 17t-38.5 4
q-26 0 -48 -11t-38.5 -29t-25.5 -42.5t-9 -51.5v-14zM382 742l113 -148h-129l-60 80l-60 -80h-128l112 148h152z" />
    <glyph glyph-name="edieresis" unicode="&#xeb;" 
d="M216 161q14 -20 37.5 -28.5t46.5 -8.5q42 0 79.5 17t69.5 43l82 -120q-51 -35 -109 -57.5t-125 -22.5q-60 0 -110.5 23.5t-87.5 61t-58 85.5t-21 97q0 55 20.5 106t57 90t86 62t106.5 23q40 0 78.5 -11t72 -31.5t61 -50t45.5 -65.5zM360 381q-12 13 -30.5 17t-38.5 4
q-26 0 -48 -11t-38.5 -29t-25.5 -42.5t-9 -51.5v-14zM292 668l-83 -85l-85 85l83 84zM489 668l-83 -85l-85 85l83 84z" />
    <glyph glyph-name="igrave" unicode="&#xec;" horiz-adv-x="278" 
d="M217 8l-156 -16v516l156 16v-516zM135 742l98 -148h-121l-158 148h181z" />
    <glyph glyph-name="iacute" unicode="&#xed;" horiz-adv-x="278" 
d="M217 8l-156 -16v516l156 16v-516zM324 742l-158 -148h-121l97 148h182z" />
    <glyph glyph-name="icircumflex" unicode="&#xee;" horiz-adv-x="278" 
d="M217 8l-156 -16v516l156 16v-516zM215 742l113 -148h-129l-60 80l-60 -80h-128l112 148h152z" />
    <glyph glyph-name="idieresis" unicode="&#xef;" horiz-adv-x="278" 
d="M217 8l-156 -16v516l156 16v-516zM125 668l-83 -85l-85 85l83 84zM322 668l-83 -85l-85 85l83 84z" />
    <glyph glyph-name="eth" unicode="&#xf0;" horiz-adv-x="611" 
d="M304 713q13 -9 24.5 -17.5t22.5 -17.5l126 34l60 -81l-99 -27q77 -75 115.5 -151t38.5 -157q0 -71 -22.5 -128.5t-61 -98t-91 -63t-112.5 -22.5q-57 0 -109 20.5t-91 57t-62.5 87t-23.5 109.5q0 53 21.5 98.5t59.5 78.5t91 51.5t116 18.5q12 0 21 -2t17 -6l11 -5
q-4 12 -19 32t-38 43l-121 -33l-60 80l99 27q-17 15 -36.5 29.5t-34.5 23.5zM305 129q27 0 50.5 10t41.5 27.5t28.5 41t10.5 50.5t-10.5 50.5t-28.5 41t-42 27.5t-51 10q-26 0 -49 -10t-41 -27.5t-28.5 -41t-10.5 -50.5t10.5 -50.5t28.5 -41t41.5 -27.5t49.5 -10z" />
    <glyph glyph-name="ntilde" unicode="&#xf1;" 
d="M188 454h2q30 45 66 61.5t69 16.5q97 0 142 -55.5t45 -158.5v-310l-156 -16v314q0 40 -20.5 63t-57.5 23t-57.5 -23t-20.5 -63v-298l-156 -16v524l144 16v-78zM357 690q17 0 26.5 13t13.5 27h71q-6 -36 -17 -60.5t-27 -39.5t-37 -21t-45 -6q-17 0 -33.5 5t-33.5 11
q-20 8 -38 14t-33 6q-17 0 -29.5 -13t-14.5 -30h-71q3 27 13 51.5t26 42.5t37 29t46 11q20 0 42.5 -7.5t44.5 -15.5q18 -7 33 -12t26 -5z" />
    <glyph glyph-name="ograve" unicode="&#xf2;" horiz-adv-x="611" 
d="M592 258q0 -59 -23.5 -109.5t-63 -87t-91.5 -57t-109 -20.5q-58 0 -110 21t-91 58t-62 87t-23 108t23 108.5t62 87t91 57.5t110 21q59 0 111 -21t91 -58t62 -87t23 -108zM305 129q26 0 50 10t42 27.5t28.5 41t10.5 50.5q0 26 -10 49.5t-28 41t-42 28t-52 10.5
q-25 0 -48.5 -10t-41.5 -27t-28.5 -41t-10.5 -51q0 -26 10.5 -49.5t28 -41t41 -28t50.5 -10.5zM302 742l98 -148h-121l-158 148h181z" />
    <glyph glyph-name="oacute" unicode="&#xf3;" horiz-adv-x="611" 
d="M592 258q0 -59 -23.5 -109.5t-63 -87t-91.5 -57t-109 -20.5q-58 0 -110 21t-91 58t-62 87t-23 108t23 108.5t62 87t91 57.5t110 21q59 0 111 -21t91 -58t62 -87t23 -108zM305 129q26 0 50 10t42 27.5t28.5 41t10.5 50.5q0 26 -10 49.5t-28 41t-42 28t-52 10.5
q-25 0 -48.5 -10t-41.5 -27t-28.5 -41t-10.5 -51q0 -26 10.5 -49.5t28 -41t41 -28t50.5 -10.5zM491 742l-158 -148h-121l97 148h182z" />
    <glyph glyph-name="ocircumflex" unicode="&#xf4;" horiz-adv-x="611" 
d="M592 258q0 -59 -23.5 -109.5t-63 -87t-91.5 -57t-109 -20.5q-58 0 -110 21t-91 58t-62 87t-23 108t23 108.5t62 87t91 57.5t110 21q59 0 111 -21t91 -58t62 -87t23 -108zM305 129q26 0 50 10t42 27.5t28.5 41t10.5 50.5q0 26 -10 49.5t-28 41t-42 28t-52 10.5
q-25 0 -48.5 -10t-41.5 -27t-28.5 -41t-10.5 -51q0 -26 10.5 -49.5t28 -41t41 -28t50.5 -10.5zM382 742l113 -148h-129l-60 80l-60 -80h-128l112 148h152z" />
    <glyph glyph-name="otilde" unicode="&#xf5;" horiz-adv-x="611" 
d="M592 258q0 -59 -23.5 -109.5t-63 -87t-91.5 -57t-109 -20.5q-58 0 -110 21t-91 58t-62 87t-23 108t23 108.5t62 87t91 57.5t110 21q59 0 111 -21t91 -58t62 -87t23 -108zM305 129q26 0 50 10t42 27.5t28.5 41t10.5 50.5q0 26 -10 49.5t-28 41t-42 28t-52 10.5
q-25 0 -48.5 -10t-41.5 -27t-28.5 -41t-10.5 -51q0 -26 10.5 -49.5t28 -41t41 -28t50.5 -10.5zM385 690q17 0 26.5 13t13.5 27h71q-6 -36 -17 -60.5t-27 -39.5t-37 -21t-45 -6q-17 0 -33.5 5t-33.5 11q-20 8 -38 14t-33 6q-17 0 -29.5 -13t-14.5 -30h-71q3 27 13 51.5
t26 42.5t37 29t46 11q20 0 42.5 -7.5t44.5 -15.5q18 -7 33 -12t26 -5z" />
    <glyph glyph-name="odieresis" unicode="&#xf6;" horiz-adv-x="611" 
d="M592 258q0 -59 -23.5 -109.5t-63 -87t-91.5 -57t-109 -20.5q-58 0 -110 21t-91 58t-62 87t-23 108t23 108.5t62 87t91 57.5t110 21q59 0 111 -21t91 -58t62 -87t23 -108zM305 129q26 0 50 10t42 27.5t28.5 41t10.5 50.5q0 26 -10 49.5t-28 41t-42 28t-52 10.5
q-25 0 -48.5 -10t-41.5 -27t-28.5 -41t-10.5 -51q0 -26 10.5 -49.5t28 -41t41 -28t50.5 -10.5zM292 668l-83 -85l-85 85l83 84zM489 668l-83 -85l-85 85l83 84z" />
    <glyph glyph-name="divide" unicode="&#xf7;" horiz-adv-x="600" 
d="M394 467q0 -20 -8 -37t-21 -30t-30 -20t-35 -7t-35 7t-30 20t-21 30t-8 37q0 19 8 36.5t21 30t30 20t35 7.5t35 -7.5t30 -20t21 -30t8 -36.5zM558 319v-122h-516v122h516zM394 49q0 -20 -8 -37t-21 -30t-30 -20t-35 -7t-35 7t-30 20t-21 30t-8 37q0 19 8 36.5t21 30
t30 20t35 7.5t35 -7.5t30 -20t21 -30t8 -36.5z" />
    <glyph glyph-name="oslash" unicode="&#xf8;" horiz-adv-x="611" 
d="M504 613l68 -31l-80 -116q46 -37 73 -89.5t27 -118.5q0 -59 -23 -109t-62.5 -87t-91.5 -57.5t-110 -20.5q-34 0 -66 7.5t-60 22.5l-69 -100l-65 36l71 103q-45 36 -71 88.5t-26 116.5q0 58 22.5 108t61.5 87t91 58t111 21q65 0 124 -28zM343 381q-17 6 -39 6
q-26 0 -49.5 -10.5t-41 -28t-28 -41t-10.5 -49.5q0 -45 28 -79zM264 137q17 -8 41 -8q27 0 51 10.5t41.5 28t28 41t10.5 49.5q0 24 -8.5 45t-22.5 37z" />
    <glyph glyph-name="ugrave" unicode="&#xf9;" 
d="M278 124q38 0 58 23t20 64v297l156 16v-516l-144 -16v78h-2q-18 -42 -54 -64t-81 -22q-94 0 -140.5 53.5t-46.5 159.5v311l156 16v-313q0 -42 20.5 -64.5t57.5 -22.5zM279 742l98 -148h-121l-158 148h181z" />
    <glyph glyph-name="uacute" unicode="&#xfa;" 
d="M278 124q38 0 58 23t20 64v297l156 16v-516l-144 -16v78h-2q-18 -42 -54 -64t-81 -22q-94 0 -140.5 53.5t-46.5 159.5v311l156 16v-313q0 -42 20.5 -64.5t57.5 -22.5zM468 742l-158 -148h-121l97 148h182z" />
    <glyph glyph-name="ucircumflex" unicode="&#xfb;" 
d="M278 124q38 0 58 23t20 64v297l156 16v-516l-144 -16v78h-2q-18 -42 -54 -64t-81 -22q-94 0 -140.5 53.5t-46.5 159.5v311l156 16v-313q0 -42 20.5 -64.5t57.5 -22.5zM359 742l113 -148h-129l-60 80l-60 -80h-128l112 148h152z" />
    <glyph glyph-name="udieresis" unicode="&#xfc;" 
d="M278 124q38 0 58 23t20 64v297l156 16v-516l-144 -16v78h-2q-18 -42 -54 -64t-81 -22q-94 0 -140.5 53.5t-46.5 159.5v311l156 16v-313q0 -42 20.5 -64.5t57.5 -22.5zM269 668l-83 -85l-85 85l83 84zM466 668l-83 -85l-85 85l83 84z" />
    <glyph glyph-name="yacute" unicode="&#xfd;" horiz-adv-x="500" 
d="M125 532l125 -306l124 306l150 -38l-303 -678l-163 16l111 223l-196 440l148 36zM435 742l-158 -148h-121l97 148h182z" />
    <glyph glyph-name="thorn" unicode="&#xfe;" horiz-adv-x="611" 
d="M189 438h2q7 22 22 39.5t34.5 29.5t42.5 18.5t47 6.5q53 0 99 -22t80.5 -60.5t54.5 -89.5t20 -108q0 -52 -21 -100t-57 -85.5t-83.5 -60t-100.5 -22.5q-54 0 -88 16.5t-50 42.5h-2v-211l-156 -16v881l156 16v-275zM308 124q27 0 50 11.5t40.5 30t27 42.5t9.5 50
q0 25 -9.5 49.5t-26.5 43t-40.5 30t-51.5 11.5q-26 0 -49 -11t-40 -30t-27 -43t-10 -50t10 -50t27 -43t40 -30t50 -11z" />
    <glyph glyph-name="ydieresis" unicode="&#xff;" horiz-adv-x="500" 
d="M125 532l125 -306l124 306l150 -38l-303 -678l-163 16l111 223l-196 440l148 36zM236 668l-83 -85l-85 85l83 84zM433 668l-83 -85l-85 85l83 84z" />
    <glyph glyph-name="dotlessi" unicode="&#x131;" horiz-adv-x="278" 
d="M217 8l-156 -16v516l156 16v-516z" />
    <glyph glyph-name="Lslash" unicode="&#x141;" horiz-adv-x="444" 
d="M223 440l109 60v-152l-109 -60v-132h225l-45 -156h-350v193l-49 -27v152l49 27v341l170 16v-262z" />
    <glyph glyph-name="lslash" unicode="&#x142;" horiz-adv-x="278" 
d="M217 473l61 44v-121l-61 -43v-345l-156 -16v250l-61 -43v120l61 43v335l156 16v-240z" />
    <glyph glyph-name="OE" unicode="&#x152;" horiz-adv-x="1000" 
d="M565 613v73h374l31 -145h-250v-119h180v-145h-180v-132h272l-39 -145h-382v69h-2q-25 -42 -75.5 -63.5t-116.5 -21.5q-81 0 -147 26t-112.5 73t-71.5 113.5t-25 146.5t25 146t71.5 113.5t112 73.5t146.5 26q25 0 52.5 -5.5t52.5 -17t46.5 -28t35.5 -38.5h2zM372 140
q40 0 75 16.5t60.5 44.5t40.5 64.5t15 77.5q0 40 -14.5 76.5t-40 64.5t-60.5 45t-76 17q-40 0 -75 -16.5t-60.5 -44t-40.5 -64.5t-15 -78t15 -77.5t40.5 -64.5t60.5 -44.5t75 -16.5z" />
    <glyph glyph-name="oe" unicode="&#x153;" horiz-adv-x="1000" 
d="M524 454q38 38 90 58t106 20q39 0 76.5 -11t71 -31.5t61.5 -50t47 -66.5l-340 -215q16 -17 40.5 -25.5t47.5 -8.5q42 0 80 14.5t73 39.5l77 -114q-45 -35 -106.5 -57.5t-119.5 -22.5q-64 0 -110.5 18t-94.5 60q-40 -39 -91 -58.5t-106 -19.5q-62 0 -117 19t-96 54
t-65 84.5t-24 110.5q0 59 22.5 110.5t61.5 89t91.5 59t112.5 21.5q58 0 114 -18.5t98 -59.5zM589 262l197 121q-14 12 -31.5 15.5t-36.5 3.5q-24 0 -47.5 -11t-41.5 -30t-29 -43.5t-11 -51.5v-4zM310 129q25 0 48.5 10t41.5 27.5t28.5 41t10.5 50.5q0 26 -10.5 49.5t-28 41
t-41 28t-50.5 10.5q-26 0 -49.5 -10.5t-41 -28t-28 -41t-10.5 -49.5t10.5 -49.5t28.5 -41t41.5 -28t49.5 -10.5z" />
    <glyph glyph-name="Scaron" unicode="&#x160;" 
d="M418 505q-32 29 -59 40.5t-53 11.5q-35 0 -60 -14t-25 -40q0 -16 8.5 -27.5t23.5 -20t35 -15.5t42 -14q33 -11 68.5 -24.5t64 -36.5t47 -59.5t18.5 -92.5q0 -59 -21.5 -102t-58 -71.5t-84 -42t-99.5 -13.5q-67 0 -128.5 20t-109.5 61l102 130q22 -26 56 -40.5t69 -14.5
q38 0 66 16t28 45q0 19 -12 31.5t-31.5 22t-45.5 17.5t-53 17q-30 10 -59.5 25t-53 38t-38 56.5t-14.5 81.5t20 87t54 66.5t79.5 43t96.5 15.5q60 0 117 -20.5t103 -58.5zM261 883l60 -80l60 80h128l-112 -148h-152l-113 148h129z" />
    <glyph glyph-name="scaron" unicode="&#x161;" horiz-adv-x="444" 
d="M312 373q-17 13 -38 21t-44 8q-53 0 -53 -31q0 -25 24 -34t57 -16q26 -6 54 -13.5t51.5 -24.5t38.5 -46.5t15 -78.5q0 -40 -16 -72.5t-44 -55t-65 -34.5t-79 -12q-32 0 -58 3.5t-49.5 11.5t-46.5 21.5t-49 33.5l79 107q47 -47 113 -47q38 0 54 11t16 30q0 12 -8.5 19
t-22.5 12t-32 8.5t-38 8.5q-25 6 -49.5 15.5t-44.5 27.5t-32.5 46t-12.5 72q0 40 14.5 71.5t41 53t62 32.5t77.5 11q47 0 92 -20t79 -52zM163 742l60 -80l60 80h128l-112 -148h-152l-113 148h129z" />
    <glyph glyph-name="Ydieresis" unicode="&#x178;" 
d="M129 702l175 -277l111 277l161 -50l-287 -668l-176 22l110 237l-253 394zM306 809l-83 -85l-85 85l83 84zM503 809l-83 -85l-85 85l83 84z" />
    <glyph glyph-name="Zcaron" unicode="&#x17d;" horiz-adv-x="611" 
d="M596 686l-329 -530h339l-38 -156h-581l331 530h-286l33 156h531zM289 883l60 -80l60 80h128l-112 -148h-152l-113 148h129z" />
    <glyph glyph-name="zcaron" unicode="&#x17e;" horiz-adv-x="500" 
d="M479 516l-227 -376h234l-38 -140h-443l235 386h-195l31 130h403zM191 742l60 -80l60 80h128l-112 -148h-152l-113 148h129z" />
    <glyph glyph-name="florin" unicode="&#x192;" 
d="M517 551q-11 6 -26.5 10.5t-28.5 4.5q-42 0 -63 -30t-26 -102h120v-130h-132l-22 -216q-1 -12 -4.5 -34.5t-10 -48.5t-15 -52t-20.5 -45q-12 -20 -27.5 -36.5t-36.5 -29t-49.5 -19.5t-65.5 -7q-16 0 -45 5t-56 19l23 145q26 -8 53 -8q16 0 35 6.5t30 21.5q11 14 17 37
t11 65l22 197h-114v130h128q7 81 23 137t43 90.5t66 50t92 15.5q27 0 53 -7t54 -16z" />
    <glyph glyph-name="circumflex" unicode="&#x2c6;" horiz-adv-x="278" 
d="M215 742l113 -148h-129l-60 80l-60 -80h-128l112 148h152z" />
    <glyph glyph-name="caron" unicode="&#x2c7;" horiz-adv-x="278" 
d="M80 742l60 -80l60 80h128l-112 -148h-152l-113 148h129z" />
    <glyph glyph-name="uni02C9" unicode="&#x2c9;" horiz-adv-x="278" 
d="M321 707v-85h-363v85h363z" />
    <glyph glyph-name="breve" unicode="&#x2d8;" horiz-adv-x="278" 
d="M36 745q1 -18 10.5 -31t23.5 -21.5t31 -12t33 -3.5q57 0 80.5 18.5t28.5 49.5h71q-2 -37 -16 -65.5t-38 -48t-56.5 -29.5t-69.5 -10t-68 10.5t-53.5 30.5t-35 48.5t-12.5 63.5h71z" />
    <glyph glyph-name="dotaccent" unicode="&#x2d9;" horiz-adv-x="278" 
d="M223 668l-83 -85l-85 85l83 84z" />
    <glyph glyph-name="ring" unicode="&#x2da;" horiz-adv-x="278" 
d="M139 594q-23 0 -43 8.5t-34.5 23t-22.5 34t-8 41.5t8.5 41.5t23 34.5t34 23.5t42.5 8.5t42.5 -9t34 -24t22.5 -34.5t8 -40.5q0 -23 -8.5 -42.5t-23 -34t-34 -22.5t-41.5 -8zM139 653q20 0 34 14t14 34t-14.5 34.5t-34.5 14.5t-34 -14.5t-14 -34.5q0 -21 14.5 -34.5
t34.5 -13.5z" />
    <glyph glyph-name="ogonek" unicode="&#x2db;" horiz-adv-x="278" 
d="M258 0q-73 -27 -105 -58.5t-32 -66.5q0 -23 13 -37t35 -14q24 0 50 14t46 30l20 -36q-34 -23 -71.5 -41.5t-79.5 -18.5q-43 0 -75 23.5t-32 68.5q0 112 231 148v-12z" />
    <glyph glyph-name="tilde" unicode="&#x2dc;" horiz-adv-x="278" 
d="M218 690q17 0 26.5 13t13.5 27h71q-6 -36 -17 -60.5t-27 -39.5t-37 -21t-45 -6q-17 0 -33.5 5t-33.5 11q-20 8 -38 14t-33 6q-17 0 -29.5 -13t-14.5 -30h-71q3 27 13 51.5t26 42.5t37 29t46 11q20 0 42.5 -7.5t44.5 -15.5q18 -7 33 -12t26 -5z" />
    <glyph glyph-name="hungarumlaut" unicode="&#x2dd;" horiz-adv-x="278" 
d="M161 742l-100 -148h-91l40 148h151zM355 742l-127 -148h-98l68 148h157z" />
    <glyph glyph-name="uni03A9" unicode="&#x3a9;" horiz-adv-x="698" 
d="M649 396q1 -73 -28 -143.5t-89 -128.5v-3h131v-121h-274v89q53 34 80 105t27 168q0 48 -10 88t-29 68.5t-46 44t-61 15.5q-35 0 -63 -16.5t-48 -46t-30.5 -70t-10.5 -88.5q0 -97 28.5 -167t79.5 -101v-89h-274v121h128v3q-57 54 -85.5 123t-28.5 142q0 65 22.5 122
t63 100t96.5 67.5t123 24.5q70 0 125 -26t93 -69t58.5 -98.5t21.5 -113.5z" />
    <glyph glyph-name="uni03BC" unicode="&#x3bc;" 
d="M200 211q0 -41 20 -64t58 -23t58 23.5t20 63.5v297l156 16v-516l-144 -16v78h-2q-17 -42 -53.5 -64t-81.5 -22q-18 0 -31 3v-155l-156 -16v692l156 16v-313z" />
    <glyph glyph-name="pi" unicode="&#x3c0;" horiz-adv-x="612" 
d="M600 522l-11 -127h-65v-256q0 -34 2.5 -69.5t9.5 -69.5h-145q-5 9 -8.5 24.5t-5.5 34t-3 38.5t-1 38v260h-116q-3 -59 -9 -117t-14.5 -110t-18 -95.5t-18.5 -72.5h-145q11 38 21 92.5t18 111t13 107t5 80.5v4q-30 0 -51.5 -2t-39.5 -7l-16 100q20 17 65.5 26.5t102.5 9.5
h430z" />
    <glyph glyph-name="endash" unicode="&#x2013;" horiz-adv-x="500" 
d="M500 310v-104h-500v104h500z" />
    <glyph glyph-name="emdash" unicode="&#x2014;" horiz-adv-x="1000" 
d="M1000 310v-104h-1000v104h1000z" />
    <glyph glyph-name="quoteleft" unicode="&#x2018;" horiz-adv-x="222" 
d="M193 664q-25 -46 -37 -75.5t-12 -51.5q0 -26 15 -47.5t39 -29.5l-107 -72q-14 7 -26 19.5t-21 27.5t-14.5 31.5t-5.5 31.5q0 21 5 42t16 45t28 52.5t42 64.5z" />
    <glyph glyph-name="quoteright" unicode="&#x2019;" horiz-adv-x="222" 
d="M131 702q14 -7 26.5 -20t21.5 -28t14 -31.5t5 -31.5q0 -39 -20.5 -85t-70.5 -118l-78 38q25 46 37 75.5t12 51.5q0 27 -15.5 48.5t-38.5 28.5z" />
    <glyph glyph-name="quotesinglbase" unicode="&#x201a;" horiz-adv-x="222" 
d="M133 160q13 -9 24.5 -22.5t19.5 -27.5t13 -28t5 -26q0 -13 -3 -29.5t-12.5 -38.5t-28.5 -51.5t-51 -68.5l-73 42q14 25 29 54.5t15 60.5q0 19 -11 35.5t-24 18.5z" />
    <glyph glyph-name="quotedblleft" unicode="&#x201c;" horiz-adv-x="444" 
d="M216 660q-14 -25 -29 -54.5t-15 -60.5q0 -20 11.5 -36t23.5 -18l-97 -81q-11 8 -22 20t-20 26.5t-14.5 29t-5.5 26.5q0 17 3.5 35t14 40t29 50t48.5 65zM395 660q-13 -25 -28.5 -53.5t-15.5 -61.5q0 -20 11.5 -36t23.5 -18l-97 -81q-12 9 -23 21.5t-20 26.5t-14 28.5
t-5 26.5q0 13 2.5 29t12.5 38.5t28.5 52t51.5 69.5z" />
    <glyph glyph-name="quotedblright" unicode="&#x201d;" horiz-adv-x="444" 
d="M155 702q14 -10 25.5 -23.5t19.5 -27.5t12.5 -27.5t4.5 -24.5q0 -17 -4 -35t-14.5 -40t-29 -50t-47.5 -64l-73 42q14 25 29 54.5t15 60.5q0 19 -11 35.5t-24 18.5zM334 702q29 -21 45.5 -51.5t16.5 -52.5q0 -12 -2.5 -28t-12.5 -38t-28.5 -52t-51.5 -70l-73 42
q14 25 29 54.5t15 60.5q0 19 -10.5 35t-24.5 19z" />
    <glyph glyph-name="quotedblbase" unicode="&#x201e;" horiz-adv-x="444" 
d="M155 160q13 -9 24 -22t19.5 -27.5t13.5 -28.5t5 -26q0 -17 -3.5 -33.5t-13.5 -37.5t-28.5 -49.5t-49.5 -67.5l-73 42l3 4q14 27 27.5 54.5t13.5 56.5q0 19 -11 35.5t-24 18.5zM334 160q12 -8 23 -20.5t19.5 -27t14 -29.5t5.5 -27q0 -15 -3.5 -32t-13.5 -39t-28.5 -50
t-49.5 -67l-73 42l3 5q14 23 27.5 53.5t13.5 56.5q0 19 -11 35.5t-24 18.5z" />
    <glyph glyph-name="dagger" unicode="&#x2020;" 
d="M357 686l-37 -182l175 36v-153l-175 36l37 -165q-4 -19 -9 -55t-9.5 -79t-9 -88t-8 -82.5t-5.5 -62.5t-2 -27h-73q-1 22 -4 56.5t-6.5 74t-8 81t-9 78t-8.5 64t-7 40.5l37 165l-175 -36v153l175 -36l-37 182h159z" />
    <glyph glyph-name="daggerdbl" unicode="&#x2021;" 
d="M357 686l-37 -180l175 36v-153l-175 36l39 -149l-39 -149l175 36v-153l-175 36l37 -182h-159l37 182l-175 -36v153l175 -36l-39 149l39 149l-175 -36v153l175 -36l-37 180h159z" />
    <glyph glyph-name="bullet" unicode="&#x2022;" horiz-adv-x="500" 
d="M250 171q-36 0 -67.5 13.5t-55 37t-36.5 54.5t-13 67t13 67t36.5 54t55 36.5t67.5 13.5q37 0 68.5 -14t54.5 -38t35.5 -55t12.5 -64q0 -35 -13 -66t-36 -54.5t-54.5 -37.5t-67.5 -14z" />
    <glyph glyph-name="ellipsis" unicode="&#x2026;" horiz-adv-x="1000" 
d="M167 216l117 -115l-117 -115l-117 115zM500 216l117 -115l-117 -115l-117 115zM833 216l117 -115l-117 -115l-117 115z" />
    <glyph glyph-name="perthousand" unicode="&#x2030;" horiz-adv-x="1000" 
d="M392 605q18 0 38.5 6.5t39 17.5t34 25.5t23.5 31.5h84l-490 -702h-90l397 567q-20 -5 -30 -6t-19 -1q-35 0 -65 15q2 -5 3 -16t1 -13q0 -31 -12 -59t-33 -49t-50 -33.5t-62 -12.5q-32 0 -60.5 12t-50 33t-34 49t-12.5 61q0 32 12.5 60.5t33.5 49.5t49.5 33t60.5 12
q50 0 111 -40q31 -20 60 -30.5t61 -10.5zM161 472q25 0 43 17t18 41t-18 42t-44 18q-24 0 -42 -18t-18 -42t18 -41t43 -17zM645 155q0 -32 -12 -60t-33 -49t-50 -33.5t-62 -12.5t-61.5 12.5t-50 33.5t-33.5 49t-12 60t12.5 60.5t33.5 49.5t49.5 33t61.5 12t61.5 -12.5
t50 -33.5t33.5 -49t12 -60zM1007 155q0 -32 -12 -60t-33.5 -49t-50 -33.5t-61.5 -12.5t-61.5 12.5t-50 33.5t-33.5 49t-12 60t12 60.5t33.5 49.5t50 33t61.5 12t61.5 -12.5t50 -33.5t33.5 -49t12 -60zM488 96q25 0 43 17.5t18 41.5t-18 41.5t-44 17.5q-24 0 -42 -17.5
t-18 -41.5t18 -41.5t43 -17.5zM850 96q25 0 43 17.5t18 41.5t-18 41.5t-44 17.5q-24 0 -42 -17.5t-18 -41.5t18 -41.5t43 -17.5z" />
    <glyph glyph-name="guilsinglleft" unicode="&#x2039;" horiz-adv-x="333" 
d="M285 427l-114 -169l118 -169h-129l-116 169l112 169h129z" />
    <glyph glyph-name="guilsinglright" unicode="&#x203a;" horiz-adv-x="333" 
d="M173 427l116 -169l-112 -169h-129l114 169l-118 169h129z" />
    <glyph glyph-name="fraction" unicode="&#x2044;" horiz-adv-x="167" 
d="M334 702l-420 -718h-81l420 718h81z" />
    <glyph glyph-name="Euro" unicode="&#x20ac;" 
d="M523 498q-19 20 -47 34.5t-62 14.5q-51 0 -82.5 -24.5t-48.5 -59.5h153l-18 -90h-159l-1 -49h150l-17 -90h-116q16 -43 49.5 -69t88.5 -26q24 0 56.5 13.5t56.5 37.5l-17 -181q-20 -14 -49.5 -19.5t-55.5 -5.5q-53 0 -100.5 16.5t-85.5 48.5t-66 78.5t-42 106.5h-90
l17 90h61l1 49h-79l18 90h76q32 115 109 177t179 62q21 0 46.5 -5t48.5 -17z" />
    <glyph glyph-name="afii61289" unicode="&#x2113;" horiz-adv-x="524" 
d="M439 574q0 -86 -52.5 -168.5t-138.5 -165.5q0 -8 0.5 -20.5t0.5 -19.5q0 -25 6.5 -42.5t17.5 -29t24 -16.5t27 -5q41 0 72 27t53 60l59 -62q-35 -69 -88.5 -107t-128.5 -38q-53 0 -87.5 15.5t-55 39t-30.5 50t-13 48.5v10q-12 -8 -24 -18t-25 -19l-36 78q23 19 43.5 35
t39.5 33v242q0 59 13 106.5t37.5 80.5t59.5 51t79 18q69 0 108 -47.5t39 -135.5zM248 374q44 52 71.5 107t27.5 100q0 34 -10 52t-36 18q-27 0 -40 -40.5t-13 -104.5v-132z" />
    <glyph glyph-name="trademark" unicode="&#x2122;" horiz-adv-x="1000" 
d="M380 686v-90h-113v-322h-118v322h-113v90h344zM630 686l89 -239l89 239h156v-412h-108v270h-2l-91 -270h-88l-91 270h-2v-270h-108v412h156z" />
    <glyph glyph-name="Omega" unicode="&#x2126;" horiz-adv-x="698" 
d="M649 396q1 -73 -28 -143.5t-89 -128.5v-3h131v-121h-274v89q53 34 80 105t27 168q0 48 -10 88t-29 68.5t-46 44t-61 15.5q-35 0 -63 -16.5t-48 -46t-30.5 -70t-10.5 -88.5q0 -97 28.5 -167t79.5 -101v-89h-274v121h128v3q-57 54 -85.5 123t-28.5 142q0 65 22.5 122
t63 100t96.5 67.5t123 24.5q70 0 125 -26t93 -69t58.5 -98.5t21.5 -113.5z" />
    <glyph glyph-name="estimated" unicode="&#x212e;" horiz-adv-x="866" 
d="M184 333l-4 -2v-197q0 -5 1.5 -11t6.5 -11q45 -48 107.5 -77.5t137.5 -29.5q78 0 143.5 32t113.5 87h57q-54 -63 -136 -101t-179 -38q-84 0 -157 28.5t-126.5 77.5t-84.5 114t-31 138q0 76 32 141.5t87 114t127 76t153 27.5q83 0 155.5 -28.5t126.5 -77t85.5 -114
t31.5 -138.5v-11h-647zM180 357l3 -5h496q6 0 6 5v197q0 5 -1 9.5t-6 10.5q-12 14 -34.5 32t-54 34.5t-71.5 28t-86 11.5q-41 0 -77.5 -9.5t-67.5 -24.5t-56.5 -34.5t-43.5 -39.5q-5 -7 -7 -17v-198z" />
    <glyph glyph-name="partialdiff" unicode="&#x2202;" horiz-adv-x="583" 
d="M537 401q0 -96 -20.5 -172t-58 -129.5t-91 -82t-119.5 -28.5q-50 0 -89.5 20.5t-67 54t-42 76.5t-14.5 87q0 59 16.5 107.5t45.5 83t68.5 53t85.5 18.5q35 0 72 -16t66 -56h1v21q0 47 -11.5 87t-32.5 69.5t-50.5 46t-65.5 16.5q-38 0 -68.5 -13.5t-58.5 -33.5l-40 112
q81 58 188 58q64 0 117 -27t90.5 -76.5t58 -119.5t20.5 -156zM264 113q21 0 39.5 14.5t33 39.5t25 58.5t15.5 71.5q-10 30 -36 51t-59 21q-23 0 -41.5 -12.5t-31 -33t-19.5 -47.5t-7 -56q0 -47 23 -77t58 -30z" />
    <glyph glyph-name="Delta" unicode="&#x2206;" horiz-adv-x="655" 
d="M421 705l209 -619v-86h-606v84l218 621h179zM327 546h-3l-48 -161l-97 -265h290l-130 382z" />
    <glyph glyph-name="product" unicode="&#x220f;" horiz-adv-x="725" 
d="M701 692v-136h-97v-651h-149v651h-186v-651h-148v651h-98v136h678z" />
    <glyph glyph-name="summation" unicode="&#x2211;" horiz-adv-x="555" 
d="M522 692v-127h-292v-3l188 -238l-212 -278v-4h333v-138h-516v95l227 300l-219 289v104h491z" />
    <glyph glyph-name="minus" unicode="&#x2212;" horiz-adv-x="600" 
d="M558 319v-122h-516v122h516z" />
    <glyph glyph-name="uni2215" unicode="&#x2215;" horiz-adv-x="167" 
d="M334 702l-420 -718h-81l420 718h81z" />
    <glyph glyph-name="uni2219" unicode="&#x2219;" horiz-adv-x="278" 
d="M227 259q0 -37 -25 -63t-63 -26q-37 0 -62.5 25.5t-25.5 63.5q0 18 7 34t19 27.5t28 18.5t34 7t34 -7t28 -19t19 -27.5t7 -33.5z" />
    <glyph glyph-name="radical" unicode="&#x221a;" horiz-adv-x="598" 
d="M329 31q5 19 8 49t12 67l159 687h102l-224 -969h-117l-142 422l-73 -29l-24 81l185 76l87 -276q5 -15 9 -32.5t7.5 -33t6 -27t3.5 -15.5h1z" />
    <glyph glyph-name="infinity" unicode="&#x221e;" horiz-adv-x="772" 
d="M390 349q48 59 89 82.5t87 23.5q33 0 61.5 -12t50.5 -34.5t34.5 -53.5t12.5 -70q0 -40 -13 -73t-35 -56t-52 -36t-63 -13q-56 0 -96.5 27.5t-78.5 81.5q-39 -49 -80.5 -79t-100.5 -30q-33 0 -62 13t-51 36t-34.5 54.5t-12.5 68.5t12 69t34 56t53.5 37.5t69.5 13.5
q55 0 96 -27.5t79 -78.5zM216 186q14 0 28 4t29 14t32.5 27.5t38.5 44.5q-24 35 -42.5 55t-33.5 30.5t-28.5 13.5t-27.5 3q-38 0 -62 -27.5t-24 -72.5q0 -38 26 -65t64 -27zM430 283q19 -25 35 -43.5t31.5 -30.5t31.5 -17.5t36 -5.5q35 0 57.5 28t22.5 65q0 42 -23 70.5
t-63 28.5q-33 0 -62.5 -24t-65.5 -71z" />
    <glyph glyph-name="integral" unicode="&#x222b;" horiz-adv-x="410" 
d="M372 748q-10 4 -17 5.5t-17 1.5q-24 0 -38.5 -11.5t-22.5 -34.5t-10.5 -59t-2.5 -84q0 -57 2.5 -111.5t5 -111.5t5 -119t2.5 -133q0 -26 -2 -54t-7 -55t-13 -51.5t-20 -41.5q-23 -35 -58.5 -50t-70.5 -15q-26 0 -48.5 4t-36.5 12l17 105q8 -3 18 -6.5t24 -3.5q18 0 31 8
t20.5 27.5t11 52t3.5 80.5q0 45 -2.5 105t-5 124.5t-5 126.5t-2.5 110v30q1 87 19.5 139t47 79t62 35t64.5 8q20 0 34.5 -3t24.5 -8z" />
    <glyph glyph-name="approxequal" unicode="&#x2248;" horiz-adv-x="540" 
d="M365 387q29 0 48 20t39 50l51 -48q-26 -48 -61 -76.5t-76 -28.5q-33 0 -57.5 10.5t-45.5 23.5q-22 14 -42 25.5t-45 11.5q-32 0 -52 -21.5t-39 -48.5l-51 48q22 45 61 74.5t87 29.5q32 0 55.5 -10t44.5 -23q22 -14 41.5 -25.5t41.5 -11.5zM363 195q30 0 49.5 19.5
t39.5 50.5l51 -48q-25 -48 -60 -76.5t-82 -28.5q-26 0 -49 9.5t-43 21.5q-23 14 -45.5 27.5t-43.5 13.5q-12 0 -22.5 -2t-21.5 -9.5t-23.5 -21.5t-27.5 -38l-51 48q22 44 60.5 74t86.5 30q32 0 57 -10t45 -23q23 -14 41.5 -25.5t38.5 -11.5z" />
    <glyph glyph-name="notequal" unicode="&#x2260;" horiz-adv-x="540" 
d="M337 538l66 -26l-36 -83h126v-84h-157l-55 -129h212v-84h-243l-48 -111l-66 27l37 84h-127v84h159l54 129h-213v84h244z" />
    <glyph glyph-name="lessequal" unicode="&#x2264;" horiz-adv-x="540" 
d="M490 534l-357 -167v-2l357 -167v-98l-439 220v92l439 219v-97zM494 65v-86h-446v86h446z" />
    <glyph glyph-name="greaterequal" unicode="&#x2265;" horiz-adv-x="540" 
d="M493 411v-91l-439 -220v98l357 167v2l-358 167v97zM492 65v-86h-443v86h443z" />
    <glyph glyph-name="lozenge" unicode="&#x25ca;" horiz-adv-x="597" 
d="M361 741l189 -396l-195 -395h-119l-189 395l195 396h119zM298 622q-5 -17 -9 -33.5t-15 -39.5l-96 -201l95 -209q11 -23 15 -42t7 -29h5q4 13 6.5 22.5t5 17l5 15t7.5 16.5l95 203l-97 213q-2 4 -5 12.5t-6 18t-5.5 19.5t-3.5 17h-4z" />
    </font>
</defs>
</svg>
